<svg id="Pattern" xmlns="http://www.w3.org/2000/svg" viewBox="0 0 116 116"><defs><style>.cls-1{fill:none;stroke:#d13a32;stroke-linecap:square;stroke-linejoin:round;}</style></defs><title>Novartis_Open_Graduated_Carmine_120px</title><line class="cls-1" x1="0.5" y1="0.5" x2="10.5" y2="0.5"/><line class="cls-1" x1="0.5" y1="5.5" x2="5.5" y2="5.5"/><line class="cls-1" x1="0.5" y1="10.5" x2="5.5" y2="10.5"/><line class="cls-1" x1="15.5" y1="0.5" x2="25.5" y2="0.5"/><line class="cls-1" x1="15.5" y1="5.5" x2="20.5" y2="5.5"/><line class="cls-1" x1="15.5" y1="10.5" x2="20.5" y2="10.5"/><line class="cls-1" x1="30.5" y1="0.5" x2="40.5" y2="0.5"/><line class="cls-1" x1="30.5" y1="5.5" x2="35.5" y2="5.5"/><line class="cls-1" x1="30.5" y1="10.5" x2="35.5" y2="10.5"/><line class="cls-1" x1="45.5" y1="0.5" x2="55.5" y2="0.5"/><line class="cls-1" x1="45.5" y1="5.5" x2="50.5" y2="5.5"/><line class="cls-1" x1="45.5" y1="10.5" x2="50.5" y2="10.5"/><line class="cls-1" x1="0.5" y1="15.5" x2="10.5" y2="15.5"/><line class="cls-1" x1="0.5" y1="20.5" x2="5.5" y2="20.5"/><line class="cls-1" x1="0.5" y1="25.5" x2="5.5" y2="25.5"/><line class="cls-1" x1="15.5" y1="15.5" x2="25.5" y2="15.5"/><line class="cls-1" x1="15.5" y1="20.5" x2="20.5" y2="20.5"/><line class="cls-1" x1="15.5" y1="25.5" x2="20.5" y2="25.5"/><line class="cls-1" x1="30.5" y1="15.5" x2="40.5" y2="15.5"/><line class="cls-1" x1="30.5" y1="20.5" x2="35.5" y2="20.5"/><line class="cls-1" x1="30.5" y1="25.5" x2="35.5" y2="25.5"/><line class="cls-1" x1="45.5" y1="15.5" x2="55.5" y2="15.5"/><line class="cls-1" x1="45.5" y1="20.5" x2="50.5" y2="20.5"/><line class="cls-1" x1="45.5" y1="25.5" x2="50.5" y2="25.5"/><line class="cls-1" x1="0.5" y1="30.5" x2="10.5" y2="30.5"/><line class="cls-1" x1="0.5" y1="35.5" x2="5.5" y2="35.5"/><line class="cls-1" x1="0.5" y1="40.5" x2="5.5" y2="40.5"/><line class="cls-1" x1="15.5" y1="30.5" x2="25.5" y2="30.5"/><line class="cls-1" x1="15.5" y1="35.5" x2="20.5" y2="35.5"/><line class="cls-1" x1="15.5" y1="40.5" x2="20.5" y2="40.5"/><line class="cls-1" x1="30.5" y1="30.5" x2="40.5" y2="30.5"/><line class="cls-1" x1="30.5" y1="35.5" x2="35.5" y2="35.5"/><line class="cls-1" x1="30.5" y1="40.5" x2="35.5" y2="40.5"/><line class="cls-1" x1="45.5" y1="30.5" x2="55.5" y2="30.5"/><line class="cls-1" x1="45.5" y1="35.5" x2="50.5" y2="35.5"/><line class="cls-1" x1="45.5" y1="40.5" x2="50.5" y2="40.5"/><line class="cls-1" x1="60.5" y1="0.5" x2="70.5" y2="0.5"/><line class="cls-1" x1="60.5" y1="5.5" x2="65.5" y2="5.5"/><line class="cls-1" x1="60.5" y1="10.5" x2="65.5" y2="10.5"/><line class="cls-1" x1="60.5" y1="15.5" x2="70.5" y2="15.5"/><line class="cls-1" x1="60.5" y1="20.5" x2="65.5" y2="20.5"/><line class="cls-1" x1="60.5" y1="25.5" x2="65.5" y2="25.5"/><line class="cls-1" x1="60.5" y1="30.5" x2="70.5" y2="30.5"/><line class="cls-1" x1="60.5" y1="35.5" x2="65.5" y2="35.5"/><line class="cls-1" x1="60.5" y1="40.5" x2="65.5" y2="40.5"/><line class="cls-1" x1="75.5" y1="0.5" x2="85.5" y2="0.5"/><line class="cls-1" x1="75.5" y1="5.5" x2="80.5" y2="5.5"/><line class="cls-1" x1="75.5" y1="10.5" x2="80.5" y2="10.5"/><line class="cls-1" x1="75.5" y1="15.5" x2="85.5" y2="15.5"/><line class="cls-1" x1="75.5" y1="20.5" x2="80.5" y2="20.5"/><line class="cls-1" x1="75.5" y1="25.5" x2="80.5" y2="25.5"/><line class="cls-1" x1="75.5" y1="30.5" x2="85.5" y2="30.5"/><line class="cls-1" x1="75.5" y1="35.5" x2="80.5" y2="35.5"/><line class="cls-1" x1="75.5" y1="40.5" x2="80.5" y2="40.5"/><line class="cls-1" x1="90.5" y1="0.5" x2="100.5" y2="0.5"/><line class="cls-1" x1="90.5" y1="5.5" x2="95.5" y2="5.5"/><line class="cls-1" x1="90.5" y1="10.5" x2="95.5" y2="10.5"/><line class="cls-1" x1="90.5" y1="15.5" x2="100.5" y2="15.5"/><line class="cls-1" x1="90.5" y1="20.5" x2="95.5" y2="20.5"/><line class="cls-1" x1="90.5" y1="25.5" x2="95.5" y2="25.5"/><line class="cls-1" x1="90.5" y1="30.5" x2="100.5" y2="30.5"/><line class="cls-1" x1="90.5" y1="35.5" x2="95.5" y2="35.5"/><line class="cls-1" x1="90.5" y1="40.5" x2="95.5" y2="40.5"/><line class="cls-1" x1="105.5" y1="0.5" x2="115.5" y2="0.5"/><line class="cls-1" x1="105.5" y1="5.5" x2="110.5" y2="5.5"/><line class="cls-1" x1="105.5" y1="10.5" x2="110.5" y2="10.5"/><line class="cls-1" x1="105.5" y1="15.5" x2="115.5" y2="15.5"/><line class="cls-1" x1="105.5" y1="20.5" x2="110.5" y2="20.5"/><line class="cls-1" x1="105.5" y1="25.5" x2="110.5" y2="25.5"/><line class="cls-1" x1="105.5" y1="30.5" x2="115.5" y2="30.5"/><line class="cls-1" x1="105.5" y1="35.5" x2="110.5" y2="35.5"/><line class="cls-1" x1="105.5" y1="40.5" x2="110.5" y2="40.5"/><line class="cls-1" x1="0.5" y1="45.5" x2="10.5" y2="45.5"/><line class="cls-1" x1="0.5" y1="50.5" x2="5.5" y2="50.5"/><line class="cls-1" x1="0.5" y1="55.5" x2="5.5" y2="55.5"/><line class="cls-1" x1="15.5" y1="45.5" x2="25.5" y2="45.5"/><line class="cls-1" x1="15.5" y1="50.5" x2="20.5" y2="50.5"/><line class="cls-1" x1="15.5" y1="55.5" x2="20.5" y2="55.5"/><line class="cls-1" x1="30.5" y1="45.5" x2="40.5" y2="45.5"/><line class="cls-1" x1="30.5" y1="50.5" x2="35.5" y2="50.5"/><line class="cls-1" x1="30.5" y1="55.5" x2="35.5" y2="55.5"/><line class="cls-1" x1="45.5" y1="45.5" x2="55.5" y2="45.5"/><line class="cls-1" x1="45.5" y1="50.5" x2="50.5" y2="50.5"/><line class="cls-1" x1="45.5" y1="55.5" x2="50.5" y2="55.5"/><line class="cls-1" x1="0.5" y1="60.5" x2="10.5" y2="60.5"/><line class="cls-1" x1="0.5" y1="65.5" x2="5.5" y2="65.5"/><line class="cls-1" x1="0.5" y1="70.5" x2="5.5" y2="70.5"/><line class="cls-1" x1="15.5" y1="60.5" x2="25.5" y2="60.5"/><line class="cls-1" x1="15.5" y1="65.5" x2="20.5" y2="65.5"/><line class="cls-1" x1="15.5" y1="70.5" x2="20.5" y2="70.5"/><line class="cls-1" x1="30.5" y1="60.5" x2="40.5" y2="60.5"/><line class="cls-1" x1="30.5" y1="65.5" x2="35.5" y2="65.5"/><line class="cls-1" x1="30.5" y1="70.5" x2="35.5" y2="70.5"/><line class="cls-1" x1="45.5" y1="60.5" x2="55.5" y2="60.5"/><line class="cls-1" x1="45.5" y1="65.5" x2="50.5" y2="65.5"/><line class="cls-1" x1="45.5" y1="70.5" x2="50.5" y2="70.5"/><line class="cls-1" x1="0.5" y1="75.5" x2="10.5" y2="75.5"/><line class="cls-1" x1="0.5" y1="80.5" x2="5.5" y2="80.5"/><line class="cls-1" x1="0.5" y1="85.5" x2="5.5" y2="85.5"/><line class="cls-1" x1="15.5" y1="75.5" x2="25.5" y2="75.5"/><line class="cls-1" x1="15.5" y1="80.5" x2="20.5" y2="80.5"/><line class="cls-1" x1="15.5" y1="85.5" x2="20.5" y2="85.5"/><line class="cls-1" x1="30.5" y1="75.5" x2="40.5" y2="75.5"/><line class="cls-1" x1="30.5" y1="80.5" x2="35.5" y2="80.5"/><line class="cls-1" x1="30.5" y1="85.5" x2="35.5" y2="85.5"/><line class="cls-1" x1="45.5" y1="75.5" x2="55.5" y2="75.5"/><line class="cls-1" x1="45.5" y1="80.5" x2="50.5" y2="80.5"/><line class="cls-1" x1="45.5" y1="85.5" x2="50.5" y2="85.5"/><line class="cls-1" x1="60.5" y1="45.5" x2="70.5" y2="45.5"/><line class="cls-1" x1="60.5" y1="50.5" x2="65.5" y2="50.5"/><line class="cls-1" x1="60.5" y1="55.5" x2="65.5" y2="55.5"/><line class="cls-1" x1="60.5" y1="60.5" x2="70.5" y2="60.5"/><line class="cls-1" x1="60.5" y1="65.5" x2="65.5" y2="65.5"/><line class="cls-1" x1="60.5" y1="70.5" x2="65.5" y2="70.5"/><line class="cls-1" x1="60.5" y1="75.5" x2="70.5" y2="75.5"/><line class="cls-1" x1="60.5" y1="80.5" x2="65.5" y2="80.5"/><line class="cls-1" x1="60.5" y1="85.5" x2="65.5" y2="85.5"/><line class="cls-1" x1="75.5" y1="45.5" x2="85.5" y2="45.5"/><line class="cls-1" x1="75.5" y1="50.5" x2="80.5" y2="50.5"/><line class="cls-1" x1="75.5" y1="55.5" x2="80.5" y2="55.5"/><line class="cls-1" x1="75.5" y1="60.5" x2="85.5" y2="60.5"/><line class="cls-1" x1="75.5" y1="65.5" x2="80.5" y2="65.5"/><line class="cls-1" x1="75.5" y1="70.5" x2="80.5" y2="70.5"/><line class="cls-1" x1="75.5" y1="75.5" x2="85.5" y2="75.5"/><line class="cls-1" x1="75.5" y1="80.5" x2="80.5" y2="80.5"/><line class="cls-1" x1="75.5" y1="85.5" x2="80.5" y2="85.5"/><line class="cls-1" x1="90.5" y1="45.5" x2="100.5" y2="45.5"/><line class="cls-1" x1="90.5" y1="50.5" x2="95.5" y2="50.5"/><line class="cls-1" x1="90.5" y1="55.5" x2="95.5" y2="55.5"/><line class="cls-1" x1="90.5" y1="60.5" x2="100.5" y2="60.5"/><line class="cls-1" x1="90.5" y1="65.5" x2="95.5" y2="65.5"/><line class="cls-1" x1="90.5" y1="70.5" x2="95.5" y2="70.5"/><line class="cls-1" x1="90.5" y1="75.5" x2="100.5" y2="75.5"/><line class="cls-1" x1="90.5" y1="80.5" x2="95.5" y2="80.5"/><line class="cls-1" x1="90.5" y1="85.5" x2="95.5" y2="85.5"/><line class="cls-1" x1="105.5" y1="45.5" x2="115.5" y2="45.5"/><line class="cls-1" x1="105.5" y1="50.5" x2="110.5" y2="50.5"/><line class="cls-1" x1="105.5" y1="55.5" x2="110.5" y2="55.5"/><line class="cls-1" x1="105.5" y1="60.5" x2="115.5" y2="60.5"/><line class="cls-1" x1="105.5" y1="65.5" x2="110.5" y2="65.5"/><line class="cls-1" x1="105.5" y1="70.5" x2="110.5" y2="70.5"/><line class="cls-1" x1="105.5" y1="75.5" x2="115.5" y2="75.5"/><line class="cls-1" x1="105.5" y1="80.5" x2="110.5" y2="80.5"/><line class="cls-1" x1="105.5" y1="85.5" x2="110.5" y2="85.5"/><line class="cls-1" x1="0.5" y1="90.5" x2="10.5" y2="90.5"/><line class="cls-1" x1="0.5" y1="95.5" x2="5.5" y2="95.5"/><line class="cls-1" x1="0.5" y1="100.5" x2="5.5" y2="100.5"/><line class="cls-1" x1="15.5" y1="90.5" x2="25.5" y2="90.5"/><line class="cls-1" x1="15.5" y1="95.5" x2="20.5" y2="95.5"/><line class="cls-1" x1="15.5" y1="100.5" x2="20.5" y2="100.5"/><line class="cls-1" x1="30.5" y1="90.5" x2="40.5" y2="90.5"/><line class="cls-1" x1="30.5" y1="95.5" x2="35.5" y2="95.5"/><line class="cls-1" x1="30.5" y1="100.5" x2="35.5" y2="100.5"/><line class="cls-1" x1="45.5" y1="90.5" x2="55.5" y2="90.5"/><line class="cls-1" x1="45.5" y1="95.5" x2="50.5" y2="95.5"/><line class="cls-1" x1="45.5" y1="100.5" x2="50.5" y2="100.5"/><line class="cls-1" x1="0.5" y1="105.5" x2="10.5" y2="105.5"/><line class="cls-1" x1="0.5" y1="110.5" x2="5.5" y2="110.5"/><line class="cls-1" x1="0.5" y1="115.5" x2="5.5" y2="115.5"/><line class="cls-1" x1="15.5" y1="105.5" x2="25.5" y2="105.5"/><line class="cls-1" x1="15.5" y1="110.5" x2="20.5" y2="110.5"/><line class="cls-1" x1="15.5" y1="115.5" x2="20.5" y2="115.5"/><line class="cls-1" x1="30.5" y1="105.5" x2="40.5" y2="105.5"/><line class="cls-1" x1="30.5" y1="110.5" x2="35.5" y2="110.5"/><line class="cls-1" x1="30.5" y1="115.5" x2="35.5" y2="115.5"/><line class="cls-1" x1="45.5" y1="105.5" x2="55.5" y2="105.5"/><line class="cls-1" x1="45.5" y1="110.5" x2="50.5" y2="110.5"/><line class="cls-1" x1="45.5" y1="115.5" x2="50.5" y2="115.5"/><line class="cls-1" x1="60.5" y1="90.5" x2="70.5" y2="90.5"/><line class="cls-1" x1="60.5" y1="95.5" x2="65.5" y2="95.5"/><line class="cls-1" x1="60.5" y1="100.5" x2="65.5" y2="100.5"/><line class="cls-1" x1="60.5" y1="105.5" x2="70.5" y2="105.5"/><line class="cls-1" x1="60.5" y1="110.5" x2="65.5" y2="110.5"/><line class="cls-1" x1="60.5" y1="115.5" x2="65.5" y2="115.5"/><line class="cls-1" x1="75.5" y1="90.5" x2="85.5" y2="90.5"/><line class="cls-1" x1="75.5" y1="95.5" x2="80.5" y2="95.5"/><line class="cls-1" x1="75.5" y1="100.5" x2="80.5" y2="100.5"/><line class="cls-1" x1="75.5" y1="105.5" x2="85.5" y2="105.5"/><line class="cls-1" x1="75.5" y1="110.5" x2="80.5" y2="110.5"/><line class="cls-1" x1="75.5" y1="115.5" x2="80.5" y2="115.5"/><line class="cls-1" x1="90.5" y1="90.5" x2="100.5" y2="90.5"/><line class="cls-1" x1="90.5" y1="95.5" x2="95.5" y2="95.5"/><line class="cls-1" x1="90.5" y1="100.5" x2="95.5" y2="100.5"/><line class="cls-1" x1="90.5" y1="105.5" x2="100.5" y2="105.5"/><line class="cls-1" x1="90.5" y1="110.5" x2="95.5" y2="110.5"/><line class="cls-1" x1="90.5" y1="115.5" x2="95.5" y2="115.5"/><line class="cls-1" x1="105.5" y1="90.5" x2="115.5" y2="90.5"/><line class="cls-1" x1="105.5" y1="95.5" x2="110.5" y2="95.5"/><line class="cls-1" x1="105.5" y1="100.5" x2="110.5" y2="100.5"/><line class="cls-1" x1="105.5" y1="105.5" x2="115.5" y2="105.5"/><line class="cls-1" x1="105.5" y1="110.5" x2="110.5" y2="110.5"/><line class="cls-1" x1="105.5" y1="115.5" x2="110.5" y2="115.5"/></svg>