<?xml version="1.0" encoding="utf-8"?>
<!-- Generator: Adobe Illustrator 23.0.1, SVG Export Plug-In . SVG Version: 6.00 Build 0)  -->
<svg version="1.1" id="Pattern" xmlns="http://www.w3.org/2000/svg" xmlns:xlink="http://www.w3.org/1999/xlink" x="0px" y="0px"
	 viewBox="0 0 168 168" style="enable-background:new 0 0 168 168;" xml:space="preserve">
<style type="text/css">
	.st0{fill:none;stroke:#FCB13B;stroke-width:1.5;stroke-linecap:square;stroke-miterlimit:10;}
</style>
<title>Novartis_Open_DNA_Apricot_168px</title>
<path class="st0" d="M17.5,3.5c0,9.7-14,4.3-14,14"/>
<path class="st0" d="M24.5,3.5c0,9.7,14,4.3,14,14"/>
<path class="st0" d="M59.5,3.5c0,9.7-14,4.3-14,14"/>
<path class="st0" d="M80.5,3.5c0,9.7-14,4.3-14,14"/>
<path class="st0" d="M101.5,3.5c0,9.7-14,4.3-14,14"/>
<path class="st0" d="M108.5,3.5c0,9.7,14,4.3,14,14"/>
<path class="st0" d="M143.5,3.5c0,9.7-14,4.3-14,14"/>
<path class="st0" d="M164.5,3.5c0,9.7-14,4.3-14,14"/>
<path class="st0" d="M17.5,24.5c0,9.7-14,4.3-14,14"/>
<path class="st0" d="M38.5,24.5c0,9.7-14,4.3-14,14"/>
<path class="st0" d="M45.5,24.5c0,9.7,14,4.3,14,14"/>
<path class="st0" d="M80.5,24.5c0,9.7-14,4.3-14,14"/>
<path class="st0" d="M101.5,24.5c0,9.7-14,4.3-14,14"/>
<path class="st0" d="M122.5,24.5c0,9.7-14,4.3-14,14"/>
<path class="st0" d="M143.5,24.5c0,9.7-14,4.3-14,14"/>
<path class="st0" d="M150.5,24.5c0,9.7,14,4.3,14,14"/>
<path class="st0" d="M17.5,45.5c0,9.7-14,4.3-14,14"/>
<path class="st0" d="M38.5,45.5c0,9.7-14,4.3-14,14"/>
<path class="st0" d="M59.5,45.5c0,9.7-14,4.3-14,14"/>
<path class="st0" d="M80.5,45.5c0,9.7-14,4.3-14,14"/>
<path class="st0" d="M87.5,45.5c0,9.7,14,4.3,14,14"/>
<path class="st0" d="M122.5,45.5c0,9.7-14,4.3-14,14"/>
<path class="st0" d="M129.5,45.5c0,9.7,14,4.3,14,14"/>
<path class="st0" d="M150.5,45.5c0,9.7,14,4.3,14,14"/>
<path class="st0" d="M3.5,66.5c0,9.7,14,4.3,14,14"/>
<path class="st0" d="M24.5,66.5c0,9.7,14,4.3,14,14"/>
<path class="st0" d="M59.5,66.5c0,9.7-14,4.3-14,14"/>
<path class="st0" d="M66.5,66.5c0,9.7,14,4.3,14,14"/>
<path class="st0" d="M87.5,66.5c0,9.7,14,4.3,14,14"/>
<path class="st0" d="M122.5,66.5c0,9.7-14,4.3-14,14"/>
<path class="st0" d="M129.5,66.5c0,9.7,14,4.3,14,14"/>
<path class="st0" d="M164.5,66.5c0,9.7-14,4.3-14,14"/>
<path class="st0" d="M17.5,87.5c0,9.7-14,4.3-14,14"/>
<path class="st0" d="M38.5,87.5c0,9.7-14,4.3-14,14"/>
<path class="st0" d="M59.5,87.5c0,9.7-14,4.3-14,14"/>
<path class="st0" d="M66.5,87.5c0,9.7,14,4.3,14,14"/>
<path class="st0" d="M101.5,87.5c0,9.7-14,4.3-14,14"/>
<path class="st0" d="M108.5,87.5c0,9.7,14,4.3,14,14"/>
<path class="st0" d="M143.5,87.5c0,9.7-14,4.3-14,14"/>
<path class="st0" d="M164.5,87.5c0,9.7-14,4.3-14,14"/>
<path class="st0" d="M17.5,108.5c0,9.7-14,4.3-14,14"/>
<path class="st0" d="M24.5,108.5c0,9.7,14,4.3,14,14"/>
<path class="st0" d="M59.5,108.5c0,9.7-14,4.3-14,14"/>
<path class="st0" d="M80.5,108.5c0,9.7-14,4.3-14,14"/>
<path class="st0" d="M101.5,108.5c0,9.7-14,4.3-14,14"/>
<path class="st0" d="M122.5,108.5c0,9.7-14,4.3-14,14"/>
<path class="st0" d="M143.5,108.5c0,9.7-14,4.3-14,14"/>
<path class="st0" d="M164.5,108.5c0,9.7-14,4.3-14,14"/>
<path class="st0" d="M17.5,129.5c0,9.7-14,4.3-14,14"/>
<path class="st0" d="M38.5,129.5c0,9.7-14,4.3-14,14"/>
<path class="st0" d="M59.5,129.5c0,9.7-14,4.3-14,14"/>
<path class="st0" d="M80.5,129.5c0,9.7-14,4.3-14,14"/>
<path class="st0" d="M87.5,129.5c0,9.7,14,4.3,14,14"/>
<path class="st0" d="M122.5,129.5c0,9.7-14,4.3-14,14"/>
<path class="st0" d="M143.5,129.5c0,9.7-14,4.3-14,14"/>
<path class="st0" d="M150.5,129.5c0,9.7,14,4.3,14,14"/>
<path class="st0" d="M3.5,150.5c0,9.7,14,4.3,14,14"/>
<path class="st0" d="M38.5,150.5c0,9.7-14,4.3-14,14"/>
<path class="st0" d="M59.5,150.5c0,9.7-14,4.3-14,14"/>
<path class="st0" d="M80.5,150.5c0,9.7-14,4.3-14,14"/>
<path class="st0" d="M101.5,150.5c0,9.7-14,4.3-14,14"/>
<path class="st0" d="M122.5,150.5c0,9.7-14,4.3-14,14"/>
<path class="st0" d="M143.5,150.5c0,9.7-14,4.3-14,14"/>
<path class="st0" d="M164.5,150.5c0,9.7-14,4.3-14,14"/>
</svg>
