<svg id="Pattern" xmlns="http://www.w3.org/2000/svg" viewBox="0 0 163.3 161.26"><defs><style>.cls-1{fill:none;stroke:#f58144;stroke-miterlimit:10;stroke-width:1.5px;}</style></defs><title>Novartis_Open_Carbon_Sienna_168px</title><g id="_Group_" data-name="&lt;Group&gt;"><polyline id="_Path_" data-name="&lt;Path&gt;" class="cls-1" points="15.93 0.65 8.15 5.05 8.15 14.03"/><line id="_Path_2" data-name="&lt;Path&gt;" class="cls-1" x1="8.15" y1="5.14" x2="0.38" y2="0.65"/></g><g id="_Group_2" data-name="&lt;Group&gt;"><polyline id="_Path_3" data-name="&lt;Path&gt;" class="cls-1" points="36.93 0.65 29.15 5.05 29.15 14.03"/><line id="_Path_4" data-name="&lt;Path&gt;" class="cls-1" x1="29.15" y1="5.14" x2="21.38" y2="0.65"/></g><g id="_Group_3" data-name="&lt;Group&gt;"><polyline id="_Path_5" data-name="&lt;Path&gt;" class="cls-1" points="42.38 13.61 50.15 9.21 50.15 0.23"/><line id="_Path_6" data-name="&lt;Path&gt;" class="cls-1" x1="50.15" y1="9.12" x2="57.93" y2="13.61"/></g><g id="_Group_4" data-name="&lt;Group&gt;"><polyline id="_Path_7" data-name="&lt;Path&gt;" class="cls-1" points="78.93 0.65 71.15 5.05 71.15 14.03"/><line id="_Path_8" data-name="&lt;Path&gt;" class="cls-1" x1="71.15" y1="5.14" x2="63.38" y2="0.65"/></g><g id="_Group_5" data-name="&lt;Group&gt;"><polyline id="_Path_9" data-name="&lt;Path&gt;" class="cls-1" points="99.93 0.65 92.15 5.05 92.15 14.03"/><line id="_Path_10" data-name="&lt;Path&gt;" class="cls-1" x1="92.15" y1="5.14" x2="84.38" y2="0.65"/></g><g id="_Group_6" data-name="&lt;Group&gt;"><polyline id="_Path_11" data-name="&lt;Path&gt;" class="cls-1" points="105.38 13.61 113.15 9.21 113.15 0.23"/><line id="_Path_12" data-name="&lt;Path&gt;" class="cls-1" x1="113.15" y1="9.12" x2="120.93" y2="13.61"/></g><g id="_Group_7" data-name="&lt;Group&gt;"><polyline id="_Path_13" data-name="&lt;Path&gt;" class="cls-1" points="141.93 0.65 134.15 5.05 134.15 14.03"/><line id="_Path_14" data-name="&lt;Path&gt;" class="cls-1" x1="134.15" y1="5.14" x2="126.38" y2="0.65"/></g><g id="_Group_8" data-name="&lt;Group&gt;"><polyline id="_Path_15" data-name="&lt;Path&gt;" class="cls-1" points="162.93 0.65 155.15 5.05 155.15 14.03"/><line id="_Path_16" data-name="&lt;Path&gt;" class="cls-1" x1="155.15" y1="5.14" x2="147.38" y2="0.65"/></g><g id="_Group_9" data-name="&lt;Group&gt;"><polyline id="_Path_17" data-name="&lt;Path&gt;" class="cls-1" points="0.38 34.61 8.15 30.21 8.15 21.23"/><line id="_Path_18" data-name="&lt;Path&gt;" class="cls-1" x1="8.15" y1="30.12" x2="15.93" y2="34.61"/></g><g id="_Group_10" data-name="&lt;Group&gt;"><polyline id="_Path_19" data-name="&lt;Path&gt;" class="cls-1" points="36.93 21.65 29.15 26.05 29.15 35.03"/><line id="_Path_20" data-name="&lt;Path&gt;" class="cls-1" x1="29.15" y1="26.14" x2="21.38" y2="21.65"/></g><g id="_Group_11" data-name="&lt;Group&gt;"><polyline id="_Path_21" data-name="&lt;Path&gt;" class="cls-1" points="57.93 21.65 50.15 26.05 50.15 35.03"/><line id="_Path_22" data-name="&lt;Path&gt;" class="cls-1" x1="50.15" y1="26.14" x2="42.38" y2="21.65"/></g><g id="_Group_12" data-name="&lt;Group&gt;"><polyline id="_Path_23" data-name="&lt;Path&gt;" class="cls-1" points="63.38 34.61 71.15 30.21 71.15 21.23"/><line id="_Path_24" data-name="&lt;Path&gt;" class="cls-1" x1="71.15" y1="30.12" x2="78.93" y2="34.61"/></g><g id="_Group_13" data-name="&lt;Group&gt;"><polyline id="_Path_25" data-name="&lt;Path&gt;" class="cls-1" points="99.93 21.65 92.15 26.05 92.15 35.03"/><line id="_Path_26" data-name="&lt;Path&gt;" class="cls-1" x1="92.15" y1="26.14" x2="84.38" y2="21.65"/></g><g id="_Group_14" data-name="&lt;Group&gt;"><polyline id="_Path_27" data-name="&lt;Path&gt;" class="cls-1" points="120.93 21.65 113.15 26.05 113.15 35.03"/><line id="_Path_28" data-name="&lt;Path&gt;" class="cls-1" x1="113.15" y1="26.14" x2="105.38" y2="21.65"/></g><g id="_Group_15" data-name="&lt;Group&gt;"><polyline id="_Path_29" data-name="&lt;Path&gt;" class="cls-1" points="126.38 34.61 134.15 30.21 134.15 21.23"/><line id="_Path_30" data-name="&lt;Path&gt;" class="cls-1" x1="134.15" y1="30.12" x2="141.93" y2="34.61"/></g><g id="_Group_16" data-name="&lt;Group&gt;"><polyline id="_Path_31" data-name="&lt;Path&gt;" class="cls-1" points="162.93 21.65 155.15 26.05 155.15 35.03"/><line id="_Path_32" data-name="&lt;Path&gt;" class="cls-1" x1="155.15" y1="26.14" x2="147.38" y2="21.65"/></g><g id="_Group_17" data-name="&lt;Group&gt;"><polyline id="_Path_33" data-name="&lt;Path&gt;" class="cls-1" points="15.93 42.65 8.15 47.05 8.15 56.03"/><line id="_Path_34" data-name="&lt;Path&gt;" class="cls-1" x1="8.15" y1="47.14" x2="0.38" y2="42.65"/></g><g id="_Group_18" data-name="&lt;Group&gt;"><polyline id="_Path_35" data-name="&lt;Path&gt;" class="cls-1" points="36.93 42.65 29.15 47.05 29.15 56.03"/><line id="_Path_36" data-name="&lt;Path&gt;" class="cls-1" x1="29.15" y1="47.14" x2="21.38" y2="42.65"/></g><g id="_Group_19" data-name="&lt;Group&gt;"><polyline id="_Path_37" data-name="&lt;Path&gt;" class="cls-1" points="42.38 55.61 50.15 51.22 50.15 42.23"/><line id="_Path_38" data-name="&lt;Path&gt;" class="cls-1" x1="50.15" y1="51.12" x2="57.93" y2="55.61"/></g><g id="_Group_20" data-name="&lt;Group&gt;"><polyline id="_Path_39" data-name="&lt;Path&gt;" class="cls-1" points="78.93 42.65 71.15 47.05 71.15 56.03"/><line id="_Path_40" data-name="&lt;Path&gt;" class="cls-1" x1="71.15" y1="47.14" x2="63.38" y2="42.65"/></g><g id="_Group_21" data-name="&lt;Group&gt;"><polyline id="_Path_41" data-name="&lt;Path&gt;" class="cls-1" points="99.93 42.65 92.15 47.05 92.15 56.03"/><line id="_Path_42" data-name="&lt;Path&gt;" class="cls-1" x1="92.15" y1="47.14" x2="84.38" y2="42.65"/></g><g id="_Group_22" data-name="&lt;Group&gt;"><polyline id="_Path_43" data-name="&lt;Path&gt;" class="cls-1" points="105.38 55.61 113.15 51.22 113.15 42.23"/><line id="_Path_44" data-name="&lt;Path&gt;" class="cls-1" x1="113.15" y1="51.12" x2="120.93" y2="55.61"/></g><g id="_Group_23" data-name="&lt;Group&gt;"><polyline id="_Path_45" data-name="&lt;Path&gt;" class="cls-1" points="141.93 42.65 134.15 47.05 134.15 56.03"/><line id="_Path_46" data-name="&lt;Path&gt;" class="cls-1" x1="134.15" y1="47.14" x2="126.38" y2="42.65"/></g><g id="_Group_24" data-name="&lt;Group&gt;"><polyline id="_Path_47" data-name="&lt;Path&gt;" class="cls-1" points="162.93 42.65 155.15 47.05 155.15 56.03"/><line id="_Path_48" data-name="&lt;Path&gt;" class="cls-1" x1="155.15" y1="47.14" x2="147.38" y2="42.65"/></g><g id="_Group_25" data-name="&lt;Group&gt;"><polyline id="_Path_49" data-name="&lt;Path&gt;" class="cls-1" points="0.38 76.61 8.15 72.22 8.15 63.23"/><line id="_Path_50" data-name="&lt;Path&gt;" class="cls-1" x1="8.15" y1="72.12" x2="15.93" y2="76.61"/></g><g id="_Group_26" data-name="&lt;Group&gt;"><polyline id="_Path_51" data-name="&lt;Path&gt;" class="cls-1" points="36.93 63.65 29.15 68.05 29.15 77.03"/><line id="_Path_52" data-name="&lt;Path&gt;" class="cls-1" x1="29.15" y1="68.14" x2="21.38" y2="63.65"/></g><g id="_Group_27" data-name="&lt;Group&gt;"><polyline id="_Path_53" data-name="&lt;Path&gt;" class="cls-1" points="57.93 63.65 50.15 68.05 50.15 77.03"/><line id="_Path_54" data-name="&lt;Path&gt;" class="cls-1" x1="50.15" y1="68.14" x2="42.38" y2="63.65"/></g><g id="_Group_28" data-name="&lt;Group&gt;"><polyline id="_Path_55" data-name="&lt;Path&gt;" class="cls-1" points="63.38 76.61 71.15 72.22 71.15 63.23"/><line id="_Path_56" data-name="&lt;Path&gt;" class="cls-1" x1="71.15" y1="72.12" x2="78.93" y2="76.61"/></g><g id="_Group_29" data-name="&lt;Group&gt;"><polyline id="_Path_57" data-name="&lt;Path&gt;" class="cls-1" points="99.93 63.65 92.15 68.05 92.15 77.03"/><line id="_Path_58" data-name="&lt;Path&gt;" class="cls-1" x1="92.15" y1="68.14" x2="84.38" y2="63.65"/></g><g id="_Group_30" data-name="&lt;Group&gt;"><polyline id="_Path_59" data-name="&lt;Path&gt;" class="cls-1" points="120.93 63.65 113.15 68.05 113.15 77.03"/><line id="_Path_60" data-name="&lt;Path&gt;" class="cls-1" x1="113.15" y1="68.14" x2="105.38" y2="63.65"/></g><g id="_Group_31" data-name="&lt;Group&gt;"><polyline id="_Path_61" data-name="&lt;Path&gt;" class="cls-1" points="126.38 76.61 134.15 72.22 134.15 63.23"/><line id="_Path_62" data-name="&lt;Path&gt;" class="cls-1" x1="134.15" y1="72.12" x2="141.93" y2="76.61"/></g><g id="_Group_32" data-name="&lt;Group&gt;"><polyline id="_Path_63" data-name="&lt;Path&gt;" class="cls-1" points="162.93 63.65 155.15 68.05 155.15 77.03"/><line id="_Path_64" data-name="&lt;Path&gt;" class="cls-1" x1="155.15" y1="68.14" x2="147.38" y2="63.65"/></g><g id="_Group_33" data-name="&lt;Group&gt;"><polyline id="_Path_65" data-name="&lt;Path&gt;" class="cls-1" points="15.93 84.65 8.15 89.05 8.15 98.03"/><line id="_Path_66" data-name="&lt;Path&gt;" class="cls-1" x1="8.15" y1="89.14" x2="0.38" y2="84.65"/></g><g id="_Group_34" data-name="&lt;Group&gt;"><polyline id="_Path_67" data-name="&lt;Path&gt;" class="cls-1" points="36.93 84.65 29.15 89.05 29.15 98.03"/><line id="_Path_68" data-name="&lt;Path&gt;" class="cls-1" x1="29.15" y1="89.14" x2="21.38" y2="84.65"/></g><g id="_Group_35" data-name="&lt;Group&gt;"><polyline id="_Path_69" data-name="&lt;Path&gt;" class="cls-1" points="42.38 97.61 50.15 93.22 50.15 84.23"/><line id="_Path_70" data-name="&lt;Path&gt;" class="cls-1" x1="50.15" y1="93.12" x2="57.93" y2="97.61"/></g><g id="_Group_36" data-name="&lt;Group&gt;"><polyline id="_Path_71" data-name="&lt;Path&gt;" class="cls-1" points="78.93 84.65 71.15 89.05 71.15 98.03"/><line id="_Path_72" data-name="&lt;Path&gt;" class="cls-1" x1="71.15" y1="89.14" x2="63.38" y2="84.65"/></g><g id="_Group_37" data-name="&lt;Group&gt;"><polyline id="_Path_73" data-name="&lt;Path&gt;" class="cls-1" points="99.93 84.65 92.15 89.05 92.15 98.03"/><line id="_Path_74" data-name="&lt;Path&gt;" class="cls-1" x1="92.15" y1="89.14" x2="84.38" y2="84.65"/></g><g id="_Group_38" data-name="&lt;Group&gt;"><polyline id="_Path_75" data-name="&lt;Path&gt;" class="cls-1" points="105.38 97.61 113.15 93.22 113.15 84.23"/><line id="_Path_76" data-name="&lt;Path&gt;" class="cls-1" x1="113.15" y1="93.12" x2="120.93" y2="97.61"/></g><g id="_Group_39" data-name="&lt;Group&gt;"><polyline id="_Path_77" data-name="&lt;Path&gt;" class="cls-1" points="141.93 84.65 134.15 89.05 134.15 98.03"/><line id="_Path_78" data-name="&lt;Path&gt;" class="cls-1" x1="134.15" y1="89.14" x2="126.38" y2="84.65"/></g><g id="_Group_40" data-name="&lt;Group&gt;"><polyline id="_Path_79" data-name="&lt;Path&gt;" class="cls-1" points="162.93 84.65 155.15 89.05 155.15 98.03"/><line id="_Path_80" data-name="&lt;Path&gt;" class="cls-1" x1="155.15" y1="89.14" x2="147.38" y2="84.65"/></g><g id="_Group_41" data-name="&lt;Group&gt;"><polyline id="_Path_81" data-name="&lt;Path&gt;" class="cls-1" points="0.38 118.61 8.15 114.22 8.15 105.23"/><line id="_Path_82" data-name="&lt;Path&gt;" class="cls-1" x1="8.15" y1="114.12" x2="15.93" y2="118.61"/></g><g id="_Group_42" data-name="&lt;Group&gt;"><polyline id="_Path_83" data-name="&lt;Path&gt;" class="cls-1" points="36.93 105.65 29.15 110.05 29.15 119.03"/><line id="_Path_84" data-name="&lt;Path&gt;" class="cls-1" x1="29.15" y1="110.14" x2="21.38" y2="105.65"/></g><g id="_Group_43" data-name="&lt;Group&gt;"><polyline id="_Path_85" data-name="&lt;Path&gt;" class="cls-1" points="57.93 105.65 50.15 110.05 50.15 119.03"/><line id="_Path_86" data-name="&lt;Path&gt;" class="cls-1" x1="50.15" y1="110.14" x2="42.38" y2="105.65"/></g><g id="_Group_44" data-name="&lt;Group&gt;"><polyline id="_Path_87" data-name="&lt;Path&gt;" class="cls-1" points="63.38 118.61 71.15 114.22 71.15 105.23"/><line id="_Path_88" data-name="&lt;Path&gt;" class="cls-1" x1="71.15" y1="114.12" x2="78.93" y2="118.61"/></g><g id="_Group_45" data-name="&lt;Group&gt;"><polyline id="_Path_89" data-name="&lt;Path&gt;" class="cls-1" points="99.93 105.65 92.15 110.05 92.15 119.03"/><line id="_Path_90" data-name="&lt;Path&gt;" class="cls-1" x1="92.15" y1="110.14" x2="84.38" y2="105.65"/></g><g id="_Group_46" data-name="&lt;Group&gt;"><polyline id="_Path_91" data-name="&lt;Path&gt;" class="cls-1" points="120.93 105.65 113.15 110.05 113.15 119.03"/><line id="_Path_92" data-name="&lt;Path&gt;" class="cls-1" x1="113.15" y1="110.14" x2="105.38" y2="105.65"/></g><g id="_Group_47" data-name="&lt;Group&gt;"><polyline id="_Path_93" data-name="&lt;Path&gt;" class="cls-1" points="126.38 118.61 134.15 114.22 134.15 105.23"/><line id="_Path_94" data-name="&lt;Path&gt;" class="cls-1" x1="134.15" y1="114.12" x2="141.93" y2="118.61"/></g><g id="_Group_48" data-name="&lt;Group&gt;"><polyline id="_Path_95" data-name="&lt;Path&gt;" class="cls-1" points="162.93 105.65 155.15 110.05 155.15 119.03"/><line id="_Path_96" data-name="&lt;Path&gt;" class="cls-1" x1="155.15" y1="110.14" x2="147.38" y2="105.65"/></g><g id="_Group_49" data-name="&lt;Group&gt;"><polyline id="_Path_97" data-name="&lt;Path&gt;" class="cls-1" points="15.93 126.65 8.15 131.05 8.15 140.03"/><line id="_Path_98" data-name="&lt;Path&gt;" class="cls-1" x1="8.15" y1="131.14" x2="0.38" y2="126.65"/></g><g id="_Group_50" data-name="&lt;Group&gt;"><polyline id="_Path_99" data-name="&lt;Path&gt;" class="cls-1" points="36.93 126.65 29.15 131.05 29.15 140.03"/><line id="_Path_100" data-name="&lt;Path&gt;" class="cls-1" x1="29.15" y1="131.14" x2="21.38" y2="126.65"/></g><g id="_Group_51" data-name="&lt;Group&gt;"><polyline id="_Path_101" data-name="&lt;Path&gt;" class="cls-1" points="42.38 139.61 50.15 135.22 50.15 126.23"/><line id="_Path_102" data-name="&lt;Path&gt;" class="cls-1" x1="50.15" y1="135.12" x2="57.93" y2="139.61"/></g><g id="_Group_52" data-name="&lt;Group&gt;"><polyline id="_Path_103" data-name="&lt;Path&gt;" class="cls-1" points="78.93 126.65 71.15 131.05 71.15 140.03"/><line id="_Path_104" data-name="&lt;Path&gt;" class="cls-1" x1="71.15" y1="131.14" x2="63.38" y2="126.65"/></g><g id="_Group_53" data-name="&lt;Group&gt;"><polyline id="_Path_105" data-name="&lt;Path&gt;" class="cls-1" points="99.93 126.65 92.15 131.05 92.15 140.03"/><line id="_Path_106" data-name="&lt;Path&gt;" class="cls-1" x1="92.15" y1="131.14" x2="84.38" y2="126.65"/></g><g id="_Group_54" data-name="&lt;Group&gt;"><polyline id="_Path_107" data-name="&lt;Path&gt;" class="cls-1" points="105.38 139.61 113.15 135.22 113.15 126.23"/><line id="_Path_108" data-name="&lt;Path&gt;" class="cls-1" x1="113.15" y1="135.12" x2="120.93" y2="139.61"/></g><g id="_Group_55" data-name="&lt;Group&gt;"><polyline id="_Path_109" data-name="&lt;Path&gt;" class="cls-1" points="141.93 126.65 134.15 131.05 134.15 140.03"/><line id="_Path_110" data-name="&lt;Path&gt;" class="cls-1" x1="134.15" y1="131.14" x2="126.38" y2="126.65"/></g><g id="_Group_56" data-name="&lt;Group&gt;"><polyline id="_Path_111" data-name="&lt;Path&gt;" class="cls-1" points="162.93 126.65 155.15 131.05 155.15 140.03"/><line id="_Path_112" data-name="&lt;Path&gt;" class="cls-1" x1="155.15" y1="131.14" x2="147.38" y2="126.65"/></g><g id="_Group_57" data-name="&lt;Group&gt;"><polyline id="_Path_113" data-name="&lt;Path&gt;" class="cls-1" points="0.38 160.61 8.15 156.21 8.15 147.23"/><line id="_Path_114" data-name="&lt;Path&gt;" class="cls-1" x1="8.15" y1="156.12" x2="15.93" y2="160.61"/></g><g id="_Group_58" data-name="&lt;Group&gt;"><polyline id="_Path_115" data-name="&lt;Path&gt;" class="cls-1" points="36.93 147.65 29.15 152.05 29.15 161.03"/><line id="_Path_116" data-name="&lt;Path&gt;" class="cls-1" x1="29.15" y1="152.14" x2="21.38" y2="147.65"/></g><g id="_Group_59" data-name="&lt;Group&gt;"><polyline id="_Path_117" data-name="&lt;Path&gt;" class="cls-1" points="57.93 147.65 50.15 152.05 50.15 161.03"/><line id="_Path_118" data-name="&lt;Path&gt;" class="cls-1" x1="50.15" y1="152.14" x2="42.38" y2="147.65"/></g><g id="_Group_60" data-name="&lt;Group&gt;"><polyline id="_Path_119" data-name="&lt;Path&gt;" class="cls-1" points="63.38 160.61 71.15 156.21 71.15 147.23"/><line id="_Path_120" data-name="&lt;Path&gt;" class="cls-1" x1="71.15" y1="156.12" x2="78.93" y2="160.61"/></g><g id="_Group_61" data-name="&lt;Group&gt;"><polyline id="_Path_121" data-name="&lt;Path&gt;" class="cls-1" points="99.93 147.65 92.15 152.05 92.15 161.03"/><line id="_Path_122" data-name="&lt;Path&gt;" class="cls-1" x1="92.15" y1="152.14" x2="84.38" y2="147.65"/></g><g id="_Group_62" data-name="&lt;Group&gt;"><polyline id="_Path_123" data-name="&lt;Path&gt;" class="cls-1" points="120.93 147.65 113.15 152.05 113.15 161.03"/><line id="_Path_124" data-name="&lt;Path&gt;" class="cls-1" x1="113.15" y1="152.14" x2="105.38" y2="147.65"/></g><g id="_Group_63" data-name="&lt;Group&gt;"><polyline id="_Path_125" data-name="&lt;Path&gt;" class="cls-1" points="126.38 160.61 134.15 156.21 134.15 147.23"/><line id="_Path_126" data-name="&lt;Path&gt;" class="cls-1" x1="134.15" y1="156.12" x2="141.93" y2="160.61"/></g><g id="_Group_64" data-name="&lt;Group&gt;"><polyline id="_Path_127" data-name="&lt;Path&gt;" class="cls-1" points="162.93 147.65 155.15 152.05 155.15 161.03"/><line id="_Path_128" data-name="&lt;Path&gt;" class="cls-1" x1="155.15" y1="152.14" x2="147.38" y2="147.65"/></g></svg>