<svg id="Pattern" xmlns="http://www.w3.org/2000/svg" viewBox="0 0 162.5 162.5"><defs><style>.cls-1{fill:none;stroke:#5291dd;stroke-linecap:square;stroke-miterlimit:10;stroke-width:1.5px;}</style></defs><title>Novartis_Open_DNA_Blue_168px</title><path class="cls-1" d="M23.75,9.44c0,9.7-14,4.31-14,14" transform="translate(-9 -8.69)"/><path class="cls-1" d="M30.75,9.44c0,9.7,14,4.31,14,14" transform="translate(-9 -8.69)"/><path class="cls-1" d="M65.75,9.44c0,9.7-14,4.31-14,14" transform="translate(-9 -8.69)"/><path class="cls-1" d="M86.75,9.44c0,9.7-14,4.31-14,14" transform="translate(-9 -8.69)"/><path class="cls-1" d="M107.75,9.44c0,9.7-14,4.31-14,14" transform="translate(-9 -8.69)"/><path class="cls-1" d="M114.75,9.44c0,9.7,14,4.31,14,14" transform="translate(-9 -8.69)"/><path class="cls-1" d="M149.75,9.44c0,9.7-14,4.31-14,14" transform="translate(-9 -8.69)"/><path class="cls-1" d="M170.75,9.44c0,9.7-14,4.31-14,14" transform="translate(-9 -8.69)"/><path class="cls-1" d="M23.75,30.44c0,9.7-14,4.31-14,14" transform="translate(-9 -8.69)"/><path class="cls-1" d="M44.75,30.44c0,9.7-14,4.31-14,14" transform="translate(-9 -8.69)"/><path class="cls-1" d="M51.75,30.44c0,9.7,14,4.31,14,14" transform="translate(-9 -8.69)"/><path class="cls-1" d="M86.75,30.44c0,9.7-14,4.31-14,14" transform="translate(-9 -8.69)"/><path class="cls-1" d="M107.75,30.44c0,9.7-14,4.31-14,14" transform="translate(-9 -8.69)"/><path class="cls-1" d="M128.75,30.44c0,9.7-14,4.31-14,14" transform="translate(-9 -8.69)"/><path class="cls-1" d="M149.75,30.44c0,9.7-14,4.31-14,14" transform="translate(-9 -8.69)"/><path class="cls-1" d="M156.75,30.44c0,9.7,14,4.31,14,14" transform="translate(-9 -8.69)"/><path class="cls-1" d="M23.75,51.44c0,9.7-14,4.31-14,14" transform="translate(-9 -8.69)"/><path class="cls-1" d="M44.75,51.44c0,9.7-14,4.31-14,14" transform="translate(-9 -8.69)"/><path class="cls-1" d="M65.75,51.44c0,9.7-14,4.31-14,14" transform="translate(-9 -8.69)"/><path class="cls-1" d="M86.75,51.44c0,9.7-14,4.31-14,14" transform="translate(-9 -8.69)"/><path class="cls-1" d="M93.75,51.44c0,9.7,14,4.31,14,14" transform="translate(-9 -8.69)"/><path class="cls-1" d="M128.75,51.44c0,9.7-14,4.31-14,14" transform="translate(-9 -8.69)"/><path class="cls-1" d="M135.75,51.44c0,9.7,14,4.31,14,14" transform="translate(-9 -8.69)"/><path class="cls-1" d="M156.75,51.44c0,9.7,14,4.31,14,14" transform="translate(-9 -8.69)"/><path class="cls-1" d="M9.75,72.44c0,9.7,14,4.31,14,14" transform="translate(-9 -8.69)"/><path class="cls-1" d="M30.75,72.44c0,9.7,14,4.31,14,14" transform="translate(-9 -8.69)"/><path class="cls-1" d="M65.75,72.44c0,9.7-14,4.31-14,14" transform="translate(-9 -8.69)"/><path class="cls-1" d="M72.75,72.44c0,9.7,14,4.31,14,14" transform="translate(-9 -8.69)"/><path class="cls-1" d="M93.75,72.44c0,9.7,14,4.31,14,14" transform="translate(-9 -8.69)"/><path class="cls-1" d="M128.75,72.44c0,9.7-14,4.31-14,14" transform="translate(-9 -8.69)"/><path class="cls-1" d="M135.75,72.44c0,9.7,14,4.31,14,14" transform="translate(-9 -8.69)"/><path class="cls-1" d="M170.75,72.44c0,9.7-14,4.31-14,14" transform="translate(-9 -8.69)"/><path class="cls-1" d="M23.75,93.44c0,9.7-14,4.31-14,14" transform="translate(-9 -8.69)"/><path class="cls-1" d="M44.75,93.44c0,9.7-14,4.31-14,14" transform="translate(-9 -8.69)"/><path class="cls-1" d="M65.75,93.44c0,9.7-14,4.31-14,14" transform="translate(-9 -8.69)"/><path class="cls-1" d="M72.75,93.44c0,9.7,14,4.31,14,14" transform="translate(-9 -8.69)"/><path class="cls-1" d="M107.75,93.44c0,9.7-14,4.31-14,14" transform="translate(-9 -8.69)"/><path class="cls-1" d="M114.75,93.44c0,9.7,14,4.31,14,14" transform="translate(-9 -8.69)"/><path class="cls-1" d="M149.75,93.44c0,9.7-14,4.31-14,14" transform="translate(-9 -8.69)"/><path class="cls-1" d="M170.75,93.44c0,9.7-14,4.31-14,14" transform="translate(-9 -8.69)"/><path class="cls-1" d="M23.75,114.44c0,9.7-14,4.31-14,14" transform="translate(-9 -8.69)"/><path class="cls-1" d="M30.75,114.44c0,9.7,14,4.31,14,14" transform="translate(-9 -8.69)"/><path class="cls-1" d="M65.75,114.44c0,9.7-14,4.31-14,14" transform="translate(-9 -8.69)"/><path class="cls-1" d="M86.75,114.44c0,9.7-14,4.31-14,14" transform="translate(-9 -8.69)"/><path class="cls-1" d="M107.75,114.44c0,9.7-14,4.31-14,14" transform="translate(-9 -8.69)"/><path class="cls-1" d="M128.75,114.44c0,9.7-14,4.31-14,14" transform="translate(-9 -8.69)"/><path class="cls-1" d="M149.75,114.44c0,9.7-14,4.31-14,14" transform="translate(-9 -8.69)"/><path class="cls-1" d="M170.75,114.44c0,9.7-14,4.31-14,14" transform="translate(-9 -8.69)"/><path class="cls-1" d="M23.75,135.44c0,9.7-14,4.31-14,14" transform="translate(-9 -8.69)"/><path class="cls-1" d="M44.75,135.44c0,9.7-14,4.31-14,14" transform="translate(-9 -8.69)"/><path class="cls-1" d="M65.75,135.44c0,9.7-14,4.31-14,14" transform="translate(-9 -8.69)"/><path class="cls-1" d="M86.75,135.44c0,9.7-14,4.31-14,14" transform="translate(-9 -8.69)"/><path class="cls-1" d="M93.75,135.44c0,9.7,14,4.31,14,14" transform="translate(-9 -8.69)"/><path class="cls-1" d="M128.75,135.44c0,9.7-14,4.31-14,14" transform="translate(-9 -8.69)"/><path class="cls-1" d="M149.75,135.44c0,9.7-14,4.31-14,14" transform="translate(-9 -8.69)"/><path class="cls-1" d="M156.75,135.44c0,9.7,14,4.31,14,14" transform="translate(-9 -8.69)"/><path class="cls-1" d="M9.75,156.44c0,9.7,14,4.31,14,14" transform="translate(-9 -8.69)"/><path class="cls-1" d="M44.75,156.44c0,9.7-14,4.31-14,14" transform="translate(-9 -8.69)"/><path class="cls-1" d="M65.75,156.44c0,9.7-14,4.31-14,14" transform="translate(-9 -8.69)"/><path class="cls-1" d="M86.75,156.44c0,9.7-14,4.31-14,14" transform="translate(-9 -8.69)"/><path class="cls-1" d="M107.75,156.44c0,9.7-14,4.31-14,14" transform="translate(-9 -8.69)"/><path class="cls-1" d="M128.75,156.44c0,9.7-14,4.31-14,14" transform="translate(-9 -8.69)"/><path class="cls-1" d="M149.75,156.44c0,9.7-14,4.31-14,14" transform="translate(-9 -8.69)"/><path class="cls-1" d="M170.75,156.44c0,9.7-14,4.31-14,14" transform="translate(-9 -8.69)"/></svg>