<?xml version="1.0" encoding="utf-8"?>
<!-- Generator: Adobe Illustrator 23.0.1, SVG Export Plug-In . SVG Version: 6.00 Build 0)  -->
<svg version="1.1" id="Layer_1" xmlns="http://www.w3.org/2000/svg" xmlns:xlink="http://www.w3.org/1999/xlink" x="0px" y="0px"
	 viewBox="0 0 24 24" style="enable-background:new 0 0 24 24;" xml:space="preserve">
<style type="text/css">
	.st0{fill:#212529;}
</style>
<path class="st0" d="M17.1,9.1C17.2,9,17.3,9,17.5,9c0.1,0,0.3,0,0.4,0.1C18,9.3,18,9.4,18,9.5s0,0.3-0.1,0.4l-6,6
	C11.8,16,11.6,16,11.5,16s-0.3,0-0.4-0.1l-6-6C5,9.8,5,9.7,5,9.5s0-0.3,0.1-0.4C5.2,9,5.4,9,5.5,9c0.1,0,0.3,0,0.4,0.1l5.6,5.4
	L17.1,9.1z"/>
</svg>
