<svg id="Pattern" xmlns="http://www.w3.org/2000/svg" viewBox="0 0 116 116"><defs><style>.cls-1{fill:none;stroke:#f58144;stroke-linecap:square;stroke-miterlimit:10;}</style></defs><title>Novartis_Open_DNA_Sienna_120pxy</title><path class="cls-1" d="M42.59,32.5c0,6.93-10,3.08-10,10" transform="translate(-32.09 -32)"/><path class="cls-1" d="M47.59,32.5c0,6.93,10,3.08,10,10" transform="translate(-32.09 -32)"/><path class="cls-1" d="M72.59,32.5c0,6.93-10,3.08-10,10" transform="translate(-32.09 -32)"/><path class="cls-1" d="M87.59,32.5c0,6.93-10,3.08-10,10" transform="translate(-32.09 -32)"/><path class="cls-1" d="M102.59,32.5c0,6.93-10,3.08-10,10" transform="translate(-32.09 -32)"/><path class="cls-1" d="M107.59,32.5c0,6.93,10,3.08,10,10" transform="translate(-32.09 -32)"/><path class="cls-1" d="M132.59,32.5c0,6.93-10,3.08-10,10" transform="translate(-32.09 -32)"/><path class="cls-1" d="M147.59,32.5c0,6.93-10,3.08-10,10" transform="translate(-32.09 -32)"/><path class="cls-1" d="M42.59,47.5c0,6.93-10,3.08-10,10" transform="translate(-32.09 -32)"/><path class="cls-1" d="M57.59,47.5c0,6.93-10,3.08-10,10" transform="translate(-32.09 -32)"/><path class="cls-1" d="M62.59,47.5c0,6.93,10,3.08,10,10" transform="translate(-32.09 -32)"/><path class="cls-1" d="M87.59,47.5c0,6.93-10,3.08-10,10" transform="translate(-32.09 -32)"/><path class="cls-1" d="M102.59,47.5c0,6.93-10,3.08-10,10" transform="translate(-32.09 -32)"/><path class="cls-1" d="M117.59,47.5c0,6.93-10,3.08-10,10" transform="translate(-32.09 -32)"/><path class="cls-1" d="M132.59,47.5c0,6.93-10,3.08-10,10" transform="translate(-32.09 -32)"/><path class="cls-1" d="M137.59,47.5c0,6.93,10,3.08,10,10" transform="translate(-32.09 -32)"/><path class="cls-1" d="M42.59,62.5c0,6.93-10,3.08-10,10" transform="translate(-32.09 -32)"/><path class="cls-1" d="M57.59,62.5c0,6.93-10,3.08-10,10" transform="translate(-32.09 -32)"/><path class="cls-1" d="M72.59,62.5c0,6.93-10,3.08-10,10" transform="translate(-32.09 -32)"/><path class="cls-1" d="M87.59,62.5c0,6.93-10,3.08-10,10" transform="translate(-32.09 -32)"/><path class="cls-1" d="M92.59,62.5c0,6.93,10,3.08,10,10" transform="translate(-32.09 -32)"/><path class="cls-1" d="M117.59,62.5c0,6.93-10,3.08-10,10" transform="translate(-32.09 -32)"/><path class="cls-1" d="M122.59,62.5c0,6.93,10,3.08,10,10" transform="translate(-32.09 -32)"/><path class="cls-1" d="M137.59,62.5c0,6.93,10,3.08,10,10" transform="translate(-32.09 -32)"/><path class="cls-1" d="M32.59,77.5c0,6.93,10,3.08,10,10" transform="translate(-32.09 -32)"/><path class="cls-1" d="M47.59,77.5c0,6.93,10,3.08,10,10" transform="translate(-32.09 -32)"/><path class="cls-1" d="M72.59,77.5c0,6.93-10,3.08-10,10" transform="translate(-32.09 -32)"/><path class="cls-1" d="M77.59,77.5c0,6.93,10,3.08,10,10" transform="translate(-32.09 -32)"/><path class="cls-1" d="M92.59,77.5c0,6.93,10,3.08,10,10" transform="translate(-32.09 -32)"/><path class="cls-1" d="M117.59,77.5c0,6.93-10,3.08-10,10" transform="translate(-32.09 -32)"/><path class="cls-1" d="M122.59,77.5c0,6.93,10,3.08,10,10" transform="translate(-32.09 -32)"/><path class="cls-1" d="M147.59,77.5c0,6.93-10,3.08-10,10" transform="translate(-32.09 -32)"/><path class="cls-1" d="M42.59,92.5c0,6.93-10,3.08-10,10" transform="translate(-32.09 -32)"/><path class="cls-1" d="M57.59,92.5c0,6.93-10,3.08-10,10" transform="translate(-32.09 -32)"/><path class="cls-1" d="M72.59,92.5c0,6.93-10,3.08-10,10" transform="translate(-32.09 -32)"/><path class="cls-1" d="M77.59,92.5c0,6.93,10,3.08,10,10" transform="translate(-32.09 -32)"/><path class="cls-1" d="M102.59,92.5c0,6.93-10,3.08-10,10" transform="translate(-32.09 -32)"/><path class="cls-1" d="M107.59,92.5c0,6.93,10,3.08,10,10" transform="translate(-32.09 -32)"/><path class="cls-1" d="M132.59,92.5c0,6.93-10,3.08-10,10" transform="translate(-32.09 -32)"/><path class="cls-1" d="M147.59,92.5c0,6.93-10,3.08-10,10" transform="translate(-32.09 -32)"/><path class="cls-1" d="M42.59,107.5c0,6.93-10,3.08-10,10" transform="translate(-32.09 -32)"/><path class="cls-1" d="M47.59,107.5c0,6.93,10,3.08,10,10" transform="translate(-32.09 -32)"/><path class="cls-1" d="M72.59,107.5c0,6.93-10,3.08-10,10" transform="translate(-32.09 -32)"/><path class="cls-1" d="M87.59,107.5c0,6.93-10,3.08-10,10" transform="translate(-32.09 -32)"/><path class="cls-1" d="M102.59,107.5c0,6.93-10,3.08-10,10" transform="translate(-32.09 -32)"/><path class="cls-1" d="M117.59,107.5c0,6.93-10,3.08-10,10" transform="translate(-32.09 -32)"/><path class="cls-1" d="M132.59,107.5c0,6.93-10,3.08-10,10" transform="translate(-32.09 -32)"/><path class="cls-1" d="M147.59,107.5c0,6.93-10,3.08-10,10" transform="translate(-32.09 -32)"/><path class="cls-1" d="M42.59,122.5c0,6.93-10,3.08-10,10" transform="translate(-32.09 -32)"/><path class="cls-1" d="M57.59,122.5c0,6.93-10,3.08-10,10" transform="translate(-32.09 -32)"/><path class="cls-1" d="M72.59,122.5c0,6.93-10,3.08-10,10" transform="translate(-32.09 -32)"/><path class="cls-1" d="M87.59,122.5c0,6.93-10,3.08-10,10" transform="translate(-32.09 -32)"/><path class="cls-1" d="M92.59,122.5c0,6.93,10,3.08,10,10" transform="translate(-32.09 -32)"/><path class="cls-1" d="M117.59,122.5c0,6.93-10,3.08-10,10" transform="translate(-32.09 -32)"/><path class="cls-1" d="M132.59,122.5c0,6.93-10,3.08-10,10" transform="translate(-32.09 -32)"/><path class="cls-1" d="M137.59,122.5c0,6.93,10,3.08,10,10" transform="translate(-32.09 -32)"/><path class="cls-1" d="M32.59,137.5c0,6.93,10,3.08,10,10" transform="translate(-32.09 -32)"/><path class="cls-1" d="M57.59,137.5c0,6.93-10,3.08-10,10" transform="translate(-32.09 -32)"/><path class="cls-1" d="M72.59,137.5c0,6.93-10,3.08-10,10" transform="translate(-32.09 -32)"/><path class="cls-1" d="M87.59,137.5c0,6.93-10,3.08-10,10" transform="translate(-32.09 -32)"/><path class="cls-1" d="M102.59,137.5c0,6.93-10,3.08-10,10" transform="translate(-32.09 -32)"/><path class="cls-1" d="M117.59,137.5c0,6.93-10,3.08-10,10" transform="translate(-32.09 -32)"/><path class="cls-1" d="M132.59,137.5c0,6.93-10,3.08-10,10" transform="translate(-32.09 -32)"/><path class="cls-1" d="M147.59,137.5c0,6.93-10,3.08-10,10" transform="translate(-32.09 -32)"/></svg>