<svg id="Pattern" xmlns="http://www.w3.org/2000/svg" viewBox="0 0 115.66 115.58"><defs><style>.cls-1{fill:none;stroke:#5291dd;stroke-miterlimit:10;stroke-width:0.87px;}</style></defs><title>Novartis_Open_Chromosome_Blue_120px</title><line id="_Path_" data-name="&lt;Path&gt;" class="cls-1" x1="15.31" y1="105.27" x2="25.32" y2="115.27"/><line id="_Path_2" data-name="&lt;Path&gt;" class="cls-1" x1="25.32" y1="105.27" x2="15.31" y2="115.27"/><line id="_Path_3" data-name="&lt;Path&gt;" class="cls-1" x1="45.33" y1="105.27" x2="55.33" y2="115.27"/><line id="_Path_4" data-name="&lt;Path&gt;" class="cls-1" x1="55.33" y1="105.27" x2="45.33" y2="115.27"/><polyline id="_Path_5" data-name="&lt;Path&gt;" class="cls-1" points="40.33 115.27 35.32 110.27 30.32 115.27"/><line id="_Path_6" data-name="&lt;Path&gt;" class="cls-1" x1="45.33" y1="85.34" x2="55.33" y2="75.34"/><line id="_Path_7" data-name="&lt;Path&gt;" class="cls-1" x1="45.33" y1="75.34" x2="55.33" y2="85.34"/><line id="_Path_8" data-name="&lt;Path&gt;" class="cls-1" x1="45.33" y1="100.29" x2="55.33" y2="90.29"/><line id="_Path_9" data-name="&lt;Path&gt;" class="cls-1" x1="45.33" y1="90.29" x2="55.33" y2="100.29"/><line id="_Path_10" data-name="&lt;Path&gt;" class="cls-1" x1="30.32" y1="100.29" x2="40.33" y2="90.29"/><line id="_Path_11" data-name="&lt;Path&gt;" class="cls-1" x1="30.32" y1="90.29" x2="40.33" y2="100.29"/><line id="_Path_12" data-name="&lt;Path&gt;" class="cls-1" x1="0.31" y1="100.29" x2="10.31" y2="90.29"/><line id="_Path_13" data-name="&lt;Path&gt;" class="cls-1" x1="0.31" y1="90.29" x2="10.31" y2="100.29"/><line id="_Path_14" data-name="&lt;Path&gt;" class="cls-1" x1="30.32" y1="70.34" x2="40.33" y2="60.33"/><line id="_Path_15" data-name="&lt;Path&gt;" class="cls-1" x1="30.32" y1="60.33" x2="40.33" y2="70.34"/><polyline id="_Path_16" data-name="&lt;Path&gt;" class="cls-1" points="55.33 70.34 50.33 65.34 45.33 70.34"/><line id="_Path_17" data-name="&lt;Path&gt;" class="cls-1" x1="15.31" y1="70.34" x2="25.32" y2="60.33"/><line id="_Path_18" data-name="&lt;Path&gt;" class="cls-1" x1="15.31" y1="60.33" x2="25.32" y2="70.34"/><line id="_Path_19" data-name="&lt;Path&gt;" class="cls-1" x1="0.31" y1="70.34" x2="10.31" y2="60.33"/><line id="_Path_20" data-name="&lt;Path&gt;" class="cls-1" x1="0.31" y1="60.33" x2="10.31" y2="70.34"/><polyline id="_Path_21" data-name="&lt;Path&gt;" class="cls-1" points="40.33 85.34 35.32 80.34 30.32 85.34"/><polyline id="_Path_22" data-name="&lt;Path&gt;" class="cls-1" points="10.31 85.31 5.31 80.31 0.31 85.31"/><polyline id="_Path_23" data-name="&lt;Path&gt;" class="cls-1" points="10.31 115.27 5.31 110.27 0.31 115.27"/><polyline id="_Path_24" data-name="&lt;Path&gt;" class="cls-1" points="25.32 100.29 20.32 95.29 15.31 100.29"/><line id="_Path_25" data-name="&lt;Path&gt;" class="cls-1" x1="15.31" y1="85.34" x2="25.32" y2="75.34"/><line id="_Path_26" data-name="&lt;Path&gt;" class="cls-1" x1="15.31" y1="75.34" x2="25.32" y2="85.34"/><line id="_Path_27" data-name="&lt;Path&gt;" class="cls-1" x1="15.31" y1="45.24" x2="25.32" y2="55.25"/><line id="_Path_28" data-name="&lt;Path&gt;" class="cls-1" x1="25.32" y1="45.24" x2="15.31" y2="55.25"/><line id="_Path_29" data-name="&lt;Path&gt;" class="cls-1" x1="45.33" y1="45.24" x2="55.33" y2="55.25"/><line id="_Path_30" data-name="&lt;Path&gt;" class="cls-1" x1="55.33" y1="45.24" x2="45.33" y2="55.25"/><polyline id="_Path_31" data-name="&lt;Path&gt;" class="cls-1" points="40.33 55.25 35.32 50.25 30.32 55.25"/><line id="_Path_32" data-name="&lt;Path&gt;" class="cls-1" x1="45.33" y1="25.32" x2="55.33" y2="15.32"/><line id="_Path_33" data-name="&lt;Path&gt;" class="cls-1" x1="45.33" y1="15.32" x2="55.33" y2="25.32"/><line id="_Path_34" data-name="&lt;Path&gt;" class="cls-1" x1="45.33" y1="40.27" x2="55.33" y2="30.27"/><line id="_Path_35" data-name="&lt;Path&gt;" class="cls-1" x1="45.33" y1="30.27" x2="55.33" y2="40.27"/><line id="_Path_36" data-name="&lt;Path&gt;" class="cls-1" x1="30.32" y1="40.27" x2="40.33" y2="30.27"/><line id="_Path_37" data-name="&lt;Path&gt;" class="cls-1" x1="30.32" y1="30.27" x2="40.33" y2="40.27"/><line id="_Path_38" data-name="&lt;Path&gt;" class="cls-1" x1="0.31" y1="40.27" x2="10.31" y2="30.27"/><line id="_Path_39" data-name="&lt;Path&gt;" class="cls-1" x1="0.31" y1="30.27" x2="10.31" y2="40.27"/><line id="_Path_40" data-name="&lt;Path&gt;" class="cls-1" x1="30.32" y1="10.31" x2="40.33" y2="0.31"/><line id="_Path_41" data-name="&lt;Path&gt;" class="cls-1" x1="30.32" y1="0.31" x2="40.33" y2="10.31"/><polyline id="_Path_42" data-name="&lt;Path&gt;" class="cls-1" points="55.33 10.31 50.33 5.31 45.33 10.31"/><line id="_Path_43" data-name="&lt;Path&gt;" class="cls-1" x1="15.31" y1="10.31" x2="25.32" y2="0.31"/><line id="_Path_44" data-name="&lt;Path&gt;" class="cls-1" x1="15.31" y1="0.31" x2="25.32" y2="10.31"/><line id="_Path_45" data-name="&lt;Path&gt;" class="cls-1" x1="0.31" y1="10.31" x2="10.31" y2="0.31"/><line id="_Path_46" data-name="&lt;Path&gt;" class="cls-1" x1="0.31" y1="0.31" x2="10.31" y2="10.31"/><polyline id="_Path_47" data-name="&lt;Path&gt;" class="cls-1" points="40.33 25.32 35.32 20.32 30.32 25.32"/><polyline id="_Path_48" data-name="&lt;Path&gt;" class="cls-1" points="10.31 25.29 5.31 20.29 0.31 25.29"/><polyline id="_Path_49" data-name="&lt;Path&gt;" class="cls-1" points="10.31 55.25 5.31 50.24 0.31 55.25"/><polyline id="_Path_50" data-name="&lt;Path&gt;" class="cls-1" points="25.32 40.27 20.32 35.27 15.31 40.27"/><line id="_Path_51" data-name="&lt;Path&gt;" class="cls-1" x1="15.31" y1="25.32" x2="25.32" y2="15.32"/><line id="_Path_52" data-name="&lt;Path&gt;" class="cls-1" x1="15.31" y1="15.32" x2="25.32" y2="25.32"/><line id="_Path_53" data-name="&lt;Path&gt;" class="cls-1" x1="75.34" y1="105.27" x2="85.34" y2="115.27"/><line id="_Path_54" data-name="&lt;Path&gt;" class="cls-1" x1="85.34" y1="105.27" x2="75.34" y2="115.27"/><line id="_Path_55" data-name="&lt;Path&gt;" class="cls-1" x1="105.35" y1="105.27" x2="115.35" y2="115.27"/><line id="_Path_56" data-name="&lt;Path&gt;" class="cls-1" x1="115.35" y1="105.27" x2="105.35" y2="115.27"/><polyline id="_Path_57" data-name="&lt;Path&gt;" class="cls-1" points="100.35 115.27 95.35 110.27 90.34 115.27"/><line id="_Path_58" data-name="&lt;Path&gt;" class="cls-1" x1="105.35" y1="85.34" x2="115.35" y2="75.34"/><line id="_Path_59" data-name="&lt;Path&gt;" class="cls-1" x1="105.35" y1="75.34" x2="115.35" y2="85.34"/><line id="_Path_60" data-name="&lt;Path&gt;" class="cls-1" x1="105.35" y1="100.29" x2="115.35" y2="90.29"/><line id="_Path_61" data-name="&lt;Path&gt;" class="cls-1" x1="105.35" y1="90.29" x2="115.35" y2="100.29"/><line id="_Path_62" data-name="&lt;Path&gt;" class="cls-1" x1="90.34" y1="100.29" x2="100.35" y2="90.29"/><line id="_Path_63" data-name="&lt;Path&gt;" class="cls-1" x1="90.34" y1="90.29" x2="100.35" y2="100.29"/><line id="_Path_64" data-name="&lt;Path&gt;" class="cls-1" x1="60.33" y1="100.29" x2="70.33" y2="90.29"/><line id="_Path_65" data-name="&lt;Path&gt;" class="cls-1" x1="60.33" y1="90.29" x2="70.33" y2="100.29"/><line id="_Path_66" data-name="&lt;Path&gt;" class="cls-1" x1="90.34" y1="70.34" x2="100.35" y2="60.33"/><line id="_Path_67" data-name="&lt;Path&gt;" class="cls-1" x1="90.34" y1="60.33" x2="100.35" y2="70.34"/><polyline id="_Path_68" data-name="&lt;Path&gt;" class="cls-1" points="115.35 70.34 110.35 65.34 105.35 70.34"/><line id="_Path_69" data-name="&lt;Path&gt;" class="cls-1" x1="75.34" y1="70.34" x2="85.34" y2="60.33"/><line id="_Path_70" data-name="&lt;Path&gt;" class="cls-1" x1="75.34" y1="60.33" x2="85.34" y2="70.34"/><line id="_Path_71" data-name="&lt;Path&gt;" class="cls-1" x1="60.33" y1="70.34" x2="70.33" y2="60.33"/><line id="_Path_72" data-name="&lt;Path&gt;" class="cls-1" x1="60.33" y1="60.33" x2="70.33" y2="70.34"/><polyline id="_Path_73" data-name="&lt;Path&gt;" class="cls-1" points="100.35 85.34 95.35 80.34 90.34 85.34"/><polyline id="_Path_74" data-name="&lt;Path&gt;" class="cls-1" points="70.34 85.31 65.33 80.31 60.33 85.31"/><polyline id="_Path_75" data-name="&lt;Path&gt;" class="cls-1" points="70.34 115.27 65.33 110.27 60.33 115.27"/><polyline id="_Path_76" data-name="&lt;Path&gt;" class="cls-1" points="85.34 100.29 80.34 95.29 75.34 100.29"/><line id="_Path_77" data-name="&lt;Path&gt;" class="cls-1" x1="75.34" y1="85.34" x2="85.34" y2="75.34"/><line id="_Path_78" data-name="&lt;Path&gt;" class="cls-1" x1="75.34" y1="75.34" x2="85.34" y2="85.34"/><line id="_Path_79" data-name="&lt;Path&gt;" class="cls-1" x1="75.34" y1="45.24" x2="85.34" y2="55.25"/><line id="_Path_80" data-name="&lt;Path&gt;" class="cls-1" x1="85.34" y1="45.24" x2="75.34" y2="55.25"/><line id="_Path_81" data-name="&lt;Path&gt;" class="cls-1" x1="105.35" y1="45.24" x2="115.35" y2="55.25"/><line id="_Path_82" data-name="&lt;Path&gt;" class="cls-1" x1="115.35" y1="45.24" x2="105.35" y2="55.25"/><polyline id="_Path_83" data-name="&lt;Path&gt;" class="cls-1" points="100.35 55.25 95.35 50.25 90.34 55.25"/><line id="_Path_84" data-name="&lt;Path&gt;" class="cls-1" x1="105.35" y1="25.32" x2="115.35" y2="15.32"/><line id="_Path_85" data-name="&lt;Path&gt;" class="cls-1" x1="105.35" y1="15.32" x2="115.35" y2="25.32"/><line id="_Path_86" data-name="&lt;Path&gt;" class="cls-1" x1="105.35" y1="40.27" x2="115.35" y2="30.27"/><line id="_Path_87" data-name="&lt;Path&gt;" class="cls-1" x1="105.35" y1="30.27" x2="115.35" y2="40.27"/><line id="_Path_88" data-name="&lt;Path&gt;" class="cls-1" x1="90.34" y1="40.27" x2="100.35" y2="30.27"/><line id="_Path_89" data-name="&lt;Path&gt;" class="cls-1" x1="90.34" y1="30.27" x2="100.35" y2="40.27"/><line id="_Path_90" data-name="&lt;Path&gt;" class="cls-1" x1="60.33" y1="40.27" x2="70.33" y2="30.27"/><line id="_Path_91" data-name="&lt;Path&gt;" class="cls-1" x1="60.33" y1="30.27" x2="70.33" y2="40.27"/><line id="_Path_92" data-name="&lt;Path&gt;" class="cls-1" x1="90.34" y1="10.31" x2="100.35" y2="0.31"/><line id="_Path_93" data-name="&lt;Path&gt;" class="cls-1" x1="90.34" y1="0.31" x2="100.35" y2="10.31"/><polyline id="_Path_94" data-name="&lt;Path&gt;" class="cls-1" points="115.35 10.31 110.35 5.31 105.35 10.31"/><line id="_Path_95" data-name="&lt;Path&gt;" class="cls-1" x1="75.34" y1="10.31" x2="85.34" y2="0.31"/><line id="_Path_96" data-name="&lt;Path&gt;" class="cls-1" x1="75.34" y1="0.31" x2="85.34" y2="10.31"/><line id="_Path_97" data-name="&lt;Path&gt;" class="cls-1" x1="60.33" y1="10.31" x2="70.33" y2="0.31"/><line id="_Path_98" data-name="&lt;Path&gt;" class="cls-1" x1="60.33" y1="0.31" x2="70.33" y2="10.31"/><polyline id="_Path_99" data-name="&lt;Path&gt;" class="cls-1" points="100.35 25.32 95.35 20.32 90.34 25.32"/><polyline id="_Path_100" data-name="&lt;Path&gt;" class="cls-1" points="70.34 25.29 65.33 20.29 60.33 25.29"/><polyline id="_Path_101" data-name="&lt;Path&gt;" class="cls-1" points="70.34 55.25 65.33 50.24 60.33 55.25"/><polyline id="_Path_102" data-name="&lt;Path&gt;" class="cls-1" points="85.34 40.27 80.34 35.27 75.34 40.27"/><line id="_Path_103" data-name="&lt;Path&gt;" class="cls-1" x1="75.34" y1="25.32" x2="85.34" y2="15.32"/><line id="_Path_104" data-name="&lt;Path&gt;" class="cls-1" x1="75.34" y1="15.32" x2="85.34" y2="25.32"/></svg>