<svg id="Pattern" xmlns="http://www.w3.org/2000/svg" viewBox="0 0 162.06 161.94"><defs><style>.cls-1{fill:none;stroke:#fcb13b;stroke-miterlimit:10;stroke-width:1.5px;}</style></defs><title>Novartis_Open_Chromosome_Apricot_168px</title><line id="_Path_" data-name="&lt;Path&gt;" class="cls-1" x1="21.53" y1="147.41" x2="35.53" y2="161.41"/><line id="_Path_2" data-name="&lt;Path&gt;" class="cls-1" x1="35.53" y1="147.41" x2="21.53" y2="161.41"/><line id="_Path_3" data-name="&lt;Path&gt;" class="cls-1" x1="63.53" y1="147.41" x2="77.53" y2="161.41"/><line id="_Path_4" data-name="&lt;Path&gt;" class="cls-1" x1="77.53" y1="147.41" x2="63.53" y2="161.41"/><polyline id="_Path_5" data-name="&lt;Path&gt;" class="cls-1" points="56.53 161.41 49.53 154.42 42.53 161.41"/><line id="_Path_6" data-name="&lt;Path&gt;" class="cls-1" x1="63.53" y1="119.53" x2="77.53" y2="105.54"/><line id="_Path_7" data-name="&lt;Path&gt;" class="cls-1" x1="63.53" y1="105.54" x2="77.53" y2="119.53"/><line id="_Path_8" data-name="&lt;Path&gt;" class="cls-1" x1="63.53" y1="140.45" x2="77.53" y2="126.46"/><line id="_Path_9" data-name="&lt;Path&gt;" class="cls-1" x1="63.53" y1="126.46" x2="77.53" y2="140.45"/><line id="_Path_10" data-name="&lt;Path&gt;" class="cls-1" x1="42.53" y1="140.45" x2="56.53" y2="126.46"/><line id="_Path_11" data-name="&lt;Path&gt;" class="cls-1" x1="42.53" y1="126.46" x2="56.53" y2="140.45"/><line id="_Path_12" data-name="&lt;Path&gt;" class="cls-1" x1="0.53" y1="140.45" x2="14.53" y2="126.46"/><line id="_Path_13" data-name="&lt;Path&gt;" class="cls-1" x1="0.53" y1="126.46" x2="14.53" y2="140.45"/><line id="_Path_14" data-name="&lt;Path&gt;" class="cls-1" x1="42.53" y1="98.53" x2="56.53" y2="84.53"/><line id="_Path_15" data-name="&lt;Path&gt;" class="cls-1" x1="42.53" y1="84.53" x2="56.53" y2="98.53"/><polyline id="_Path_16" data-name="&lt;Path&gt;" class="cls-1" points="77.53 98.53 70.53 91.53 63.53 98.53"/><line id="_Path_17" data-name="&lt;Path&gt;" class="cls-1" x1="21.53" y1="98.53" x2="35.53" y2="84.53"/><line id="_Path_18" data-name="&lt;Path&gt;" class="cls-1" x1="21.53" y1="84.53" x2="35.53" y2="98.53"/><line id="_Path_19" data-name="&lt;Path&gt;" class="cls-1" x1="0.53" y1="98.53" x2="14.53" y2="84.53"/><line id="_Path_20" data-name="&lt;Path&gt;" class="cls-1" x1="0.53" y1="84.53" x2="14.53" y2="98.53"/><polyline id="_Path_21" data-name="&lt;Path&gt;" class="cls-1" points="56.53 119.53 49.53 112.53 42.53 119.53"/><polyline id="_Path_22" data-name="&lt;Path&gt;" class="cls-1" points="14.53 119.49 7.53 112.49 0.53 119.49"/><polyline id="_Path_23" data-name="&lt;Path&gt;" class="cls-1" points="14.53 161.41 7.53 154.41 0.53 161.41"/><polyline id="_Path_24" data-name="&lt;Path&gt;" class="cls-1" points="35.53 140.45 28.53 133.45 21.53 140.45"/><line id="_Path_25" data-name="&lt;Path&gt;" class="cls-1" x1="21.53" y1="119.53" x2="35.53" y2="105.53"/><line id="_Path_26" data-name="&lt;Path&gt;" class="cls-1" x1="21.53" y1="105.53" x2="35.53" y2="119.53"/><line id="_Path_27" data-name="&lt;Path&gt;" class="cls-1" x1="21.53" y1="63.41" x2="35.53" y2="77.41"/><line id="_Path_28" data-name="&lt;Path&gt;" class="cls-1" x1="35.53" y1="63.41" x2="21.53" y2="77.41"/><line id="_Path_29" data-name="&lt;Path&gt;" class="cls-1" x1="63.53" y1="63.41" x2="77.53" y2="77.41"/><line id="_Path_30" data-name="&lt;Path&gt;" class="cls-1" x1="77.53" y1="63.41" x2="63.53" y2="77.41"/><polyline id="_Path_31" data-name="&lt;Path&gt;" class="cls-1" points="56.53 77.41 49.53 70.42 42.53 77.41"/><line id="_Path_32" data-name="&lt;Path&gt;" class="cls-1" x1="63.53" y1="35.53" x2="77.53" y2="21.54"/><line id="_Path_33" data-name="&lt;Path&gt;" class="cls-1" x1="63.53" y1="21.54" x2="77.53" y2="35.53"/><line id="_Path_34" data-name="&lt;Path&gt;" class="cls-1" x1="63.53" y1="56.45" x2="77.53" y2="42.46"/><line id="_Path_35" data-name="&lt;Path&gt;" class="cls-1" x1="63.53" y1="42.46" x2="77.53" y2="56.45"/><line id="_Path_36" data-name="&lt;Path&gt;" class="cls-1" x1="42.53" y1="56.45" x2="56.53" y2="42.46"/><line id="_Path_37" data-name="&lt;Path&gt;" class="cls-1" x1="42.53" y1="42.46" x2="56.53" y2="56.45"/><line id="_Path_38" data-name="&lt;Path&gt;" class="cls-1" x1="0.53" y1="56.45" x2="14.53" y2="42.46"/><line id="_Path_39" data-name="&lt;Path&gt;" class="cls-1" x1="0.53" y1="42.46" x2="14.53" y2="56.45"/><line id="_Path_40" data-name="&lt;Path&gt;" class="cls-1" x1="42.53" y1="14.53" x2="56.53" y2="0.53"/><line id="_Path_41" data-name="&lt;Path&gt;" class="cls-1" x1="42.53" y1="0.53" x2="56.53" y2="14.53"/><polyline id="_Path_42" data-name="&lt;Path&gt;" class="cls-1" points="77.53 14.53 70.53 7.53 63.53 14.53"/><line id="_Path_43" data-name="&lt;Path&gt;" class="cls-1" x1="21.53" y1="14.53" x2="35.53" y2="0.53"/><line id="_Path_44" data-name="&lt;Path&gt;" class="cls-1" x1="21.53" y1="0.53" x2="35.53" y2="14.53"/><line id="_Path_45" data-name="&lt;Path&gt;" class="cls-1" x1="0.53" y1="14.53" x2="14.53" y2="0.53"/><line id="_Path_46" data-name="&lt;Path&gt;" class="cls-1" x1="0.53" y1="0.53" x2="14.53" y2="14.53"/><polyline id="_Path_47" data-name="&lt;Path&gt;" class="cls-1" points="56.53 35.53 49.53 28.53 42.53 35.53"/><polyline id="_Path_48" data-name="&lt;Path&gt;" class="cls-1" points="14.53 35.49 7.53 28.49 0.53 35.49"/><polyline id="_Path_49" data-name="&lt;Path&gt;" class="cls-1" points="14.53 77.41 7.53 70.41 0.53 77.41"/><polyline id="_Path_50" data-name="&lt;Path&gt;" class="cls-1" points="35.53 56.45 28.53 49.45 21.53 56.45"/><line id="_Path_51" data-name="&lt;Path&gt;" class="cls-1" x1="21.53" y1="35.53" x2="35.53" y2="21.53"/><line id="_Path_52" data-name="&lt;Path&gt;" class="cls-1" x1="21.53" y1="21.53" x2="35.53" y2="35.53"/><line id="_Path_53" data-name="&lt;Path&gt;" class="cls-1" x1="105.53" y1="147.41" x2="119.53" y2="161.41"/><line id="_Path_54" data-name="&lt;Path&gt;" class="cls-1" x1="119.53" y1="147.41" x2="105.53" y2="161.41"/><line id="_Path_55" data-name="&lt;Path&gt;" class="cls-1" x1="147.53" y1="147.41" x2="161.53" y2="161.41"/><line id="_Path_56" data-name="&lt;Path&gt;" class="cls-1" x1="161.53" y1="147.41" x2="147.53" y2="161.41"/><polyline id="_Path_57" data-name="&lt;Path&gt;" class="cls-1" points="140.53 161.41 133.53 154.42 126.53 161.41"/><line id="_Path_58" data-name="&lt;Path&gt;" class="cls-1" x1="147.53" y1="119.53" x2="161.53" y2="105.54"/><line id="_Path_59" data-name="&lt;Path&gt;" class="cls-1" x1="147.53" y1="105.54" x2="161.53" y2="119.53"/><line id="_Path_60" data-name="&lt;Path&gt;" class="cls-1" x1="147.53" y1="140.45" x2="161.53" y2="126.46"/><line id="_Path_61" data-name="&lt;Path&gt;" class="cls-1" x1="147.53" y1="126.46" x2="161.53" y2="140.45"/><line id="_Path_62" data-name="&lt;Path&gt;" class="cls-1" x1="126.53" y1="140.45" x2="140.53" y2="126.46"/><line id="_Path_63" data-name="&lt;Path&gt;" class="cls-1" x1="126.53" y1="126.46" x2="140.53" y2="140.45"/><line id="_Path_64" data-name="&lt;Path&gt;" class="cls-1" x1="84.53" y1="140.45" x2="98.53" y2="126.46"/><line id="_Path_65" data-name="&lt;Path&gt;" class="cls-1" x1="84.53" y1="126.46" x2="98.53" y2="140.45"/><line id="_Path_66" data-name="&lt;Path&gt;" class="cls-1" x1="126.53" y1="98.53" x2="140.53" y2="84.53"/><line id="_Path_67" data-name="&lt;Path&gt;" class="cls-1" x1="126.53" y1="84.53" x2="140.53" y2="98.53"/><polyline id="_Path_68" data-name="&lt;Path&gt;" class="cls-1" points="161.53 98.53 154.53 91.53 147.53 98.53"/><line id="_Path_69" data-name="&lt;Path&gt;" class="cls-1" x1="105.53" y1="98.53" x2="119.53" y2="84.53"/><line id="_Path_70" data-name="&lt;Path&gt;" class="cls-1" x1="105.53" y1="84.53" x2="119.53" y2="98.53"/><line id="_Path_71" data-name="&lt;Path&gt;" class="cls-1" x1="84.53" y1="98.53" x2="98.53" y2="84.53"/><line id="_Path_72" data-name="&lt;Path&gt;" class="cls-1" x1="84.53" y1="84.53" x2="98.53" y2="98.53"/><polyline id="_Path_73" data-name="&lt;Path&gt;" class="cls-1" points="140.53 119.53 133.53 112.53 126.53 119.53"/><polyline id="_Path_74" data-name="&lt;Path&gt;" class="cls-1" points="98.53 119.49 91.53 112.49 84.53 119.49"/><polyline id="_Path_75" data-name="&lt;Path&gt;" class="cls-1" points="98.53 161.41 91.53 154.41 84.53 161.41"/><polyline id="_Path_76" data-name="&lt;Path&gt;" class="cls-1" points="119.53 140.45 112.53 133.45 105.53 140.45"/><line id="_Path_77" data-name="&lt;Path&gt;" class="cls-1" x1="105.53" y1="119.53" x2="119.53" y2="105.53"/><line id="_Path_78" data-name="&lt;Path&gt;" class="cls-1" x1="105.53" y1="105.53" x2="119.53" y2="119.53"/><line id="_Path_79" data-name="&lt;Path&gt;" class="cls-1" x1="105.53" y1="63.41" x2="119.53" y2="77.41"/><line id="_Path_80" data-name="&lt;Path&gt;" class="cls-1" x1="119.53" y1="63.41" x2="105.53" y2="77.41"/><line id="_Path_81" data-name="&lt;Path&gt;" class="cls-1" x1="147.53" y1="63.41" x2="161.53" y2="77.41"/><line id="_Path_82" data-name="&lt;Path&gt;" class="cls-1" x1="161.53" y1="63.41" x2="147.53" y2="77.41"/><polyline id="_Path_83" data-name="&lt;Path&gt;" class="cls-1" points="140.53 77.41 133.53 70.42 126.53 77.41"/><line id="_Path_84" data-name="&lt;Path&gt;" class="cls-1" x1="147.53" y1="35.53" x2="161.53" y2="21.54"/><line id="_Path_85" data-name="&lt;Path&gt;" class="cls-1" x1="147.53" y1="21.54" x2="161.53" y2="35.53"/><line id="_Path_86" data-name="&lt;Path&gt;" class="cls-1" x1="147.53" y1="56.45" x2="161.53" y2="42.46"/><line id="_Path_87" data-name="&lt;Path&gt;" class="cls-1" x1="147.53" y1="42.46" x2="161.53" y2="56.45"/><line id="_Path_88" data-name="&lt;Path&gt;" class="cls-1" x1="126.53" y1="56.45" x2="140.53" y2="42.46"/><line id="_Path_89" data-name="&lt;Path&gt;" class="cls-1" x1="126.53" y1="42.46" x2="140.53" y2="56.45"/><line id="_Path_90" data-name="&lt;Path&gt;" class="cls-1" x1="84.53" y1="56.45" x2="98.53" y2="42.46"/><line id="_Path_91" data-name="&lt;Path&gt;" class="cls-1" x1="84.53" y1="42.46" x2="98.53" y2="56.45"/><line id="_Path_92" data-name="&lt;Path&gt;" class="cls-1" x1="126.53" y1="14.53" x2="140.53" y2="0.53"/><line id="_Path_93" data-name="&lt;Path&gt;" class="cls-1" x1="126.53" y1="0.53" x2="140.53" y2="14.53"/><polyline id="_Path_94" data-name="&lt;Path&gt;" class="cls-1" points="161.53 14.53 154.53 7.53 147.53 14.53"/><line id="_Path_95" data-name="&lt;Path&gt;" class="cls-1" x1="105.53" y1="14.53" x2="119.53" y2="0.53"/><line id="_Path_96" data-name="&lt;Path&gt;" class="cls-1" x1="105.53" y1="0.53" x2="119.53" y2="14.53"/><line id="_Path_97" data-name="&lt;Path&gt;" class="cls-1" x1="84.53" y1="14.53" x2="98.53" y2="0.53"/><line id="_Path_98" data-name="&lt;Path&gt;" class="cls-1" x1="84.53" y1="0.53" x2="98.53" y2="14.53"/><polyline id="_Path_99" data-name="&lt;Path&gt;" class="cls-1" points="140.53 35.53 133.53 28.53 126.53 35.53"/><polyline id="_Path_100" data-name="&lt;Path&gt;" class="cls-1" points="98.53 35.49 91.53 28.49 84.53 35.49"/><polyline id="_Path_101" data-name="&lt;Path&gt;" class="cls-1" points="98.53 77.41 91.53 70.41 84.53 77.41"/><polyline id="_Path_102" data-name="&lt;Path&gt;" class="cls-1" points="119.53 56.45 112.53 49.45 105.53 56.45"/><line id="_Path_103" data-name="&lt;Path&gt;" class="cls-1" x1="105.53" y1="35.53" x2="119.53" y2="21.53"/><line id="_Path_104" data-name="&lt;Path&gt;" class="cls-1" x1="105.53" y1="21.53" x2="119.53" y2="35.53"/></svg>