<svg id="Pattern" xmlns="http://www.w3.org/2000/svg" viewBox="0 0 162.5 162.5"><defs><style>.cls-1{fill:none;stroke:#f58144;stroke-linecap:square;stroke-linejoin:round;stroke-width:1.5px;}</style></defs><title>Novartis_Open_Graduated_Sienna_168px</title><line class="cls-1" x1="0.75" y1="0.75" x2="14.75" y2="0.75"/><line class="cls-1" x1="0.75" y1="7.75" x2="7.75" y2="7.75"/><line class="cls-1" x1="0.75" y1="14.75" x2="7.75" y2="14.75"/><line class="cls-1" x1="21.75" y1="0.75" x2="35.75" y2="0.75"/><line class="cls-1" x1="21.75" y1="7.75" x2="28.75" y2="7.75"/><line class="cls-1" x1="21.75" y1="14.75" x2="28.75" y2="14.75"/><line class="cls-1" x1="42.75" y1="0.75" x2="56.75" y2="0.75"/><line class="cls-1" x1="42.75" y1="7.75" x2="49.75" y2="7.75"/><line class="cls-1" x1="42.75" y1="14.75" x2="49.75" y2="14.75"/><line class="cls-1" x1="63.75" y1="0.75" x2="77.75" y2="0.75"/><line class="cls-1" x1="63.75" y1="7.75" x2="70.75" y2="7.75"/><line class="cls-1" x1="63.75" y1="14.75" x2="70.75" y2="14.75"/><line class="cls-1" x1="84.75" y1="0.75" x2="98.75" y2="0.75"/><line class="cls-1" x1="84.75" y1="7.75" x2="91.75" y2="7.75"/><line class="cls-1" x1="84.75" y1="14.75" x2="91.75" y2="14.75"/><line class="cls-1" x1="105.75" y1="0.75" x2="119.75" y2="0.75"/><line class="cls-1" x1="105.75" y1="7.75" x2="112.75" y2="7.75"/><line class="cls-1" x1="105.75" y1="14.75" x2="112.75" y2="14.75"/><line class="cls-1" x1="0.75" y1="21.75" x2="14.75" y2="21.75"/><line class="cls-1" x1="0.75" y1="28.75" x2="7.75" y2="28.75"/><line class="cls-1" x1="0.75" y1="35.75" x2="7.75" y2="35.75"/><line class="cls-1" x1="21.75" y1="21.75" x2="35.75" y2="21.75"/><line class="cls-1" x1="21.75" y1="28.75" x2="28.75" y2="28.75"/><line class="cls-1" x1="21.75" y1="35.75" x2="28.75" y2="35.75"/><line class="cls-1" x1="42.75" y1="21.75" x2="56.75" y2="21.75"/><line class="cls-1" x1="42.75" y1="28.75" x2="49.75" y2="28.75"/><line class="cls-1" x1="42.75" y1="35.75" x2="49.75" y2="35.75"/><line class="cls-1" x1="63.75" y1="21.75" x2="77.75" y2="21.75"/><line class="cls-1" x1="63.75" y1="28.75" x2="70.75" y2="28.75"/><line class="cls-1" x1="63.75" y1="35.75" x2="70.75" y2="35.75"/><line class="cls-1" x1="84.75" y1="21.75" x2="98.75" y2="21.75"/><line class="cls-1" x1="84.75" y1="28.75" x2="91.75" y2="28.75"/><line class="cls-1" x1="84.75" y1="35.75" x2="91.75" y2="35.75"/><line class="cls-1" x1="105.75" y1="21.75" x2="119.75" y2="21.75"/><line class="cls-1" x1="105.75" y1="28.75" x2="112.75" y2="28.75"/><line class="cls-1" x1="105.75" y1="35.75" x2="112.75" y2="35.75"/><line class="cls-1" x1="0.75" y1="42.75" x2="14.75" y2="42.75"/><line class="cls-1" x1="0.75" y1="49.75" x2="7.75" y2="49.75"/><line class="cls-1" x1="0.75" y1="56.75" x2="7.75" y2="56.75"/><line class="cls-1" x1="21.75" y1="42.75" x2="35.75" y2="42.75"/><line class="cls-1" x1="21.75" y1="49.75" x2="28.75" y2="49.75"/><line class="cls-1" x1="21.75" y1="56.75" x2="28.75" y2="56.75"/><line class="cls-1" x1="42.75" y1="42.75" x2="56.75" y2="42.75"/><line class="cls-1" x1="42.75" y1="49.75" x2="49.75" y2="49.75"/><line class="cls-1" x1="42.75" y1="56.75" x2="49.75" y2="56.75"/><line class="cls-1" x1="63.75" y1="42.75" x2="77.75" y2="42.75"/><line class="cls-1" x1="63.75" y1="49.75" x2="70.75" y2="49.75"/><line class="cls-1" x1="63.75" y1="56.75" x2="70.75" y2="56.75"/><line class="cls-1" x1="84.75" y1="42.75" x2="98.75" y2="42.75"/><line class="cls-1" x1="84.75" y1="49.75" x2="91.75" y2="49.75"/><line class="cls-1" x1="84.75" y1="56.75" x2="91.75" y2="56.75"/><line class="cls-1" x1="105.75" y1="42.75" x2="119.75" y2="42.75"/><line class="cls-1" x1="105.75" y1="49.75" x2="112.75" y2="49.75"/><line class="cls-1" x1="105.75" y1="56.75" x2="112.75" y2="56.75"/><line class="cls-1" x1="0.75" y1="63.75" x2="14.75" y2="63.75"/><line class="cls-1" x1="0.75" y1="70.75" x2="7.75" y2="70.75"/><line class="cls-1" x1="0.75" y1="77.75" x2="7.75" y2="77.75"/><line class="cls-1" x1="21.75" y1="63.75" x2="35.75" y2="63.75"/><line class="cls-1" x1="21.75" y1="70.75" x2="28.75" y2="70.75"/><line class="cls-1" x1="21.75" y1="77.75" x2="28.75" y2="77.75"/><line class="cls-1" x1="42.75" y1="63.75" x2="56.75" y2="63.75"/><line class="cls-1" x1="42.75" y1="70.75" x2="49.75" y2="70.75"/><line class="cls-1" x1="42.75" y1="77.75" x2="49.75" y2="77.75"/><line class="cls-1" x1="63.75" y1="63.75" x2="77.75" y2="63.75"/><line class="cls-1" x1="63.75" y1="70.75" x2="70.75" y2="70.75"/><line class="cls-1" x1="63.75" y1="77.75" x2="70.75" y2="77.75"/><line class="cls-1" x1="84.75" y1="63.75" x2="98.75" y2="63.75"/><line class="cls-1" x1="84.75" y1="70.75" x2="91.75" y2="70.75"/><line class="cls-1" x1="84.75" y1="77.75" x2="91.75" y2="77.75"/><line class="cls-1" x1="105.75" y1="63.75" x2="119.75" y2="63.75"/><line class="cls-1" x1="105.75" y1="70.75" x2="112.75" y2="70.75"/><line class="cls-1" x1="105.75" y1="77.75" x2="112.75" y2="77.75"/><line class="cls-1" x1="0.75" y1="84.75" x2="14.75" y2="84.75"/><line class="cls-1" x1="0.75" y1="91.75" x2="7.75" y2="91.75"/><line class="cls-1" x1="0.75" y1="98.75" x2="7.75" y2="98.75"/><line class="cls-1" x1="21.75" y1="84.75" x2="35.75" y2="84.75"/><line class="cls-1" x1="21.75" y1="91.75" x2="28.75" y2="91.75"/><line class="cls-1" x1="21.75" y1="98.75" x2="28.75" y2="98.75"/><line class="cls-1" x1="42.75" y1="84.75" x2="56.75" y2="84.75"/><line class="cls-1" x1="42.75" y1="91.75" x2="49.75" y2="91.75"/><line class="cls-1" x1="42.75" y1="98.75" x2="49.75" y2="98.75"/><line class="cls-1" x1="63.75" y1="84.75" x2="77.75" y2="84.75"/><line class="cls-1" x1="63.75" y1="91.75" x2="70.75" y2="91.75"/><line class="cls-1" x1="63.75" y1="98.75" x2="70.75" y2="98.75"/><line class="cls-1" x1="84.75" y1="84.75" x2="98.75" y2="84.75"/><line class="cls-1" x1="84.75" y1="91.75" x2="91.75" y2="91.75"/><line class="cls-1" x1="84.75" y1="98.75" x2="91.75" y2="98.75"/><line class="cls-1" x1="105.75" y1="84.75" x2="119.75" y2="84.75"/><line class="cls-1" x1="105.75" y1="91.75" x2="112.75" y2="91.75"/><line class="cls-1" x1="105.75" y1="98.75" x2="112.75" y2="98.75"/><line class="cls-1" x1="0.75" y1="105.75" x2="14.75" y2="105.75"/><line class="cls-1" x1="0.75" y1="112.75" x2="7.75" y2="112.75"/><line class="cls-1" x1="0.75" y1="119.75" x2="7.75" y2="119.75"/><line class="cls-1" x1="21.75" y1="105.75" x2="35.75" y2="105.75"/><line class="cls-1" x1="21.75" y1="112.75" x2="28.75" y2="112.75"/><line class="cls-1" x1="21.75" y1="119.75" x2="28.75" y2="119.75"/><line class="cls-1" x1="42.75" y1="105.75" x2="56.75" y2="105.75"/><line class="cls-1" x1="42.75" y1="112.75" x2="49.75" y2="112.75"/><line class="cls-1" x1="42.75" y1="119.75" x2="49.75" y2="119.75"/><line class="cls-1" x1="63.75" y1="105.75" x2="77.75" y2="105.75"/><line class="cls-1" x1="63.75" y1="112.75" x2="70.75" y2="112.75"/><line class="cls-1" x1="63.75" y1="119.75" x2="70.75" y2="119.75"/><line class="cls-1" x1="84.75" y1="105.75" x2="98.75" y2="105.75"/><line class="cls-1" x1="84.75" y1="112.75" x2="91.75" y2="112.75"/><line class="cls-1" x1="84.75" y1="119.75" x2="91.75" y2="119.75"/><line class="cls-1" x1="105.75" y1="105.75" x2="119.75" y2="105.75"/><line class="cls-1" x1="105.75" y1="112.75" x2="112.75" y2="112.75"/><line class="cls-1" x1="105.75" y1="119.75" x2="112.75" y2="119.75"/><line class="cls-1" x1="126.75" y1="0.75" x2="140.75" y2="0.75"/><line class="cls-1" x1="126.75" y1="7.75" x2="133.75" y2="7.75"/><line class="cls-1" x1="126.75" y1="14.75" x2="133.75" y2="14.75"/><line class="cls-1" x1="126.75" y1="21.75" x2="140.75" y2="21.75"/><line class="cls-1" x1="126.75" y1="28.75" x2="133.75" y2="28.75"/><line class="cls-1" x1="126.75" y1="35.75" x2="133.75" y2="35.75"/><line class="cls-1" x1="126.75" y1="42.75" x2="140.75" y2="42.75"/><line class="cls-1" x1="126.75" y1="49.75" x2="133.75" y2="49.75"/><line class="cls-1" x1="126.75" y1="56.75" x2="133.75" y2="56.75"/><line class="cls-1" x1="126.75" y1="63.75" x2="140.75" y2="63.75"/><line class="cls-1" x1="126.75" y1="70.75" x2="133.75" y2="70.75"/><line class="cls-1" x1="126.75" y1="77.75" x2="133.75" y2="77.75"/><line class="cls-1" x1="126.75" y1="84.75" x2="140.75" y2="84.75"/><line class="cls-1" x1="126.75" y1="91.75" x2="133.75" y2="91.75"/><line class="cls-1" x1="126.75" y1="98.75" x2="133.75" y2="98.75"/><line class="cls-1" x1="126.75" y1="105.75" x2="140.75" y2="105.75"/><line class="cls-1" x1="126.75" y1="112.75" x2="133.75" y2="112.75"/><line class="cls-1" x1="126.75" y1="119.75" x2="133.75" y2="119.75"/><line class="cls-1" x1="147.75" y1="0.75" x2="161.75" y2="0.75"/><line class="cls-1" x1="147.75" y1="7.75" x2="154.75" y2="7.75"/><line class="cls-1" x1="147.75" y1="14.75" x2="154.75" y2="14.75"/><line class="cls-1" x1="147.75" y1="21.75" x2="161.75" y2="21.75"/><line class="cls-1" x1="147.75" y1="28.75" x2="154.75" y2="28.75"/><line class="cls-1" x1="147.75" y1="35.75" x2="154.75" y2="35.75"/><line class="cls-1" x1="147.75" y1="42.75" x2="161.75" y2="42.75"/><line class="cls-1" x1="147.75" y1="49.75" x2="154.75" y2="49.75"/><line class="cls-1" x1="147.75" y1="56.75" x2="154.75" y2="56.75"/><line class="cls-1" x1="147.75" y1="63.75" x2="161.75" y2="63.75"/><line class="cls-1" x1="147.75" y1="70.75" x2="154.75" y2="70.75"/><line class="cls-1" x1="147.75" y1="77.75" x2="154.75" y2="77.75"/><line class="cls-1" x1="147.75" y1="84.75" x2="161.75" y2="84.75"/><line class="cls-1" x1="147.75" y1="91.75" x2="154.75" y2="91.75"/><line class="cls-1" x1="147.75" y1="98.75" x2="154.75" y2="98.75"/><line class="cls-1" x1="147.75" y1="105.75" x2="161.75" y2="105.75"/><line class="cls-1" x1="147.75" y1="112.75" x2="154.75" y2="112.75"/><line class="cls-1" x1="147.75" y1="119.75" x2="154.75" y2="119.75"/><line class="cls-1" x1="0.75" y1="126.75" x2="14.75" y2="126.75"/><line class="cls-1" x1="0.75" y1="133.75" x2="7.75" y2="133.75"/><line class="cls-1" x1="0.75" y1="140.75" x2="7.75" y2="140.75"/><line class="cls-1" x1="21.75" y1="126.75" x2="35.75" y2="126.75"/><line class="cls-1" x1="21.75" y1="133.75" x2="28.75" y2="133.75"/><line class="cls-1" x1="21.75" y1="140.75" x2="28.75" y2="140.75"/><line class="cls-1" x1="42.75" y1="126.75" x2="56.75" y2="126.75"/><line class="cls-1" x1="42.75" y1="133.75" x2="49.75" y2="133.75"/><line class="cls-1" x1="42.75" y1="140.75" x2="49.75" y2="140.75"/><line class="cls-1" x1="63.75" y1="126.75" x2="77.75" y2="126.75"/><line class="cls-1" x1="63.75" y1="133.75" x2="70.75" y2="133.75"/><line class="cls-1" x1="63.75" y1="140.75" x2="70.75" y2="140.75"/><line class="cls-1" x1="84.75" y1="126.75" x2="98.75" y2="126.75"/><line class="cls-1" x1="84.75" y1="133.75" x2="91.75" y2="133.75"/><line class="cls-1" x1="84.75" y1="140.75" x2="91.75" y2="140.75"/><line class="cls-1" x1="105.75" y1="126.75" x2="119.75" y2="126.75"/><line class="cls-1" x1="105.75" y1="133.75" x2="112.75" y2="133.75"/><line class="cls-1" x1="105.75" y1="140.75" x2="112.75" y2="140.75"/><line class="cls-1" x1="126.75" y1="126.75" x2="140.75" y2="126.75"/><line class="cls-1" x1="126.75" y1="133.75" x2="133.75" y2="133.75"/><line class="cls-1" x1="126.75" y1="140.75" x2="133.75" y2="140.75"/><line class="cls-1" x1="147.75" y1="126.75" x2="161.75" y2="126.75"/><line class="cls-1" x1="147.75" y1="133.75" x2="154.75" y2="133.75"/><line class="cls-1" x1="147.75" y1="140.75" x2="154.75" y2="140.75"/><line class="cls-1" x1="0.75" y1="147.75" x2="14.75" y2="147.75"/><line class="cls-1" x1="0.75" y1="154.75" x2="7.75" y2="154.75"/><line class="cls-1" x1="0.75" y1="161.75" x2="7.75" y2="161.75"/><line class="cls-1" x1="21.75" y1="147.75" x2="35.75" y2="147.75"/><line class="cls-1" x1="21.75" y1="154.75" x2="28.75" y2="154.75"/><line class="cls-1" x1="21.75" y1="161.75" x2="28.75" y2="161.75"/><line class="cls-1" x1="42.75" y1="147.75" x2="56.75" y2="147.75"/><line class="cls-1" x1="42.75" y1="154.75" x2="49.75" y2="154.75"/><line class="cls-1" x1="42.75" y1="161.75" x2="49.75" y2="161.75"/><line class="cls-1" x1="63.75" y1="147.75" x2="77.75" y2="147.75"/><line class="cls-1" x1="63.75" y1="154.75" x2="70.75" y2="154.75"/><line class="cls-1" x1="63.75" y1="161.75" x2="70.75" y2="161.75"/><line class="cls-1" x1="84.75" y1="147.75" x2="98.75" y2="147.75"/><line class="cls-1" x1="84.75" y1="154.75" x2="91.75" y2="154.75"/><line class="cls-1" x1="84.75" y1="161.75" x2="91.75" y2="161.75"/><line class="cls-1" x1="105.75" y1="147.75" x2="119.75" y2="147.75"/><line class="cls-1" x1="105.75" y1="154.75" x2="112.75" y2="154.75"/><line class="cls-1" x1="105.75" y1="161.75" x2="112.75" y2="161.75"/><line class="cls-1" x1="126.75" y1="147.75" x2="140.75" y2="147.75"/><line class="cls-1" x1="126.75" y1="154.75" x2="133.75" y2="154.75"/><line class="cls-1" x1="126.75" y1="161.75" x2="133.75" y2="161.75"/><line class="cls-1" x1="147.75" y1="147.75" x2="161.75" y2="147.75"/><line class="cls-1" x1="147.75" y1="154.75" x2="154.75" y2="154.75"/><line class="cls-1" x1="147.75" y1="161.75" x2="154.75" y2="161.75"/></svg>