<svg id="Pattern" xmlns="http://www.w3.org/2000/svg" viewBox="0 0 116.61 115.12"><defs><style>.cls-1{fill:none;stroke:#5291dd;stroke-miterlimit:10;}</style></defs><title>Novartis_Open_Carbon_Blue_120px</title><g id="_Group_" data-name="&lt;Group&gt;"><polyline id="_Path_" data-name="&lt;Path&gt;" class="cls-1" points="11.36 0.43 5.81 3.57 5.81 9.99"/><line id="_Path_2" data-name="&lt;Path&gt;" class="cls-1" x1="5.81" y1="3.64" x2="0.25" y2="0.44"/></g><g id="_Group_2" data-name="&lt;Group&gt;"><polyline id="_Path_3" data-name="&lt;Path&gt;" class="cls-1" points="26.36 0.43 20.81 3.57 20.81 9.99"/><line id="_Path_4" data-name="&lt;Path&gt;" class="cls-1" x1="20.81" y1="3.64" x2="15.25" y2="0.44"/></g><g id="_Group_3" data-name="&lt;Group&gt;"><polyline id="_Path_5" data-name="&lt;Path&gt;" class="cls-1" points="30.25 9.69 35.81 6.55 35.81 0.14"/><line id="_Path_6" data-name="&lt;Path&gt;" class="cls-1" x1="35.81" y1="6.48" x2="41.36" y2="9.69"/></g><g id="_Group_4" data-name="&lt;Group&gt;"><polyline id="_Path_7" data-name="&lt;Path&gt;" class="cls-1" points="56.36 0.43 50.81 3.57 50.81 9.99"/><line id="_Path_8" data-name="&lt;Path&gt;" class="cls-1" x1="50.81" y1="3.64" x2="45.25" y2="0.44"/></g><g id="_Group_5" data-name="&lt;Group&gt;"><polyline id="_Path_9" data-name="&lt;Path&gt;" class="cls-1" points="71.36 0.43 65.81 3.57 65.81 9.99"/><line id="_Path_10" data-name="&lt;Path&gt;" class="cls-1" x1="65.81" y1="3.64" x2="60.25" y2="0.44"/></g><g id="_Group_6" data-name="&lt;Group&gt;"><polyline id="_Path_11" data-name="&lt;Path&gt;" class="cls-1" points="75.25 9.69 80.81 6.55 80.81 0.14"/><line id="_Path_12" data-name="&lt;Path&gt;" class="cls-1" x1="80.81" y1="6.48" x2="86.36" y2="9.69"/></g><g id="_Group_7" data-name="&lt;Group&gt;"><polyline id="_Path_13" data-name="&lt;Path&gt;" class="cls-1" points="101.36 0.43 95.81 3.57 95.81 9.99"/><line id="_Path_14" data-name="&lt;Path&gt;" class="cls-1" x1="95.81" y1="3.64" x2="90.25" y2="0.44"/></g><g id="_Group_8" data-name="&lt;Group&gt;"><polyline id="_Path_15" data-name="&lt;Path&gt;" class="cls-1" points="116.36 0.43 110.81 3.57 110.81 9.99"/><line id="_Path_16" data-name="&lt;Path&gt;" class="cls-1" x1="110.81" y1="3.64" x2="105.25" y2="0.44"/></g><g id="_Group_9" data-name="&lt;Group&gt;"><polyline id="_Path_17" data-name="&lt;Path&gt;" class="cls-1" points="0.25 24.69 5.81 21.55 5.81 15.14"/><line id="_Path_18" data-name="&lt;Path&gt;" class="cls-1" x1="5.81" y1="21.48" x2="11.36" y2="24.69"/></g><g id="_Group_10" data-name="&lt;Group&gt;"><polyline id="_Path_19" data-name="&lt;Path&gt;" class="cls-1" points="26.36 15.44 20.81 18.57 20.81 24.99"/><line id="_Path_20" data-name="&lt;Path&gt;" class="cls-1" x1="20.81" y1="18.64" x2="15.25" y2="15.44"/></g><g id="_Group_11" data-name="&lt;Group&gt;"><polyline id="_Path_21" data-name="&lt;Path&gt;" class="cls-1" points="41.36 15.44 35.81 18.57 35.81 24.99"/><line id="_Path_22" data-name="&lt;Path&gt;" class="cls-1" x1="35.81" y1="18.64" x2="30.25" y2="15.44"/></g><g id="_Group_12" data-name="&lt;Group&gt;"><polyline id="_Path_23" data-name="&lt;Path&gt;" class="cls-1" points="45.25 24.69 50.81 21.55 50.81 15.14"/><line id="_Path_24" data-name="&lt;Path&gt;" class="cls-1" x1="50.81" y1="21.48" x2="56.36" y2="24.69"/></g><g id="_Group_13" data-name="&lt;Group&gt;"><polyline id="_Path_25" data-name="&lt;Path&gt;" class="cls-1" points="71.36 15.44 65.81 18.57 65.81 24.99"/><line id="_Path_26" data-name="&lt;Path&gt;" class="cls-1" x1="65.81" y1="18.64" x2="60.25" y2="15.44"/></g><g id="_Group_14" data-name="&lt;Group&gt;"><polyline id="_Path_27" data-name="&lt;Path&gt;" class="cls-1" points="86.36 15.44 80.81 18.57 80.81 24.99"/><line id="_Path_28" data-name="&lt;Path&gt;" class="cls-1" x1="80.81" y1="18.64" x2="75.25" y2="15.44"/></g><g id="_Group_15" data-name="&lt;Group&gt;"><polyline id="_Path_29" data-name="&lt;Path&gt;" class="cls-1" points="90.25 24.69 95.81 21.55 95.81 15.14"/><line id="_Path_30" data-name="&lt;Path&gt;" class="cls-1" x1="95.81" y1="21.48" x2="101.36" y2="24.69"/></g><g id="_Group_16" data-name="&lt;Group&gt;"><polyline id="_Path_31" data-name="&lt;Path&gt;" class="cls-1" points="116.36 15.44 110.81 18.57 110.81 24.99"/><line id="_Path_32" data-name="&lt;Path&gt;" class="cls-1" x1="110.81" y1="18.64" x2="105.25" y2="15.44"/></g><g id="_Group_17" data-name="&lt;Group&gt;"><polyline id="_Path_33" data-name="&lt;Path&gt;" class="cls-1" points="11.36 30.44 5.81 33.57 5.81 39.99"/><line id="_Path_34" data-name="&lt;Path&gt;" class="cls-1" x1="5.81" y1="33.64" x2="0.25" y2="30.44"/></g><g id="_Group_18" data-name="&lt;Group&gt;"><polyline id="_Path_35" data-name="&lt;Path&gt;" class="cls-1" points="26.36 30.44 20.81 33.57 20.81 39.99"/><line id="_Path_36" data-name="&lt;Path&gt;" class="cls-1" x1="20.81" y1="33.64" x2="15.25" y2="30.44"/></g><g id="_Group_19" data-name="&lt;Group&gt;"><polyline id="_Path_37" data-name="&lt;Path&gt;" class="cls-1" points="30.25 39.69 35.81 36.55 35.81 30.14"/><line id="_Path_38" data-name="&lt;Path&gt;" class="cls-1" x1="35.81" y1="36.48" x2="41.36" y2="39.69"/></g><g id="_Group_20" data-name="&lt;Group&gt;"><polyline id="_Path_39" data-name="&lt;Path&gt;" class="cls-1" points="56.36 30.44 50.81 33.57 50.81 39.99"/><line id="_Path_40" data-name="&lt;Path&gt;" class="cls-1" x1="50.81" y1="33.64" x2="45.25" y2="30.44"/></g><g id="_Group_21" data-name="&lt;Group&gt;"><polyline id="_Path_41" data-name="&lt;Path&gt;" class="cls-1" points="71.36 30.44 65.81 33.57 65.81 39.99"/><line id="_Path_42" data-name="&lt;Path&gt;" class="cls-1" x1="65.81" y1="33.64" x2="60.25" y2="30.44"/></g><g id="_Group_22" data-name="&lt;Group&gt;"><polyline id="_Path_43" data-name="&lt;Path&gt;" class="cls-1" points="75.25 39.69 80.81 36.55 80.81 30.14"/><line id="_Path_44" data-name="&lt;Path&gt;" class="cls-1" x1="80.81" y1="36.48" x2="86.36" y2="39.69"/></g><g id="_Group_23" data-name="&lt;Group&gt;"><polyline id="_Path_45" data-name="&lt;Path&gt;" class="cls-1" points="101.36 30.44 95.81 33.57 95.81 39.99"/><line id="_Path_46" data-name="&lt;Path&gt;" class="cls-1" x1="95.81" y1="33.64" x2="90.25" y2="30.44"/></g><g id="_Group_24" data-name="&lt;Group&gt;"><polyline id="_Path_47" data-name="&lt;Path&gt;" class="cls-1" points="116.36 30.44 110.81 33.57 110.81 39.99"/><line id="_Path_48" data-name="&lt;Path&gt;" class="cls-1" x1="110.81" y1="33.64" x2="105.25" y2="30.44"/></g><g id="_Group_25" data-name="&lt;Group&gt;"><polyline id="_Path_49" data-name="&lt;Path&gt;" class="cls-1" points="0.25 54.69 5.81 51.55 5.81 45.14"/><line id="_Path_50" data-name="&lt;Path&gt;" class="cls-1" x1="5.81" y1="51.48" x2="11.36" y2="54.69"/></g><g id="_Group_26" data-name="&lt;Group&gt;"><polyline id="_Path_51" data-name="&lt;Path&gt;" class="cls-1" points="26.36 45.44 20.81 48.57 20.81 54.99"/><line id="_Path_52" data-name="&lt;Path&gt;" class="cls-1" x1="20.81" y1="48.64" x2="15.25" y2="45.44"/></g><g id="_Group_27" data-name="&lt;Group&gt;"><polyline id="_Path_53" data-name="&lt;Path&gt;" class="cls-1" points="41.36 45.44 35.81 48.57 35.81 54.99"/><line id="_Path_54" data-name="&lt;Path&gt;" class="cls-1" x1="35.81" y1="48.64" x2="30.25" y2="45.44"/></g><g id="_Group_28" data-name="&lt;Group&gt;"><polyline id="_Path_55" data-name="&lt;Path&gt;" class="cls-1" points="45.25 54.69 50.81 51.55 50.81 45.14"/><line id="_Path_56" data-name="&lt;Path&gt;" class="cls-1" x1="50.81" y1="51.48" x2="56.36" y2="54.69"/></g><g id="_Group_29" data-name="&lt;Group&gt;"><polyline id="_Path_57" data-name="&lt;Path&gt;" class="cls-1" points="71.36 45.44 65.81 48.57 65.81 54.99"/><line id="_Path_58" data-name="&lt;Path&gt;" class="cls-1" x1="65.81" y1="48.64" x2="60.25" y2="45.44"/></g><g id="_Group_30" data-name="&lt;Group&gt;"><polyline id="_Path_59" data-name="&lt;Path&gt;" class="cls-1" points="86.36 45.44 80.81 48.57 80.81 54.99"/><line id="_Path_60" data-name="&lt;Path&gt;" class="cls-1" x1="80.81" y1="48.64" x2="75.25" y2="45.44"/></g><g id="_Group_31" data-name="&lt;Group&gt;"><polyline id="_Path_61" data-name="&lt;Path&gt;" class="cls-1" points="90.25 54.69 95.81 51.55 95.81 45.14"/><line id="_Path_62" data-name="&lt;Path&gt;" class="cls-1" x1="95.81" y1="51.48" x2="101.36" y2="54.69"/></g><g id="_Group_32" data-name="&lt;Group&gt;"><polyline id="_Path_63" data-name="&lt;Path&gt;" class="cls-1" points="116.36 45.44 110.81 48.57 110.81 54.99"/><line id="_Path_64" data-name="&lt;Path&gt;" class="cls-1" x1="110.81" y1="48.64" x2="105.25" y2="45.44"/></g><g id="_Group_33" data-name="&lt;Group&gt;"><polyline id="_Path_65" data-name="&lt;Path&gt;" class="cls-1" points="11.36 60.44 5.81 63.57 5.81 69.99"/><line id="_Path_66" data-name="&lt;Path&gt;" class="cls-1" x1="5.81" y1="63.64" x2="0.25" y2="60.44"/></g><g id="_Group_34" data-name="&lt;Group&gt;"><polyline id="_Path_67" data-name="&lt;Path&gt;" class="cls-1" points="26.36 60.44 20.81 63.57 20.81 69.99"/><line id="_Path_68" data-name="&lt;Path&gt;" class="cls-1" x1="20.81" y1="63.64" x2="15.25" y2="60.44"/></g><g id="_Group_35" data-name="&lt;Group&gt;"><polyline id="_Path_69" data-name="&lt;Path&gt;" class="cls-1" points="30.25 69.69 35.81 66.55 35.81 60.14"/><line id="_Path_70" data-name="&lt;Path&gt;" class="cls-1" x1="35.81" y1="66.48" x2="41.36" y2="69.69"/></g><g id="_Group_36" data-name="&lt;Group&gt;"><polyline id="_Path_71" data-name="&lt;Path&gt;" class="cls-1" points="56.36 60.44 50.81 63.57 50.81 69.99"/><line id="_Path_72" data-name="&lt;Path&gt;" class="cls-1" x1="50.81" y1="63.64" x2="45.25" y2="60.44"/></g><g id="_Group_37" data-name="&lt;Group&gt;"><polyline id="_Path_73" data-name="&lt;Path&gt;" class="cls-1" points="71.36 60.44 65.81 63.57 65.81 69.99"/><line id="_Path_74" data-name="&lt;Path&gt;" class="cls-1" x1="65.81" y1="63.64" x2="60.25" y2="60.44"/></g><g id="_Group_38" data-name="&lt;Group&gt;"><polyline id="_Path_75" data-name="&lt;Path&gt;" class="cls-1" points="75.25 69.69 80.81 66.55 80.81 60.14"/><line id="_Path_76" data-name="&lt;Path&gt;" class="cls-1" x1="80.81" y1="66.48" x2="86.36" y2="69.69"/></g><g id="_Group_39" data-name="&lt;Group&gt;"><polyline id="_Path_77" data-name="&lt;Path&gt;" class="cls-1" points="101.36 60.44 95.81 63.57 95.81 69.99"/><line id="_Path_78" data-name="&lt;Path&gt;" class="cls-1" x1="95.81" y1="63.64" x2="90.25" y2="60.44"/></g><g id="_Group_40" data-name="&lt;Group&gt;"><polyline id="_Path_79" data-name="&lt;Path&gt;" class="cls-1" points="116.36 60.44 110.81 63.57 110.81 69.99"/><line id="_Path_80" data-name="&lt;Path&gt;" class="cls-1" x1="110.81" y1="63.64" x2="105.25" y2="60.44"/></g><g id="_Group_41" data-name="&lt;Group&gt;"><polyline id="_Path_81" data-name="&lt;Path&gt;" class="cls-1" points="0.25 84.69 5.81 81.55 5.81 75.14"/><line id="_Path_82" data-name="&lt;Path&gt;" class="cls-1" x1="5.81" y1="81.48" x2="11.36" y2="84.69"/></g><g id="_Group_42" data-name="&lt;Group&gt;"><polyline id="_Path_83" data-name="&lt;Path&gt;" class="cls-1" points="26.36 75.44 20.81 78.57 20.81 84.99"/><line id="_Path_84" data-name="&lt;Path&gt;" class="cls-1" x1="20.81" y1="78.64" x2="15.25" y2="75.44"/></g><g id="_Group_43" data-name="&lt;Group&gt;"><polyline id="_Path_85" data-name="&lt;Path&gt;" class="cls-1" points="41.36 75.44 35.81 78.57 35.81 84.99"/><line id="_Path_86" data-name="&lt;Path&gt;" class="cls-1" x1="35.81" y1="78.64" x2="30.25" y2="75.44"/></g><g id="_Group_44" data-name="&lt;Group&gt;"><polyline id="_Path_87" data-name="&lt;Path&gt;" class="cls-1" points="45.25 84.69 50.81 81.55 50.81 75.14"/><line id="_Path_88" data-name="&lt;Path&gt;" class="cls-1" x1="50.81" y1="81.48" x2="56.36" y2="84.69"/></g><g id="_Group_45" data-name="&lt;Group&gt;"><polyline id="_Path_89" data-name="&lt;Path&gt;" class="cls-1" points="71.36 75.44 65.81 78.57 65.81 84.99"/><line id="_Path_90" data-name="&lt;Path&gt;" class="cls-1" x1="65.81" y1="78.64" x2="60.25" y2="75.44"/></g><g id="_Group_46" data-name="&lt;Group&gt;"><polyline id="_Path_91" data-name="&lt;Path&gt;" class="cls-1" points="86.36 75.44 80.81 78.57 80.81 84.99"/><line id="_Path_92" data-name="&lt;Path&gt;" class="cls-1" x1="80.81" y1="78.64" x2="75.25" y2="75.44"/></g><g id="_Group_47" data-name="&lt;Group&gt;"><polyline id="_Path_93" data-name="&lt;Path&gt;" class="cls-1" points="90.25 84.69 95.81 81.55 95.81 75.14"/><line id="_Path_94" data-name="&lt;Path&gt;" class="cls-1" x1="95.81" y1="81.48" x2="101.36" y2="84.69"/></g><g id="_Group_48" data-name="&lt;Group&gt;"><polyline id="_Path_95" data-name="&lt;Path&gt;" class="cls-1" points="116.36 75.44 110.81 78.57 110.81 84.99"/><line id="_Path_96" data-name="&lt;Path&gt;" class="cls-1" x1="110.81" y1="78.64" x2="105.25" y2="75.44"/></g><g id="_Group_49" data-name="&lt;Group&gt;"><polyline id="_Path_97" data-name="&lt;Path&gt;" class="cls-1" points="11.36 90.44 5.81 93.57 5.81 99.99"/><line id="_Path_98" data-name="&lt;Path&gt;" class="cls-1" x1="5.81" y1="93.64" x2="0.25" y2="90.44"/></g><g id="_Group_50" data-name="&lt;Group&gt;"><polyline id="_Path_99" data-name="&lt;Path&gt;" class="cls-1" points="26.36 90.44 20.81 93.57 20.81 99.99"/><line id="_Path_100" data-name="&lt;Path&gt;" class="cls-1" x1="20.81" y1="93.64" x2="15.25" y2="90.44"/></g><g id="_Group_51" data-name="&lt;Group&gt;"><polyline id="_Path_101" data-name="&lt;Path&gt;" class="cls-1" points="30.25 99.69 35.81 96.55 35.81 90.14"/><line id="_Path_102" data-name="&lt;Path&gt;" class="cls-1" x1="35.81" y1="96.48" x2="41.36" y2="99.69"/></g><g id="_Group_52" data-name="&lt;Group&gt;"><polyline id="_Path_103" data-name="&lt;Path&gt;" class="cls-1" points="56.36 90.44 50.81 93.57 50.81 99.99"/><line id="_Path_104" data-name="&lt;Path&gt;" class="cls-1" x1="50.81" y1="93.64" x2="45.25" y2="90.44"/></g><g id="_Group_53" data-name="&lt;Group&gt;"><polyline id="_Path_105" data-name="&lt;Path&gt;" class="cls-1" points="71.36 90.44 65.81 93.57 65.81 99.99"/><line id="_Path_106" data-name="&lt;Path&gt;" class="cls-1" x1="65.81" y1="93.64" x2="60.25" y2="90.44"/></g><g id="_Group_54" data-name="&lt;Group&gt;"><polyline id="_Path_107" data-name="&lt;Path&gt;" class="cls-1" points="75.25 99.69 80.81 96.55 80.81 90.14"/><line id="_Path_108" data-name="&lt;Path&gt;" class="cls-1" x1="80.81" y1="96.48" x2="86.36" y2="99.69"/></g><g id="_Group_55" data-name="&lt;Group&gt;"><polyline id="_Path_109" data-name="&lt;Path&gt;" class="cls-1" points="101.36 90.44 95.81 93.57 95.81 99.99"/><line id="_Path_110" data-name="&lt;Path&gt;" class="cls-1" x1="95.81" y1="93.64" x2="90.25" y2="90.44"/></g><g id="_Group_56" data-name="&lt;Group&gt;"><polyline id="_Path_111" data-name="&lt;Path&gt;" class="cls-1" points="116.36 90.44 110.81 93.57 110.81 99.99"/><line id="_Path_112" data-name="&lt;Path&gt;" class="cls-1" x1="110.81" y1="93.64" x2="105.25" y2="90.44"/></g><g id="_Group_57" data-name="&lt;Group&gt;"><polyline id="_Path_113" data-name="&lt;Path&gt;" class="cls-1" points="0.25 114.69 5.81 111.55 5.81 105.14"/><line id="_Path_114" data-name="&lt;Path&gt;" class="cls-1" x1="5.81" y1="111.48" x2="11.36" y2="114.69"/></g><g id="_Group_58" data-name="&lt;Group&gt;"><polyline id="_Path_115" data-name="&lt;Path&gt;" class="cls-1" points="26.36 105.44 20.81 108.57 20.81 114.99"/><line id="_Path_116" data-name="&lt;Path&gt;" class="cls-1" x1="20.81" y1="108.64" x2="15.25" y2="105.44"/></g><g id="_Group_59" data-name="&lt;Group&gt;"><polyline id="_Path_117" data-name="&lt;Path&gt;" class="cls-1" points="41.36 105.44 35.81 108.57 35.81 114.99"/><line id="_Path_118" data-name="&lt;Path&gt;" class="cls-1" x1="35.81" y1="108.64" x2="30.25" y2="105.44"/></g><g id="_Group_60" data-name="&lt;Group&gt;"><polyline id="_Path_119" data-name="&lt;Path&gt;" class="cls-1" points="45.25 114.69 50.81 111.55 50.81 105.14"/><line id="_Path_120" data-name="&lt;Path&gt;" class="cls-1" x1="50.81" y1="111.48" x2="56.36" y2="114.69"/></g><g id="_Group_61" data-name="&lt;Group&gt;"><polyline id="_Path_121" data-name="&lt;Path&gt;" class="cls-1" points="71.36 105.44 65.81 108.57 65.81 114.99"/><line id="_Path_122" data-name="&lt;Path&gt;" class="cls-1" x1="65.81" y1="108.64" x2="60.25" y2="105.44"/></g><g id="_Group_62" data-name="&lt;Group&gt;"><polyline id="_Path_123" data-name="&lt;Path&gt;" class="cls-1" points="86.36 105.44 80.81 108.57 80.81 114.99"/><line id="_Path_124" data-name="&lt;Path&gt;" class="cls-1" x1="80.81" y1="108.64" x2="75.25" y2="105.44"/></g><g id="_Group_63" data-name="&lt;Group&gt;"><polyline id="_Path_125" data-name="&lt;Path&gt;" class="cls-1" points="90.25 114.69 95.81 111.55 95.81 105.14"/><line id="_Path_126" data-name="&lt;Path&gt;" class="cls-1" x1="95.81" y1="111.48" x2="101.36" y2="114.69"/></g><g id="_Group_64" data-name="&lt;Group&gt;"><polyline id="_Path_127" data-name="&lt;Path&gt;" class="cls-1" points="116.36 105.44 110.81 108.57 110.81 114.99"/><line id="_Path_128" data-name="&lt;Path&gt;" class="cls-1" x1="110.81" y1="108.64" x2="105.25" y2="105.44"/></g></svg>