<?xml version="1.0" encoding="utf-8"?>
<!-- Generator: Adobe Illustrator 23.0.1, SVG Export Plug-In . SVG Version: 6.00 Build 0)  -->
<svg version="1.1" id="Layer_2" xmlns="http://www.w3.org/2000/svg" xmlns:xlink="http://www.w3.org/1999/xlink" x="0px" y="0px"
	 viewBox="0 0 24 24" style="enable-background:new 0 0 24 24;" xml:space="preserve">
<g>
	<path d="M7.8,6.4H3c-0.4,0-0.7-0.3-0.7-0.7S2.6,5.1,3,5.1h4.9c-0.4,0-0.7,0.3-0.7,0.7S7.4,6.4,7.8,6.4z"/>
	<path d="M21.7,5.7c0,0.4-0.3,0.7-0.7,0.7H7.8c0.4,0,0.7-0.3,0.7-0.7S8.2,5.1,7.8,5.1H21C21.4,5.1,21.7,5.4,21.7,5.7z"/>
	<path d="M16.2,12.7H3c-0.4,0-0.7-0.3-0.7-0.7c0-0.4,0.3-0.7,0.7-0.7h13.2c-0.4,0-0.7,0.3-0.7,0.7C15.5,12.4,15.8,12.7,16.2,12.7z"
		/>
	<path d="M21.7,12c0,0.4-0.3,0.7-0.7,0.7h-4.9c0.4,0,0.7-0.3,0.7-0.7c0-0.4-0.3-0.7-0.7-0.7H21C21.4,11.3,21.7,11.6,21.7,12z"/>
	<path d="M7.8,18.9H3c-0.4,0-0.7-0.3-0.7-0.7c0-0.4,0.3-0.7,0.7-0.7h4.9c-0.4,0-0.7,0.3-0.7,0.7C7.1,18.6,7.4,18.9,7.8,18.9z"/>
	<path d="M21.7,18.3c0,0.4-0.3,0.7-0.7,0.7H7.8c0.4,0,0.7-0.3,0.7-0.7c0-0.4-0.3-0.7-0.7-0.7H21C21.4,17.6,21.7,17.9,21.7,18.3z"/>
	<path d="M9,17.6c-0.4-0.7-1.2-0.9-1.9-0.5c-0.7,0.4-0.9,1.2-0.5,1.9c0.4,0.7,1.2,0.9,1.9,0.5c0.4-0.2,0.7-0.7,0.7-1.2
		C9.2,18,9.2,17.8,9,17.6z M7.1,18.3c0-0.4,0.3-0.7,0.7-0.7c0.4,0,0.7,0.3,0.7,0.7c0,0.4-0.3,0.7-0.7,0.7
		C7.4,18.9,7.1,18.6,7.1,18.3z"/>
	<path d="M9.8,17.6c-0.4-1.1-1.6-1.6-2.7-1.2c-0.6,0.2-1,0.7-1.2,1.2c-0.2,0.4-0.2,0.9,0,1.4c0.4,1.1,1.6,1.6,2.7,1.2
		c0.6-0.2,1-0.7,1.2-1.2C10,18.5,10,18,9.8,17.6z M8.5,18.3c0,0.4-0.3,0.7-0.7,0.7c-0.4,0-0.7-0.3-0.7-0.7c0-0.4,0.3-0.7,0.7-0.7
		C8.2,17.6,8.5,17.9,8.5,18.3z"/>
	<path d="M17.4,11.3c-0.4-0.7-1.2-0.9-1.9-0.5c-0.7,0.4-0.9,1.2-0.5,1.9c0.4,0.7,1.2,0.9,1.9,0.5c0.4-0.2,0.7-0.7,0.7-1.2
		C17.6,11.8,17.5,11.5,17.4,11.3z M15.5,12c0-0.4,0.3-0.7,0.7-0.7c0.4,0,0.7,0.3,0.7,0.7c0,0.4-0.3,0.7-0.7,0.7
		C15.8,12.7,15.5,12.4,15.5,12z"/>
	<path d="M18.1,11.3c-0.4-1.1-1.6-1.6-2.7-1.2c-0.6,0.2-1,0.7-1.2,1.2c-0.2,0.4-0.2,0.9,0,1.4c0.4,1.1,1.6,1.6,2.7,1.2
		c0.6-0.2,1-0.7,1.2-1.2C18.3,12.2,18.3,11.8,18.1,11.3z M16.9,12c0,0.4-0.3,0.7-0.7,0.7c-0.4,0-0.7-0.3-0.7-0.7
		c0-0.4,0.3-0.7,0.7-0.7C16.6,11.3,16.9,11.6,16.9,12z"/>
	<path d="M9,5.1C8.6,4.4,7.8,4.2,7.1,4.6C6.5,4.9,6.2,5.8,6.6,6.4S7.9,7.3,8.5,7C9,6.7,9.2,6.2,9.2,5.7C9.2,5.5,9.2,5.3,9,5.1z
		 M7.1,5.7c0-0.4,0.3-0.7,0.7-0.7c0.4,0,0.7,0.3,0.7,0.7S8.2,6.4,7.8,6.4C7.4,6.4,7.1,6.1,7.1,5.7z"/>
	<path d="M9.8,5.1C9.4,4,8.2,3.4,7.1,3.8C6.5,4,6.1,4.5,5.9,5.1C5.7,5.5,5.7,6,5.9,6.4c0.4,1.1,1.6,1.6,2.7,1.2
		c0.6-0.2,1-0.7,1.2-1.2C10,6,10,5.5,9.8,5.1z M8.5,5.7c0,0.4-0.3,0.7-0.7,0.7c-0.4,0-0.7-0.3-0.7-0.7s0.3-0.7,0.7-0.7
		C8.2,5.1,8.5,5.4,8.5,5.7z"/>
</g>
</svg>
