<svg xmlns="http://www.w3.org/2000/svg" viewBox="0 0 24 40" x="0px" y="0px">
<g><path d="M10,8H3A1,1,0,0,1,3,6h7a1,1,0,0,0,0,2Z"/><path d="M30,7a1,1,0,0,1-1,1H10a1,1,0,0,0,0-2H29A1,1,0,0,1,30,7Z"/><path d="M22,17H3a1,1,0,0,1,0-2H22a1,1,0,0,0,0,2Z"/><path d="M30,16a1,1,0,0,1-1,1H22a1,1,0,0,0,0-2h7A1,1,0,0,1,30,16Z"/><path d="M10,26H3a1,1,0,0,1,0-2h7a1,1,0,0,0,0,2Z"/><path d="M30,25a1,1,0,0,1-1,1H10a1,1,0,0,0,0-2H29A1,1,0,0,1,30,25Z"/><path d="M11.73,24A2,2,0,1,0,12,25,2,2,0,0,0,11.73,24ZM9,25a1,1,0,1,1,1,1A1,1,0,0,1,9,25Z"/><path d="M12.82,24a3,3,0,0,0-5.64,0,2.87,2.87,0,0,0,0,2,3,3,0,0,0,5.64,0,2.87,2.87,0,0,0,0-2ZM11,25a1,1,0,1,1-1-1A1,1,0,0,1,11,25Z"/><path d="M23.73,15A2,2,0,1,0,24,16,2,2,0,0,0,23.73,15ZM21,16a1,1,0,1,1,1,1A1,1,0,0,1,21,16Z"/><path d="M24.82,15a3,3,0,0,0-5.64,0,2.87,2.87,0,0,0,0,2,3,3,0,0,0,5.64,0,2.87,2.87,0,0,0,0-2ZM23,16a1,1,0,1,1-1-1A1,1,0,0,1,23,16Z"/><path d="M11.73,6A2,2,0,1,0,12,7,2,2,0,0,0,11.73,6ZM9,7a1,1,0,1,1,1,1A1,1,0,0,1,9,7Z"/><path d="M12.82,6A3,3,0,0,0,7.18,6a2.87,2.87,0,0,0,0,2,3,3,0,0,0,5.64,0,2.87,2.87,0,0,0,0-2ZM11,7a1,1,0,1,1-1-1A1,1,0,0,1,11,7Z"/></g></svg>