<?xml version="1.0" encoding="utf-8"?>
<!-- Generator: Adobe Illustrator 23.0.1, SVG Export Plug-In . SVG Version: 6.00 Build 0)  -->
<svg version="1.1" id="Pattern" xmlns="http://www.w3.org/2000/svg" xmlns:xlink="http://www.w3.org/1999/xlink" x="0px" y="0px"
	 viewBox="0 0 168 168" style="enable-background:new 0 0 168 168;" xml:space="preserve">
<style type="text/css">
	.st0{fill:none;stroke:#F58144;stroke-width:1.5;stroke-miterlimit:10;}
</style>
<title>Novartis_Open_Chromosome_Sienna_168px</title>
<line id="_Path_" class="st0" x1="24.5" y1="150.4" x2="38.5" y2="164.4"/>
<line id="_Path_2" class="st0" x1="38.5" y1="150.4" x2="24.5" y2="164.4"/>
<line id="_Path_3" class="st0" x1="66.5" y1="150.4" x2="80.5" y2="164.4"/>
<line id="_Path_4" class="st0" x1="80.5" y1="150.4" x2="66.5" y2="164.4"/>
<polyline id="_Path_5" class="st0" points="59.5,164.4 52.5,157.4 45.5,164.4 "/>
<line id="_Path_6" class="st0" x1="66.5" y1="122.6" x2="80.5" y2="108.6"/>
<line id="_Path_7" class="st0" x1="66.5" y1="108.6" x2="80.5" y2="122.6"/>
<line id="_Path_8" class="st0" x1="66.5" y1="143.5" x2="80.5" y2="129.5"/>
<line id="_Path_9" class="st0" x1="66.5" y1="129.5" x2="80.5" y2="143.5"/>
<line id="_Path_10" class="st0" x1="45.5" y1="143.5" x2="59.5" y2="129.5"/>
<line id="_Path_11" class="st0" x1="45.5" y1="129.5" x2="59.5" y2="143.5"/>
<line id="_Path_12" class="st0" x1="3.5" y1="143.5" x2="17.5" y2="129.5"/>
<line id="_Path_13" class="st0" x1="3.5" y1="129.5" x2="17.5" y2="143.5"/>
<line id="_Path_14" class="st0" x1="45.5" y1="101.6" x2="59.5" y2="87.6"/>
<line id="_Path_15" class="st0" x1="45.5" y1="87.6" x2="59.5" y2="101.6"/>
<polyline id="_Path_16" class="st0" points="80.5,101.6 73.5,94.6 66.5,101.6 "/>
<line id="_Path_17" class="st0" x1="24.5" y1="101.6" x2="38.5" y2="87.6"/>
<line id="_Path_18" class="st0" x1="24.5" y1="87.6" x2="38.5" y2="101.6"/>
<line id="_Path_19" class="st0" x1="3.5" y1="101.6" x2="17.5" y2="87.6"/>
<line id="_Path_20" class="st0" x1="3.5" y1="87.6" x2="17.5" y2="101.6"/>
<polyline id="_Path_21" class="st0" points="59.5,122.6 52.5,115.6 45.5,122.6 "/>
<polyline id="_Path_22" class="st0" points="17.5,122.5 10.5,115.5 3.5,122.5 "/>
<polyline id="_Path_23" class="st0" points="17.5,164.4 10.5,157.4 3.5,164.4 "/>
<polyline id="_Path_24" class="st0" points="38.5,143.5 31.5,136.5 24.5,143.5 "/>
<line id="_Path_25" class="st0" x1="24.5" y1="122.6" x2="38.5" y2="108.6"/>
<line id="_Path_26" class="st0" x1="24.5" y1="108.6" x2="38.5" y2="122.6"/>
<line id="_Path_27" class="st0" x1="24.5" y1="66.4" x2="38.5" y2="80.4"/>
<line id="_Path_28" class="st0" x1="38.5" y1="66.4" x2="24.5" y2="80.4"/>
<line id="_Path_29" class="st0" x1="66.5" y1="66.4" x2="80.5" y2="80.4"/>
<line id="_Path_30" class="st0" x1="80.5" y1="66.4" x2="66.5" y2="80.4"/>
<polyline id="_Path_31" class="st0" points="59.5,80.4 52.5,73.4 45.5,80.4 "/>
<line id="_Path_32" class="st0" x1="66.5" y1="38.6" x2="80.5" y2="24.6"/>
<line id="_Path_33" class="st0" x1="66.5" y1="24.6" x2="80.5" y2="38.6"/>
<line id="_Path_34" class="st0" x1="66.5" y1="59.5" x2="80.5" y2="45.5"/>
<line id="_Path_35" class="st0" x1="66.5" y1="45.5" x2="80.5" y2="59.5"/>
<line id="_Path_36" class="st0" x1="45.5" y1="59.5" x2="59.5" y2="45.5"/>
<line id="_Path_37" class="st0" x1="45.5" y1="45.5" x2="59.5" y2="59.5"/>
<line id="_Path_38" class="st0" x1="3.5" y1="59.5" x2="17.5" y2="45.5"/>
<line id="_Path_39" class="st0" x1="3.5" y1="45.5" x2="17.5" y2="59.5"/>
<line id="_Path_40" class="st0" x1="45.5" y1="17.6" x2="59.5" y2="3.6"/>
<line id="_Path_41" class="st0" x1="45.5" y1="3.6" x2="59.5" y2="17.6"/>
<polyline id="_Path_42" class="st0" points="80.5,17.6 73.5,10.6 66.5,17.6 "/>
<line id="_Path_43" class="st0" x1="24.5" y1="17.6" x2="38.5" y2="3.6"/>
<line id="_Path_44" class="st0" x1="24.5" y1="3.6" x2="38.5" y2="17.6"/>
<line id="_Path_45" class="st0" x1="3.5" y1="17.6" x2="17.5" y2="3.6"/>
<line id="_Path_46" class="st0" x1="3.5" y1="3.6" x2="17.5" y2="17.6"/>
<polyline id="_Path_47" class="st0" points="59.5,38.6 52.5,31.6 45.5,38.6 "/>
<polyline id="_Path_48" class="st0" points="17.5,38.5 10.5,31.5 3.5,38.5 "/>
<polyline id="_Path_49" class="st0" points="17.5,80.4 10.5,73.4 3.5,80.4 "/>
<polyline id="_Path_50" class="st0" points="38.5,59.5 31.5,52.5 24.5,59.5 "/>
<line id="_Path_51" class="st0" x1="24.5" y1="38.6" x2="38.5" y2="24.6"/>
<line id="_Path_52" class="st0" x1="24.5" y1="24.6" x2="38.5" y2="38.6"/>
<line id="_Path_53" class="st0" x1="108.5" y1="150.4" x2="122.5" y2="164.4"/>
<line id="_Path_54" class="st0" x1="122.5" y1="150.4" x2="108.5" y2="164.4"/>
<line id="_Path_55" class="st0" x1="150.5" y1="150.4" x2="164.5" y2="164.4"/>
<line id="_Path_56" class="st0" x1="164.5" y1="150.4" x2="150.5" y2="164.4"/>
<polyline id="_Path_57" class="st0" points="143.5,164.4 136.5,157.4 129.5,164.4 "/>
<line id="_Path_58" class="st0" x1="150.5" y1="122.6" x2="164.5" y2="108.6"/>
<line id="_Path_59" class="st0" x1="150.5" y1="108.6" x2="164.5" y2="122.6"/>
<line id="_Path_60" class="st0" x1="150.5" y1="143.5" x2="164.5" y2="129.5"/>
<line id="_Path_61" class="st0" x1="150.5" y1="129.5" x2="164.5" y2="143.5"/>
<line id="_Path_62" class="st0" x1="129.5" y1="143.5" x2="143.5" y2="129.5"/>
<line id="_Path_63" class="st0" x1="129.5" y1="129.5" x2="143.5" y2="143.5"/>
<line id="_Path_64" class="st0" x1="87.5" y1="143.5" x2="101.5" y2="129.5"/>
<line id="_Path_65" class="st0" x1="87.5" y1="129.5" x2="101.5" y2="143.5"/>
<line id="_Path_66" class="st0" x1="129.5" y1="101.6" x2="143.5" y2="87.6"/>
<line id="_Path_67" class="st0" x1="129.5" y1="87.6" x2="143.5" y2="101.6"/>
<polyline id="_Path_68" class="st0" points="164.5,101.6 157.5,94.6 150.5,101.6 "/>
<line id="_Path_69" class="st0" x1="108.5" y1="101.6" x2="122.5" y2="87.6"/>
<line id="_Path_70" class="st0" x1="108.5" y1="87.6" x2="122.5" y2="101.6"/>
<line id="_Path_71" class="st0" x1="87.5" y1="101.6" x2="101.5" y2="87.6"/>
<line id="_Path_72" class="st0" x1="87.5" y1="87.6" x2="101.5" y2="101.6"/>
<polyline id="_Path_73" class="st0" points="143.5,122.6 136.5,115.6 129.5,122.6 "/>
<polyline id="_Path_74" class="st0" points="101.5,122.5 94.5,115.5 87.5,122.5 "/>
<polyline id="_Path_75" class="st0" points="101.5,164.4 94.5,157.4 87.5,164.4 "/>
<polyline id="_Path_76" class="st0" points="122.5,143.5 115.5,136.5 108.5,143.5 "/>
<line id="_Path_77" class="st0" x1="108.5" y1="122.6" x2="122.5" y2="108.6"/>
<line id="_Path_78" class="st0" x1="108.5" y1="108.6" x2="122.5" y2="122.6"/>
<line id="_Path_79" class="st0" x1="108.5" y1="66.4" x2="122.5" y2="80.4"/>
<line id="_Path_80" class="st0" x1="122.5" y1="66.4" x2="108.5" y2="80.4"/>
<line id="_Path_81" class="st0" x1="150.5" y1="66.4" x2="164.5" y2="80.4"/>
<line id="_Path_82" class="st0" x1="164.5" y1="66.4" x2="150.5" y2="80.4"/>
<polyline id="_Path_83" class="st0" points="143.5,80.4 136.5,73.4 129.5,80.4 "/>
<line id="_Path_84" class="st0" x1="150.5" y1="38.6" x2="164.5" y2="24.6"/>
<line id="_Path_85" class="st0" x1="150.5" y1="24.6" x2="164.5" y2="38.6"/>
<line id="_Path_86" class="st0" x1="150.5" y1="59.5" x2="164.5" y2="45.5"/>
<line id="_Path_87" class="st0" x1="150.5" y1="45.5" x2="164.5" y2="59.5"/>
<line id="_Path_88" class="st0" x1="129.5" y1="59.5" x2="143.5" y2="45.5"/>
<line id="_Path_89" class="st0" x1="129.5" y1="45.5" x2="143.5" y2="59.5"/>
<line id="_Path_90" class="st0" x1="87.5" y1="59.5" x2="101.5" y2="45.5"/>
<line id="_Path_91" class="st0" x1="87.5" y1="45.5" x2="101.5" y2="59.5"/>
<line id="_Path_92" class="st0" x1="129.5" y1="17.6" x2="143.5" y2="3.6"/>
<line id="_Path_93" class="st0" x1="129.5" y1="3.6" x2="143.5" y2="17.6"/>
<polyline id="_Path_94" class="st0" points="164.5,17.6 157.5,10.6 150.5,17.6 "/>
<line id="_Path_95" class="st0" x1="108.5" y1="17.6" x2="122.5" y2="3.6"/>
<line id="_Path_96" class="st0" x1="108.5" y1="3.6" x2="122.5" y2="17.6"/>
<line id="_Path_97" class="st0" x1="87.5" y1="17.6" x2="101.5" y2="3.6"/>
<line id="_Path_98" class="st0" x1="87.5" y1="3.6" x2="101.5" y2="17.6"/>
<polyline id="_Path_99" class="st0" points="143.5,38.6 136.5,31.6 129.5,38.6 "/>
<polyline id="_Path_100" class="st0" points="101.5,38.5 94.5,31.5 87.5,38.5 "/>
<polyline id="_Path_101" class="st0" points="101.5,80.4 94.5,73.4 87.5,80.4 "/>
<polyline id="_Path_102" class="st0" points="122.5,59.5 115.5,52.5 108.5,59.5 "/>
<line id="_Path_103" class="st0" x1="108.5" y1="38.6" x2="122.5" y2="24.6"/>
<line id="_Path_104" class="st0" x1="108.5" y1="24.6" x2="122.5" y2="38.6"/>
</svg>
