<?xml version="1.0" encoding="utf-8"?>
<!-- Generator: Adobe Illustrator 23.0.1, SVG Export Plug-In . SVG Version: 6.00 Build 0)  -->
<svg version="1.1" id="Pattern" xmlns="http://www.w3.org/2000/svg" xmlns:xlink="http://www.w3.org/1999/xlink" x="0px" y="0px"
	 viewBox="0 0 168 168" style="enable-background:new 0 0 168 168;" xml:space="preserve">
<style type="text/css">
	.st0{fill:none;stroke:#F58144;stroke-width:1.5;stroke-miterlimit:10;}
</style>
<title>Novartis_Open_Carbon_Sienna_168px</title>
<g id="_Group_">
	<polyline id="_Path_" class="st0" points="18.3,4 10.5,8.4 10.5,17.4 	"/>
	<line id="_Path_2" class="st0" x1="10.5" y1="8.5" x2="2.7" y2="4"/>
</g>
<g id="_Group_2">
	<polyline id="_Path_3" class="st0" points="39.3,4 31.5,8.4 31.5,17.4 	"/>
	<line id="_Path_4" class="st0" x1="31.5" y1="8.5" x2="23.7" y2="4"/>
</g>
<g id="_Group_3">
	<polyline id="_Path_5" class="st0" points="44.7,17 52.5,12.6 52.5,3.6 	"/>
	<line id="_Path_6" class="st0" x1="52.5" y1="12.5" x2="60.3" y2="17"/>
</g>
<g id="_Group_4">
	<polyline id="_Path_7" class="st0" points="81.3,4 73.5,8.4 73.5,17.4 	"/>
	<line id="_Path_8" class="st0" x1="73.5" y1="8.5" x2="65.7" y2="4"/>
</g>
<g id="_Group_5">
	<polyline id="_Path_9" class="st0" points="102.3,4 94.5,8.4 94.5,17.4 	"/>
	<line id="_Path_10" class="st0" x1="94.5" y1="8.5" x2="86.7" y2="4"/>
</g>
<g id="_Group_6">
	<polyline id="_Path_11" class="st0" points="107.7,17 115.5,12.6 115.5,3.6 	"/>
	<line id="_Path_12" class="st0" x1="115.5" y1="12.5" x2="123.3" y2="17"/>
</g>
<g id="_Group_7">
	<polyline id="_Path_13" class="st0" points="144.3,4 136.5,8.4 136.5,17.4 	"/>
	<line id="_Path_14" class="st0" x1="136.5" y1="8.5" x2="128.7" y2="4"/>
</g>
<g id="_Group_8">
	<polyline id="_Path_15" class="st0" points="165.3,4 157.5,8.4 157.5,17.4 	"/>
	<line id="_Path_16" class="st0" x1="157.5" y1="8.5" x2="149.7" y2="4"/>
</g>
<g id="_Group_9">
	<polyline id="_Path_17" class="st0" points="2.7,38 10.5,33.6 10.5,24.6 	"/>
	<line id="_Path_18" class="st0" x1="10.5" y1="33.5" x2="18.3" y2="38"/>
</g>
<g id="_Group_10">
	<polyline id="_Path_19" class="st0" points="39.3,25 31.5,29.4 31.5,38.4 	"/>
	<line id="_Path_20" class="st0" x1="31.5" y1="29.5" x2="23.7" y2="25"/>
</g>
<g id="_Group_11">
	<polyline id="_Path_21" class="st0" points="60.3,25 52.5,29.4 52.5,38.4 	"/>
	<line id="_Path_22" class="st0" x1="52.5" y1="29.5" x2="44.7" y2="25"/>
</g>
<g id="_Group_12">
	<polyline id="_Path_23" class="st0" points="65.7,38 73.5,33.6 73.5,24.6 	"/>
	<line id="_Path_24" class="st0" x1="73.5" y1="33.5" x2="81.3" y2="38"/>
</g>
<g id="_Group_13">
	<polyline id="_Path_25" class="st0" points="102.3,25 94.5,29.4 94.5,38.4 	"/>
	<line id="_Path_26" class="st0" x1="94.5" y1="29.5" x2="86.7" y2="25"/>
</g>
<g id="_Group_14">
	<polyline id="_Path_27" class="st0" points="123.3,25 115.5,29.4 115.5,38.4 	"/>
	<line id="_Path_28" class="st0" x1="115.5" y1="29.5" x2="107.7" y2="25"/>
</g>
<g id="_Group_15">
	<polyline id="_Path_29" class="st0" points="128.7,38 136.5,33.6 136.5,24.6 	"/>
	<line id="_Path_30" class="st0" x1="136.5" y1="33.5" x2="144.3" y2="38"/>
</g>
<g id="_Group_16">
	<polyline id="_Path_31" class="st0" points="165.3,25 157.5,29.4 157.5,38.4 	"/>
	<line id="_Path_32" class="st0" x1="157.5" y1="29.5" x2="149.7" y2="25"/>
</g>
<g id="_Group_17">
	<polyline id="_Path_33" class="st0" points="18.3,46 10.5,50.4 10.5,59.4 	"/>
	<line id="_Path_34" class="st0" x1="10.5" y1="50.5" x2="2.7" y2="46"/>
</g>
<g id="_Group_18">
	<polyline id="_Path_35" class="st0" points="39.3,46 31.5,50.4 31.5,59.4 	"/>
	<line id="_Path_36" class="st0" x1="31.5" y1="50.5" x2="23.7" y2="46"/>
</g>
<g id="_Group_19">
	<polyline id="_Path_37" class="st0" points="44.7,59 52.5,54.6 52.5,45.6 	"/>
	<line id="_Path_38" class="st0" x1="52.5" y1="54.5" x2="60.3" y2="59"/>
</g>
<g id="_Group_20">
	<polyline id="_Path_39" class="st0" points="81.3,46 73.5,50.4 73.5,59.4 	"/>
	<line id="_Path_40" class="st0" x1="73.5" y1="50.5" x2="65.7" y2="46"/>
</g>
<g id="_Group_21">
	<polyline id="_Path_41" class="st0" points="102.3,46 94.5,50.4 94.5,59.4 	"/>
	<line id="_Path_42" class="st0" x1="94.5" y1="50.5" x2="86.7" y2="46"/>
</g>
<g id="_Group_22">
	<polyline id="_Path_43" class="st0" points="107.7,59 115.5,54.6 115.5,45.6 	"/>
	<line id="_Path_44" class="st0" x1="115.5" y1="54.5" x2="123.3" y2="59"/>
</g>
<g id="_Group_23">
	<polyline id="_Path_45" class="st0" points="144.3,46 136.5,50.4 136.5,59.4 	"/>
	<line id="_Path_46" class="st0" x1="136.5" y1="50.5" x2="128.7" y2="46"/>
</g>
<g id="_Group_24">
	<polyline id="_Path_47" class="st0" points="165.3,46 157.5,50.4 157.5,59.4 	"/>
	<line id="_Path_48" class="st0" x1="157.5" y1="50.5" x2="149.7" y2="46"/>
</g>
<g id="_Group_25">
	<polyline id="_Path_49" class="st0" points="2.7,80 10.5,75.6 10.5,66.6 	"/>
	<line id="_Path_50" class="st0" x1="10.5" y1="75.5" x2="18.3" y2="80"/>
</g>
<g id="_Group_26">
	<polyline id="_Path_51" class="st0" points="39.3,67 31.5,71.4 31.5,80.4 	"/>
	<line id="_Path_52" class="st0" x1="31.5" y1="71.5" x2="23.7" y2="67"/>
</g>
<g id="_Group_27">
	<polyline id="_Path_53" class="st0" points="60.3,67 52.5,71.4 52.5,80.4 	"/>
	<line id="_Path_54" class="st0" x1="52.5" y1="71.5" x2="44.7" y2="67"/>
</g>
<g id="_Group_28">
	<polyline id="_Path_55" class="st0" points="65.7,80 73.5,75.6 73.5,66.6 	"/>
	<line id="_Path_56" class="st0" x1="73.5" y1="75.5" x2="81.3" y2="80"/>
</g>
<g id="_Group_29">
	<polyline id="_Path_57" class="st0" points="102.3,67 94.5,71.4 94.5,80.4 	"/>
	<line id="_Path_58" class="st0" x1="94.5" y1="71.5" x2="86.7" y2="67"/>
</g>
<g id="_Group_30">
	<polyline id="_Path_59" class="st0" points="123.3,67 115.5,71.4 115.5,80.4 	"/>
	<line id="_Path_60" class="st0" x1="115.5" y1="71.5" x2="107.7" y2="67"/>
</g>
<g id="_Group_31">
	<polyline id="_Path_61" class="st0" points="128.7,80 136.5,75.6 136.5,66.6 	"/>
	<line id="_Path_62" class="st0" x1="136.5" y1="75.5" x2="144.3" y2="80"/>
</g>
<g id="_Group_32">
	<polyline id="_Path_63" class="st0" points="165.3,67 157.5,71.4 157.5,80.4 	"/>
	<line id="_Path_64" class="st0" x1="157.5" y1="71.5" x2="149.7" y2="67"/>
</g>
<g id="_Group_33">
	<polyline id="_Path_65" class="st0" points="18.3,88 10.5,92.4 10.5,101.4 	"/>
	<line id="_Path_66" class="st0" x1="10.5" y1="92.5" x2="2.7" y2="88"/>
</g>
<g id="_Group_34">
	<polyline id="_Path_67" class="st0" points="39.3,88 31.5,92.4 31.5,101.4 	"/>
	<line id="_Path_68" class="st0" x1="31.5" y1="92.5" x2="23.7" y2="88"/>
</g>
<g id="_Group_35">
	<polyline id="_Path_69" class="st0" points="44.7,101 52.5,96.6 52.5,87.6 	"/>
	<line id="_Path_70" class="st0" x1="52.5" y1="96.5" x2="60.3" y2="101"/>
</g>
<g id="_Group_36">
	<polyline id="_Path_71" class="st0" points="81.3,88 73.5,92.4 73.5,101.4 	"/>
	<line id="_Path_72" class="st0" x1="73.5" y1="92.5" x2="65.7" y2="88"/>
</g>
<g id="_Group_37">
	<polyline id="_Path_73" class="st0" points="102.3,88 94.5,92.4 94.5,101.4 	"/>
	<line id="_Path_74" class="st0" x1="94.5" y1="92.5" x2="86.7" y2="88"/>
</g>
<g id="_Group_38">
	<polyline id="_Path_75" class="st0" points="107.7,101 115.5,96.6 115.5,87.6 	"/>
	<line id="_Path_76" class="st0" x1="115.5" y1="96.5" x2="123.3" y2="101"/>
</g>
<g id="_Group_39">
	<polyline id="_Path_77" class="st0" points="144.3,88 136.5,92.4 136.5,101.4 	"/>
	<line id="_Path_78" class="st0" x1="136.5" y1="92.5" x2="128.7" y2="88"/>
</g>
<g id="_Group_40">
	<polyline id="_Path_79" class="st0" points="165.3,88 157.5,92.4 157.5,101.4 	"/>
	<line id="_Path_80" class="st0" x1="157.5" y1="92.5" x2="149.7" y2="88"/>
</g>
<g id="_Group_41">
	<polyline id="_Path_81" class="st0" points="2.7,122 10.5,117.6 10.5,108.6 	"/>
	<line id="_Path_82" class="st0" x1="10.5" y1="117.5" x2="18.3" y2="122"/>
</g>
<g id="_Group_42">
	<polyline id="_Path_83" class="st0" points="39.3,109 31.5,113.4 31.5,122.4 	"/>
	<line id="_Path_84" class="st0" x1="31.5" y1="113.5" x2="23.7" y2="109"/>
</g>
<g id="_Group_43">
	<polyline id="_Path_85" class="st0" points="60.3,109 52.5,113.4 52.5,122.4 	"/>
	<line id="_Path_86" class="st0" x1="52.5" y1="113.5" x2="44.7" y2="109"/>
</g>
<g id="_Group_44">
	<polyline id="_Path_87" class="st0" points="65.7,122 73.5,117.6 73.5,108.6 	"/>
	<line id="_Path_88" class="st0" x1="73.5" y1="117.5" x2="81.3" y2="122"/>
</g>
<g id="_Group_45">
	<polyline id="_Path_89" class="st0" points="102.3,109 94.5,113.4 94.5,122.4 	"/>
	<line id="_Path_90" class="st0" x1="94.5" y1="113.5" x2="86.7" y2="109"/>
</g>
<g id="_Group_46">
	<polyline id="_Path_91" class="st0" points="123.3,109 115.5,113.4 115.5,122.4 	"/>
	<line id="_Path_92" class="st0" x1="115.5" y1="113.5" x2="107.7" y2="109"/>
</g>
<g id="_Group_47">
	<polyline id="_Path_93" class="st0" points="128.7,122 136.5,117.6 136.5,108.6 	"/>
	<line id="_Path_94" class="st0" x1="136.5" y1="117.5" x2="144.3" y2="122"/>
</g>
<g id="_Group_48">
	<polyline id="_Path_95" class="st0" points="165.3,109 157.5,113.4 157.5,122.4 	"/>
	<line id="_Path_96" class="st0" x1="157.5" y1="113.5" x2="149.7" y2="109"/>
</g>
<g id="_Group_49">
	<polyline id="_Path_97" class="st0" points="18.3,130 10.5,134.4 10.5,143.4 	"/>
	<line id="_Path_98" class="st0" x1="10.5" y1="134.5" x2="2.7" y2="130"/>
</g>
<g id="_Group_50">
	<polyline id="_Path_99" class="st0" points="39.3,130 31.5,134.4 31.5,143.4 	"/>
	<line id="_Path_100" class="st0" x1="31.5" y1="134.5" x2="23.7" y2="130"/>
</g>
<g id="_Group_51">
	<polyline id="_Path_101" class="st0" points="44.7,143 52.5,138.6 52.5,129.6 	"/>
	<line id="_Path_102" class="st0" x1="52.5" y1="138.5" x2="60.3" y2="143"/>
</g>
<g id="_Group_52">
	<polyline id="_Path_103" class="st0" points="81.3,130 73.5,134.4 73.5,143.4 	"/>
	<line id="_Path_104" class="st0" x1="73.5" y1="134.5" x2="65.7" y2="130"/>
</g>
<g id="_Group_53">
	<polyline id="_Path_105" class="st0" points="102.3,130 94.5,134.4 94.5,143.4 	"/>
	<line id="_Path_106" class="st0" x1="94.5" y1="134.5" x2="86.7" y2="130"/>
</g>
<g id="_Group_54">
	<polyline id="_Path_107" class="st0" points="107.7,143 115.5,138.6 115.5,129.6 	"/>
	<line id="_Path_108" class="st0" x1="115.5" y1="138.5" x2="123.3" y2="143"/>
</g>
<g id="_Group_55">
	<polyline id="_Path_109" class="st0" points="144.3,130 136.5,134.4 136.5,143.4 	"/>
	<line id="_Path_110" class="st0" x1="136.5" y1="134.5" x2="128.7" y2="130"/>
</g>
<g id="_Group_56">
	<polyline id="_Path_111" class="st0" points="165.3,130 157.5,134.4 157.5,143.4 	"/>
	<line id="_Path_112" class="st0" x1="157.5" y1="134.5" x2="149.7" y2="130"/>
</g>
<g id="_Group_57">
	<polyline id="_Path_113" class="st0" points="2.7,164 10.5,159.6 10.5,150.6 	"/>
	<line id="_Path_114" class="st0" x1="10.5" y1="159.5" x2="18.3" y2="164"/>
</g>
<g id="_Group_58">
	<polyline id="_Path_115" class="st0" points="39.3,151 31.5,155.4 31.5,164.4 	"/>
	<line id="_Path_116" class="st0" x1="31.5" y1="155.5" x2="23.7" y2="151"/>
</g>
<g id="_Group_59">
	<polyline id="_Path_117" class="st0" points="60.3,151 52.5,155.4 52.5,164.4 	"/>
	<line id="_Path_118" class="st0" x1="52.5" y1="155.5" x2="44.7" y2="151"/>
</g>
<g id="_Group_60">
	<polyline id="_Path_119" class="st0" points="65.7,164 73.5,159.6 73.5,150.6 	"/>
	<line id="_Path_120" class="st0" x1="73.5" y1="159.5" x2="81.3" y2="164"/>
</g>
<g id="_Group_61">
	<polyline id="_Path_121" class="st0" points="102.3,151 94.5,155.4 94.5,164.4 	"/>
	<line id="_Path_122" class="st0" x1="94.5" y1="155.5" x2="86.7" y2="151"/>
</g>
<g id="_Group_62">
	<polyline id="_Path_123" class="st0" points="123.3,151 115.5,155.4 115.5,164.4 	"/>
	<line id="_Path_124" class="st0" x1="115.5" y1="155.5" x2="107.7" y2="151"/>
</g>
<g id="_Group_63">
	<polyline id="_Path_125" class="st0" points="128.7,164 136.5,159.6 136.5,150.6 	"/>
	<line id="_Path_126" class="st0" x1="136.5" y1="159.5" x2="144.3" y2="164"/>
</g>
<g id="_Group_64">
	<polyline id="_Path_127" class="st0" points="165.3,151 157.5,155.4 157.5,164.4 	"/>
	<line id="_Path_128" class="st0" x1="157.5" y1="155.5" x2="149.7" y2="151"/>
</g>
</svg>
