<?xml version="1.0" encoding="utf-8"?>
<!-- Generator: Adobe Illustrator 23.0.1, SVG Export Plug-In . SVG Version: 6.00 Build 0)  -->
<svg version="1.1" id="Pattern" xmlns="http://www.w3.org/2000/svg" xmlns:xlink="http://www.w3.org/1999/xlink" x="0px" y="0px"
	 viewBox="0 0 168 168" style="enable-background:new 0 0 168 168;" xml:space="preserve">
<style type="text/css">
	.st0{fill:none;stroke:#D13A32;stroke-width:1.5;stroke-linecap:square;stroke-linejoin:round;}
</style>
<title>Novartis_Open_Graduated_Carmine_168px</title>
<line class="st0" x1="3.5" y1="3.5" x2="17.5" y2="3.5"/>
<line class="st0" x1="3.5" y1="10.5" x2="10.5" y2="10.5"/>
<line class="st0" x1="3.5" y1="17.5" x2="10.5" y2="17.5"/>
<line class="st0" x1="24.5" y1="3.5" x2="38.5" y2="3.5"/>
<line class="st0" x1="24.5" y1="10.5" x2="31.5" y2="10.5"/>
<line class="st0" x1="24.5" y1="17.5" x2="31.5" y2="17.5"/>
<line class="st0" x1="45.5" y1="3.5" x2="59.5" y2="3.5"/>
<line class="st0" x1="45.5" y1="10.5" x2="52.5" y2="10.5"/>
<line class="st0" x1="45.5" y1="17.5" x2="52.5" y2="17.5"/>
<line class="st0" x1="66.5" y1="3.5" x2="80.5" y2="3.5"/>
<line class="st0" x1="66.5" y1="10.5" x2="73.5" y2="10.5"/>
<line class="st0" x1="66.5" y1="17.5" x2="73.5" y2="17.5"/>
<line class="st0" x1="87.5" y1="3.5" x2="101.5" y2="3.5"/>
<line class="st0" x1="87.5" y1="10.5" x2="94.5" y2="10.5"/>
<line class="st0" x1="87.5" y1="17.5" x2="94.5" y2="17.5"/>
<line class="st0" x1="108.5" y1="3.5" x2="122.5" y2="3.5"/>
<line class="st0" x1="108.5" y1="10.5" x2="115.5" y2="10.5"/>
<line class="st0" x1="108.5" y1="17.5" x2="115.5" y2="17.5"/>
<line class="st0" x1="3.5" y1="24.5" x2="17.5" y2="24.5"/>
<line class="st0" x1="3.5" y1="31.5" x2="10.5" y2="31.5"/>
<line class="st0" x1="3.5" y1="38.5" x2="10.5" y2="38.5"/>
<line class="st0" x1="24.5" y1="24.5" x2="38.5" y2="24.5"/>
<line class="st0" x1="24.5" y1="31.5" x2="31.5" y2="31.5"/>
<line class="st0" x1="24.5" y1="38.5" x2="31.5" y2="38.5"/>
<line class="st0" x1="45.5" y1="24.5" x2="59.5" y2="24.5"/>
<line class="st0" x1="45.5" y1="31.5" x2="52.5" y2="31.5"/>
<line class="st0" x1="45.5" y1="38.5" x2="52.5" y2="38.5"/>
<line class="st0" x1="66.5" y1="24.5" x2="80.5" y2="24.5"/>
<line class="st0" x1="66.5" y1="31.5" x2="73.5" y2="31.5"/>
<line class="st0" x1="66.5" y1="38.5" x2="73.5" y2="38.5"/>
<line class="st0" x1="87.5" y1="24.5" x2="101.5" y2="24.5"/>
<line class="st0" x1="87.5" y1="31.5" x2="94.5" y2="31.5"/>
<line class="st0" x1="87.5" y1="38.5" x2="94.5" y2="38.5"/>
<line class="st0" x1="108.5" y1="24.5" x2="122.5" y2="24.5"/>
<line class="st0" x1="108.5" y1="31.5" x2="115.5" y2="31.5"/>
<line class="st0" x1="108.5" y1="38.5" x2="115.5" y2="38.5"/>
<line class="st0" x1="3.5" y1="45.5" x2="17.5" y2="45.5"/>
<line class="st0" x1="3.5" y1="52.5" x2="10.5" y2="52.5"/>
<line class="st0" x1="3.5" y1="59.5" x2="10.5" y2="59.5"/>
<line class="st0" x1="24.5" y1="45.5" x2="38.5" y2="45.5"/>
<line class="st0" x1="24.5" y1="52.5" x2="31.5" y2="52.5"/>
<line class="st0" x1="24.5" y1="59.5" x2="31.5" y2="59.5"/>
<line class="st0" x1="45.5" y1="45.5" x2="59.5" y2="45.5"/>
<line class="st0" x1="45.5" y1="52.5" x2="52.5" y2="52.5"/>
<line class="st0" x1="45.5" y1="59.5" x2="52.5" y2="59.5"/>
<line class="st0" x1="66.5" y1="45.5" x2="80.5" y2="45.5"/>
<line class="st0" x1="66.5" y1="52.5" x2="73.5" y2="52.5"/>
<line class="st0" x1="66.5" y1="59.5" x2="73.5" y2="59.5"/>
<line class="st0" x1="87.5" y1="45.5" x2="101.5" y2="45.5"/>
<line class="st0" x1="87.5" y1="52.5" x2="94.5" y2="52.5"/>
<line class="st0" x1="87.5" y1="59.5" x2="94.5" y2="59.5"/>
<line class="st0" x1="108.5" y1="45.5" x2="122.5" y2="45.5"/>
<line class="st0" x1="108.5" y1="52.5" x2="115.5" y2="52.5"/>
<line class="st0" x1="108.5" y1="59.5" x2="115.5" y2="59.5"/>
<line class="st0" x1="3.5" y1="66.5" x2="17.5" y2="66.5"/>
<line class="st0" x1="3.5" y1="73.5" x2="10.5" y2="73.5"/>
<line class="st0" x1="3.5" y1="80.5" x2="10.5" y2="80.5"/>
<line class="st0" x1="24.5" y1="66.5" x2="38.5" y2="66.5"/>
<line class="st0" x1="24.5" y1="73.5" x2="31.5" y2="73.5"/>
<line class="st0" x1="24.5" y1="80.5" x2="31.5" y2="80.5"/>
<line class="st0" x1="45.5" y1="66.5" x2="59.5" y2="66.5"/>
<line class="st0" x1="45.5" y1="73.5" x2="52.5" y2="73.5"/>
<line class="st0" x1="45.5" y1="80.5" x2="52.5" y2="80.5"/>
<line class="st0" x1="66.5" y1="66.5" x2="80.5" y2="66.5"/>
<line class="st0" x1="66.5" y1="73.5" x2="73.5" y2="73.5"/>
<line class="st0" x1="66.5" y1="80.5" x2="73.5" y2="80.5"/>
<line class="st0" x1="87.5" y1="66.5" x2="101.5" y2="66.5"/>
<line class="st0" x1="87.5" y1="73.5" x2="94.5" y2="73.5"/>
<line class="st0" x1="87.5" y1="80.5" x2="94.5" y2="80.5"/>
<line class="st0" x1="108.5" y1="66.5" x2="122.5" y2="66.5"/>
<line class="st0" x1="108.5" y1="73.5" x2="115.5" y2="73.5"/>
<line class="st0" x1="108.5" y1="80.5" x2="115.5" y2="80.5"/>
<line class="st0" x1="3.5" y1="87.5" x2="17.5" y2="87.5"/>
<line class="st0" x1="3.5" y1="94.5" x2="10.5" y2="94.5"/>
<line class="st0" x1="3.5" y1="101.5" x2="10.5" y2="101.5"/>
<line class="st0" x1="24.5" y1="87.5" x2="38.5" y2="87.5"/>
<line class="st0" x1="24.5" y1="94.5" x2="31.5" y2="94.5"/>
<line class="st0" x1="24.5" y1="101.5" x2="31.5" y2="101.5"/>
<line class="st0" x1="45.5" y1="87.5" x2="59.5" y2="87.5"/>
<line class="st0" x1="45.5" y1="94.5" x2="52.5" y2="94.5"/>
<line class="st0" x1="45.5" y1="101.5" x2="52.5" y2="101.5"/>
<line class="st0" x1="66.5" y1="87.5" x2="80.5" y2="87.5"/>
<line class="st0" x1="66.5" y1="94.5" x2="73.5" y2="94.5"/>
<line class="st0" x1="66.5" y1="101.5" x2="73.5" y2="101.5"/>
<line class="st0" x1="87.5" y1="87.5" x2="101.5" y2="87.5"/>
<line class="st0" x1="87.5" y1="94.5" x2="94.5" y2="94.5"/>
<line class="st0" x1="87.5" y1="101.5" x2="94.5" y2="101.5"/>
<line class="st0" x1="108.5" y1="87.5" x2="122.5" y2="87.5"/>
<line class="st0" x1="108.5" y1="94.5" x2="115.5" y2="94.5"/>
<line class="st0" x1="108.5" y1="101.5" x2="115.5" y2="101.5"/>
<line class="st0" x1="3.5" y1="108.5" x2="17.5" y2="108.5"/>
<line class="st0" x1="3.5" y1="115.5" x2="10.5" y2="115.5"/>
<line class="st0" x1="3.5" y1="122.5" x2="10.5" y2="122.5"/>
<line class="st0" x1="24.5" y1="108.5" x2="38.5" y2="108.5"/>
<line class="st0" x1="24.5" y1="115.5" x2="31.5" y2="115.5"/>
<line class="st0" x1="24.5" y1="122.5" x2="31.5" y2="122.5"/>
<line class="st0" x1="45.5" y1="108.5" x2="59.5" y2="108.5"/>
<line class="st0" x1="45.5" y1="115.5" x2="52.5" y2="115.5"/>
<line class="st0" x1="45.5" y1="122.5" x2="52.5" y2="122.5"/>
<line class="st0" x1="66.5" y1="108.5" x2="80.5" y2="108.5"/>
<line class="st0" x1="66.5" y1="115.5" x2="73.5" y2="115.5"/>
<line class="st0" x1="66.5" y1="122.5" x2="73.5" y2="122.5"/>
<line class="st0" x1="87.5" y1="108.5" x2="101.5" y2="108.5"/>
<line class="st0" x1="87.5" y1="115.5" x2="94.5" y2="115.5"/>
<line class="st0" x1="87.5" y1="122.5" x2="94.5" y2="122.5"/>
<line class="st0" x1="108.5" y1="108.5" x2="122.5" y2="108.5"/>
<line class="st0" x1="108.5" y1="115.5" x2="115.5" y2="115.5"/>
<line class="st0" x1="108.5" y1="122.5" x2="115.5" y2="122.5"/>
<line class="st0" x1="129.5" y1="3.5" x2="143.5" y2="3.5"/>
<line class="st0" x1="129.5" y1="10.5" x2="136.5" y2="10.5"/>
<line class="st0" x1="129.5" y1="17.5" x2="136.5" y2="17.5"/>
<line class="st0" x1="129.5" y1="24.5" x2="143.5" y2="24.5"/>
<line class="st0" x1="129.5" y1="31.5" x2="136.5" y2="31.5"/>
<line class="st0" x1="129.5" y1="38.5" x2="136.5" y2="38.5"/>
<line class="st0" x1="129.5" y1="45.5" x2="143.5" y2="45.5"/>
<line class="st0" x1="129.5" y1="52.5" x2="136.5" y2="52.5"/>
<line class="st0" x1="129.5" y1="59.5" x2="136.5" y2="59.5"/>
<line class="st0" x1="129.5" y1="66.5" x2="143.5" y2="66.5"/>
<line class="st0" x1="129.5" y1="73.5" x2="136.5" y2="73.5"/>
<line class="st0" x1="129.5" y1="80.5" x2="136.5" y2="80.5"/>
<line class="st0" x1="129.5" y1="87.5" x2="143.5" y2="87.5"/>
<line class="st0" x1="129.5" y1="94.5" x2="136.5" y2="94.5"/>
<line class="st0" x1="129.5" y1="101.5" x2="136.5" y2="101.5"/>
<line class="st0" x1="129.5" y1="108.5" x2="143.5" y2="108.5"/>
<line class="st0" x1="129.5" y1="115.5" x2="136.5" y2="115.5"/>
<line class="st0" x1="129.5" y1="122.5" x2="136.5" y2="122.5"/>
<line class="st0" x1="150.5" y1="3.5" x2="164.5" y2="3.5"/>
<line class="st0" x1="150.5" y1="10.5" x2="157.5" y2="10.5"/>
<line class="st0" x1="150.5" y1="17.5" x2="157.5" y2="17.5"/>
<line class="st0" x1="150.5" y1="24.5" x2="164.5" y2="24.5"/>
<line class="st0" x1="150.5" y1="31.5" x2="157.5" y2="31.5"/>
<line class="st0" x1="150.5" y1="38.5" x2="157.5" y2="38.5"/>
<line class="st0" x1="150.5" y1="45.5" x2="164.5" y2="45.5"/>
<line class="st0" x1="150.5" y1="52.5" x2="157.5" y2="52.5"/>
<line class="st0" x1="150.5" y1="59.5" x2="157.5" y2="59.5"/>
<line class="st0" x1="150.5" y1="66.5" x2="164.5" y2="66.5"/>
<line class="st0" x1="150.5" y1="73.5" x2="157.5" y2="73.5"/>
<line class="st0" x1="150.5" y1="80.5" x2="157.5" y2="80.5"/>
<line class="st0" x1="150.5" y1="87.5" x2="164.5" y2="87.5"/>
<line class="st0" x1="150.5" y1="94.5" x2="157.5" y2="94.5"/>
<line class="st0" x1="150.5" y1="101.5" x2="157.5" y2="101.5"/>
<line class="st0" x1="150.5" y1="108.5" x2="164.5" y2="108.5"/>
<line class="st0" x1="150.5" y1="115.5" x2="157.5" y2="115.5"/>
<line class="st0" x1="150.5" y1="122.5" x2="157.5" y2="122.5"/>
<line class="st0" x1="3.5" y1="129.5" x2="17.5" y2="129.5"/>
<line class="st0" x1="3.5" y1="136.5" x2="10.5" y2="136.5"/>
<line class="st0" x1="3.5" y1="143.5" x2="10.5" y2="143.5"/>
<line class="st0" x1="24.5" y1="129.5" x2="38.5" y2="129.5"/>
<line class="st0" x1="24.5" y1="136.5" x2="31.5" y2="136.5"/>
<line class="st0" x1="24.5" y1="143.5" x2="31.5" y2="143.5"/>
<line class="st0" x1="45.5" y1="129.5" x2="59.5" y2="129.5"/>
<line class="st0" x1="45.5" y1="136.5" x2="52.5" y2="136.5"/>
<line class="st0" x1="45.5" y1="143.5" x2="52.5" y2="143.5"/>
<line class="st0" x1="66.5" y1="129.5" x2="80.5" y2="129.5"/>
<line class="st0" x1="66.5" y1="136.5" x2="73.5" y2="136.5"/>
<line class="st0" x1="66.5" y1="143.5" x2="73.5" y2="143.5"/>
<line class="st0" x1="87.5" y1="129.5" x2="101.5" y2="129.5"/>
<line class="st0" x1="87.5" y1="136.5" x2="94.5" y2="136.5"/>
<line class="st0" x1="87.5" y1="143.5" x2="94.5" y2="143.5"/>
<line class="st0" x1="108.5" y1="129.5" x2="122.5" y2="129.5"/>
<line class="st0" x1="108.5" y1="136.5" x2="115.5" y2="136.5"/>
<line class="st0" x1="108.5" y1="143.5" x2="115.5" y2="143.5"/>
<line class="st0" x1="129.5" y1="129.5" x2="143.5" y2="129.5"/>
<line class="st0" x1="129.5" y1="136.5" x2="136.5" y2="136.5"/>
<line class="st0" x1="129.5" y1="143.5" x2="136.5" y2="143.5"/>
<line class="st0" x1="150.5" y1="129.5" x2="164.5" y2="129.5"/>
<line class="st0" x1="150.5" y1="136.5" x2="157.5" y2="136.5"/>
<line class="st0" x1="150.5" y1="143.5" x2="157.5" y2="143.5"/>
<line class="st0" x1="3.5" y1="150.5" x2="17.5" y2="150.5"/>
<line class="st0" x1="3.5" y1="157.5" x2="10.5" y2="157.5"/>
<line class="st0" x1="3.5" y1="164.5" x2="10.5" y2="164.5"/>
<line class="st0" x1="24.5" y1="150.5" x2="38.5" y2="150.5"/>
<line class="st0" x1="24.5" y1="157.5" x2="31.5" y2="157.5"/>
<line class="st0" x1="24.5" y1="164.5" x2="31.5" y2="164.5"/>
<line class="st0" x1="45.5" y1="150.5" x2="59.5" y2="150.5"/>
<line class="st0" x1="45.5" y1="157.5" x2="52.5" y2="157.5"/>
<line class="st0" x1="45.5" y1="164.5" x2="52.5" y2="164.5"/>
<line class="st0" x1="66.5" y1="150.5" x2="80.5" y2="150.5"/>
<line class="st0" x1="66.5" y1="157.5" x2="73.5" y2="157.5"/>
<line class="st0" x1="66.5" y1="164.5" x2="73.5" y2="164.5"/>
<line class="st0" x1="87.5" y1="150.5" x2="101.5" y2="150.5"/>
<line class="st0" x1="87.5" y1="157.5" x2="94.5" y2="157.5"/>
<line class="st0" x1="87.5" y1="164.5" x2="94.5" y2="164.5"/>
<line class="st0" x1="108.5" y1="150.5" x2="122.5" y2="150.5"/>
<line class="st0" x1="108.5" y1="157.5" x2="115.5" y2="157.5"/>
<line class="st0" x1="108.5" y1="164.5" x2="115.5" y2="164.5"/>
<line class="st0" x1="129.5" y1="150.5" x2="143.5" y2="150.5"/>
<line class="st0" x1="129.5" y1="157.5" x2="136.5" y2="157.5"/>
<line class="st0" x1="129.5" y1="164.5" x2="136.5" y2="164.5"/>
<line class="st0" x1="150.5" y1="150.5" x2="164.5" y2="150.5"/>
<line class="st0" x1="150.5" y1="157.5" x2="157.5" y2="157.5"/>
<line class="st0" x1="150.5" y1="164.5" x2="157.5" y2="164.5"/>
</svg>
