<svg xmlns="http://www.w3.org/2000/svg" viewBox="0 0 110.25 110.25"><defs><style>.cls-1,.cls-3{fill:none;stroke-miterlimit:10;stroke-width:4px;}.cls-1{stroke:#fff;}.cls-2{fill:#fff;}.cls-3{stroke:#000;}</style></defs><title>Burger_Black</title><g id="WHITE"><rect class="cls-1" x="2" y="12.13" width="106.25" height="96.12"/><line class="cls-1" x1="2" y1="30.39" x2="108.25" y2="30.39"/><rect class="cls-1" x="10.76" y="2" width="18.32" height="10.13"/><rect class="cls-1" x="81.16" y="2" width="18.32" height="10.13"/><rect class="cls-2" x="29.76" y="43.15" width="11.98" height="11.98"/><rect class="cls-2" x="49.14" y="43.15" width="11.98" height="11.98"/><rect class="cls-2" x="68.51" y="43.15" width="11.98" height="11.98"/><rect class="cls-2" x="87.89" y="43.15" width="11.98" height="11.98"/><rect class="cls-2" x="10.39" y="63.61" width="11.98" height="11.98"/><rect class="cls-2" x="29.76" y="63.61" width="11.98" height="11.98"/><rect class="cls-2" x="49.14" y="63.61" width="11.98" height="11.98"/><rect class="cls-2" x="68.51" y="63.61" width="11.98" height="11.98"/><rect class="cls-2" x="87.89" y="63.61" width="11.98" height="11.98"/><rect class="cls-2" x="10.39" y="84.07" width="11.98" height="11.98"/><rect class="cls-2" x="29.76" y="84.07" width="11.98" height="11.98"/><rect class="cls-2" x="49.14" y="84.07" width="11.98" height="11.98"/><rect class="cls-2" x="68.51" y="84.07" width="11.98" height="11.98"/></g><g id="BLACK"><rect class="cls-3" x="2" y="12.13" width="106.25" height="96.12"/><line class="cls-3" x1="2" y1="30.39" x2="108.25" y2="30.39"/><rect class="cls-3" x="10.76" y="2" width="18.32" height="10.13"/><rect class="cls-3" x="81.16" y="2" width="18.32" height="10.13"/><rect x="29.76" y="43.15" width="11.98" height="11.98"/><rect x="49.14" y="43.15" width="11.98" height="11.98"/><rect x="68.51" y="43.15" width="11.98" height="11.98"/><rect x="87.89" y="43.15" width="11.98" height="11.98"/><rect x="10.39" y="63.61" width="11.98" height="11.98"/><rect x="29.76" y="63.61" width="11.98" height="11.98"/><rect x="49.14" y="63.61" width="11.98" height="11.98"/><rect x="68.51" y="63.61" width="11.98" height="11.98"/><rect x="87.89" y="63.61" width="11.98" height="11.98"/><rect x="10.39" y="84.07" width="11.98" height="11.98"/><rect x="29.76" y="84.07" width="11.98" height="11.98"/><rect x="49.14" y="84.07" width="11.98" height="11.98"/><rect x="68.51" y="84.07" width="11.98" height="11.98"/></g></svg>