<svg xmlns="http://www.w3.org/2000/svg" viewBox="0 0 89 110.64"><defs><style>.cls-1{fill:none;stroke:#000;stroke-width:4px;}</style></defs><title>Doc_Black</title><g id="BLACK"><path d="M60.53,79.35h8.09c5.54,0,9.1,4.47,9.1,10.59a10.39,10.39,0,0,1-3.3,8.14,9.25,9.25,0,0,1-6.15,2H60.53ZM68,96.46c3.94,0,5.48-2.41,5.48-6.52s-1.8-7-5.36-7H64.73V96.46Z" transform="translate(-45.5 -34.68)"/><path d="M79.84,89.76c0-6.2,3.89-10.81,10-10.81s10,4.61,10,10.81-3.86,10.79-10,10.79S79.84,96,79.84,89.76Zm15.69,0c0-4.14-1.86-7.36-5.66-7.36s-5.74,3.22-5.74,7.36,2,7.34,5.74,7.34S95.53,93.88,95.53,89.76Z" transform="translate(-45.5 -34.68)"/><path d="M101.94,89.79c0-6.15,3.83-10.84,9.94-10.84,5.11,0,8.12,3,8.56,7h-4.18a4.09,4.09,0,0,0-4.38-3.44c-3.82,0-5.65,3.18-5.65,7.3s2.2,7.28,5.68,7.28a4.18,4.18,0,0,0,4.47-3.66h4.11a7.26,7.26,0,0,1-2.29,4.9,8.73,8.73,0,0,1-6.29,2.21C106.09,100.52,101.94,96,101.94,89.79Z" transform="translate(-45.5 -34.68)"/><polygon class="cls-1" points="2 108.64 2 2 67.02 2 87 23.64 87 108.64 2 108.64"/><polygon points="66.01 2 66.01 25.25 87 25.25 66.01 2"/></g></svg>