<svg xmlns="http://www.w3.org/2000/svg" viewBox="0 0 110.19 74.37"><defs><style>.cls-1,.cls-2,.cls-3{fill:none;stroke-miterlimit:10;}.cls-1{stroke:#fff;}.cls-1,.cls-3{stroke-width:4px;}.cls-2,.cls-3{stroke:#000;}.cls-2{stroke-width:4.34px;}</style></defs><title>Email_Black</title><g id="WHITE"><path class="cls-1" d="M41.15,61.39" transform="translate(-34.99 -52.88)"/><rect class="cls-1" x="2" y="2" width="106.19" height="70.37"/><polygon class="cls-1" points="55.09 45.98 40.26 34.02 2 71.23 2 72.37 108.19 72.37 108.19 71.18 69.93 34.01 55.09 45.98"/><polygon class="cls-1" points="108.19 2 108.19 3.14 55.09 45.98 2 3.19 2 2 108.19 2"/></g><g id="BLACK"><path class="cls-2" d="M152.61,155.21" transform="translate(-34.99 -52.88)"/><path class="cls-3" d="M41.15,61.39" transform="translate(-34.99 -52.88)"/><rect class="cls-3" x="2" y="2" width="106.19" height="70.37"/><polygon class="cls-3" points="55.09 45.98 40.26 34.02 2 71.23 2 72.37 108.19 72.37 108.19 71.18 69.93 34.01 55.09 45.98"/><polygon class="cls-3" points="108.19 2 108.19 3.14 55.09 45.98 2 3.19 2 2 108.19 2"/></g></svg>