<svg xmlns="http://www.w3.org/2000/svg" viewBox="0 0 89 110.64"><defs><style>.cls-1,.cls-3{fill:none;stroke-width:4px;}.cls-1{stroke:#fff;}.cls-2{fill:#fff;}.cls-3{stroke:#000;}</style></defs><title>File_Black</title><g id="WHITE"><polygon class="cls-1" points="2 108.64 2 2 67.02 2 87 23.64 87 108.64 2 108.64"/><polygon class="cls-2" points="66.01 2 66.01 25.25 87 25.25 66.01 2"/><line class="cls-1" x1="16.66" y1="49.9" x2="71.95" y2="49.9"/><line class="cls-1" x1="16.66" y1="66.14" x2="71.95" y2="66.14"/><line class="cls-1" x1="16.66" y1="82.38" x2="71.95" y2="82.38"/></g><g id="BLACK"><polygon class="cls-3" points="2 108.64 2 2 67.02 2 87 23.64 87 108.64 2 108.64"/><polygon points="66.01 2 66.01 25.25 87 25.25 66.01 2"/><line class="cls-3" x1="16.66" y1="49.9" x2="71.95" y2="49.9"/><line class="cls-3" x1="16.66" y1="66.14" x2="71.95" y2="66.14"/><line class="cls-3" x1="16.66" y1="82.38" x2="71.95" y2="82.38"/></g></svg>