<svg xmlns="http://www.w3.org/2000/svg" viewBox="0 0 129.27 142.67"><defs><style>.cls-1{fill:none;stroke:#000;stroke-miterlimit:10;stroke-width:4px;}.cls-2{font-size:12px;font-family:VoltaModernText-55Roman, Volta Modern Text;}.cls-3{letter-spacing:-0.01em;}.cls-4{letter-spacing:-0.01em;}</style></defs><title>Grid_Black</title><g id="Grid"><path d="M81,57V81H57V57H81m4-4H53V85H85V53Z" transform="translate(-25.37 15.67)"/><path d="M123,57V81H99V57h24m4-4H95V85h32V53Z" transform="translate(-25.37 15.67)"/><path d="M81,99v24H57V99H81m4-4H53v32H85V95Z" transform="translate(-25.37 15.67)"/><path d="M123,99v24H99V99h24m4-4H95v32h32V95Z" transform="translate(-25.37 15.67)"/></g><g id="NOTE"><line class="cls-1" y1="8.55" x2="24.09" y2="8.55"/><text class="cls-2" transform="translate(28.28 10.46)">4 poi<tspan class="cls-3" x="27.6" y="0">n</tspan><tspan x="34.33" y="0">t line </tspan><tspan class="cls-4" x="64.08" y="0">w</tspan><tspan x="73.33" y="0">eig</tspan><tspan class="cls-4" x="90.05" y="0">h</tspan><tspan x="96.78" y="0">t</tspan></text></g></svg>