<svg xmlns="http://www.w3.org/2000/svg" viewBox="0 0 68.55 109.79"><defs><style>.cls-1{fill:#fff;}</style></defs><title>Help_Black</title><g id="WHITE"><path class="cls-1" d="M97,83.85c6.6-5.85,12.45-10.5,12.45-20.25s-7-18-20.25-18C73.75,45.6,66.55,56,66.1,71.25H53.8c.45-20.4,10.8-36.45,35.85-36.45,21.15,0,32.7,12.9,32.7,28.65,0,12.3-6.75,19.35-13.8,25.2C96.1,99,92.8,102.75,92.65,118.05H81.25C81.4,101.55,85.6,93.9,97,83.85Z" transform="translate(-53.8 -34.8)"/><path class="cls-1" d="M94.6,136.8a7.73,7.73,0,1,1-7.8-7.65A7.75,7.75,0,0,1,94.6,136.8Z" transform="translate(-53.8 -34.8)"/></g><g id="BLACK"><path d="M97,83.85c6.6-5.85,12.45-10.5,12.45-20.25s-7-18-20.25-18C73.75,45.6,66.55,56,66.1,71.25H53.8c.45-20.4,10.8-36.45,35.85-36.45,21.15,0,32.7,12.9,32.7,28.65,0,12.3-6.75,19.35-13.8,25.2C96.1,99,92.8,102.75,92.65,118.05H81.25C81.4,101.55,85.6,93.9,97,83.85Z" transform="translate(-53.8 -34.8)"/><path d="M94.6,136.8a7.73,7.73,0,1,1-7.8-7.65A7.75,7.75,0,0,1,94.6,136.8Z" transform="translate(-53.8 -34.8)"/></g></svg>