<svg xmlns="http://www.w3.org/2000/svg" viewBox="0 0 111 111"><defs><style>.cls-1{fill:none;stroke:#000;stroke-miterlimit:10;stroke-width:4px;}</style></defs><title>Network_Black</title><g id="BLACK"><path class="cls-1" d="M143.5,90A53.5,53.5,0,1,1,90,36.5,53.5,53.5,0,0,1,143.5,90ZM90,36.5v107M39.55,73.15s15.74-12,50.45-12,50.1,11,50.1,11m0,35.71S124.67,119,90,119s-50.45-12-50.45-12m48.6,36.54s-27.5-4.67-27.5-53.5,27.5-53.5,27.5-53.5m3.7,0s27.5,4.67,27.5,53.5-27.5,53.5-27.5,53.5M36.5,90.06h107" transform="translate(-34.5 -34.5)"/></g></svg>