<svg xmlns="http://www.w3.org/2000/svg" viewBox="0 0 89 110.64"><defs><style>.cls-1,.cls-3{fill:none;stroke-width:4px;}.cls-1{stroke:#fff;}.cls-2{fill:#fff;}.cls-3{stroke:#000;}</style></defs><title>PDF_Black</title><g id="WHITE"><polygon class="cls-1" points="2 108.64 2 2 67.02 2 87 23.64 87 108.64 2 108.64"/><path class="cls-2" d="M63.28,80h9.11a7.3,7.3,0,0,1,5.42,1.94,6.65,6.65,0,0,1,1.85,4.73c0,3.91-2.58,6.55-6.93,6.55h-5.1v7.51H63.28Zm4.35,9.8H72c2.2,0,3.36-1.22,3.36-3.1S74.13,83.6,72,83.6H67.63Z" transform="translate(-45.5 -34.68)"/><path class="cls-2" d="M82.48,80h8.09c5.53,0,9.1,4.47,9.1,10.58a10.39,10.39,0,0,1-3.31,8.15,9.2,9.2,0,0,1-6.14,2H82.48Zm7.45,17.11c3.94,0,5.48-2.41,5.48-6.53s-1.8-7-5.37-7H86.68V97.06Z" transform="translate(-45.5 -34.68)"/><path class="cls-2" d="M102.68,80h14.85v3.57H106.89v5h9v3.6h-9v8.58h-4.21Z" transform="translate(-45.5 -34.68)"/><polygon class="cls-2" points="66.01 2 66.01 25.25 87 25.25 66.01 2"/></g><g id="BLACK"><polygon class="cls-3" points="2 108.64 2 2 67.02 2 87 23.64 87 108.64 2 108.64"/><path d="M63.28,80h9.11a7.3,7.3,0,0,1,5.42,1.94,6.65,6.65,0,0,1,1.85,4.73c0,3.91-2.58,6.55-6.93,6.55h-5.1v7.51H63.28Zm4.35,9.8H72c2.2,0,3.36-1.22,3.36-3.1S74.13,83.6,72,83.6H67.63Z" transform="translate(-45.5 -34.68)"/><path d="M82.48,80h8.09c5.53,0,9.1,4.47,9.1,10.58a10.39,10.39,0,0,1-3.31,8.15,9.2,9.2,0,0,1-6.14,2H82.48Zm7.45,17.11c3.94,0,5.48-2.41,5.48-6.53s-1.8-7-5.37-7H86.68V97.06Z" transform="translate(-45.5 -34.68)"/><path d="M102.68,80h14.85v3.57H106.89v5h9v3.6h-9v8.58h-4.21Z" transform="translate(-45.5 -34.68)"/><polygon points="66.01 2 66.01 25.25 87 25.25 66.01 2"/></g></svg>