<svg xmlns="http://www.w3.org/2000/svg" viewBox="0 0 110.57 95.89"><defs><style>.cls-1{fill:#fff;}</style></defs><title>Profile_Black</title><g id="WHITE"><path class="cls-1" d="M143.25,137.48c-.76-4.31-4.05-15.44-6.33-17.46s-9.61-5.57-14.17-6.84c-2.32-.64-7.08-2-11.19-3.2a43.26,43.26,0,0,0-5.61-7.85c-1.71-1.83-5.27-3.1-7.77-3.79,0-.29,0-.57,0-.87l.45-.62a9.56,9.56,0,0,0,1.94-4.41c.24-1.76.67-4.72.67-4.72s1.83.69,2.1-1.83a42.06,42.06,0,0,0,.6-6,17.39,17.39,0,0,0,.81-1.72c.42-1,.59-3.52.6-6.55S105,64,104.05,61.37s-2.87-4-3.48-5.08A16.47,16.47,0,0,0,96,52.42a5.49,5.49,0,0,0-3-.47,18.92,18.92,0,0,0-5.5-2.38,19.32,19.32,0,0,0-6.36.29,7.48,7.48,0,0,0-3,1.81c-.66.61-2.69.91-6.57,4.54S67,66.81,67,69a60.5,60.5,0,0,0,1,8.36,30,30,0,0,1-.15,3.36,4.25,4.25,0,0,1,.68-1.33c.08.23.14.43.2.59a10.25,10.25,0,0,0-.1,2.4c.16,1.6.63,2.21.73,3.28s.21,2.14,1.15,2.27,1-.32,1-.32.72,4.15.86,5.66a9.63,9.63,0,0,0,2,4V101c-1.36.76-3.64,2.21-3.88,3.51-.34,1.85-3.2,3.37-5.06,4.89a17.82,17.82,0,0,0-1.83,1.85c-1.37.36-2.72.76-3.89,1.2-4.81,1.77-13.16,3.29-15.94,7.33s-3,9.37-4.81,14.17c-.93,2.53-2.63,7.15-4.29,11.37H145.29C144.31,141.91,143.53,139.05,143.25,137.48Z" transform="translate(-34.71 -49.4)"/></g><g id="BLACK"><path d="M143.25,137.48c-.76-4.31-4.05-15.44-6.33-17.46s-9.61-5.57-14.17-6.84c-2.32-.64-7.08-2-11.19-3.2a43.26,43.26,0,0,0-5.61-7.85c-1.71-1.83-5.27-3.1-7.77-3.79,0-.29,0-.57,0-.87l.45-.62a9.56,9.56,0,0,0,1.94-4.41c.24-1.76.67-4.72.67-4.72s1.83.69,2.1-1.83a42.06,42.06,0,0,0,.6-6,17.39,17.39,0,0,0,.81-1.72c.42-1,.59-3.52.6-6.55S105,64,104.05,61.37s-2.87-4-3.48-5.08A16.47,16.47,0,0,0,96,52.42a5.49,5.49,0,0,0-3-.47,18.92,18.92,0,0,0-5.5-2.38,19.32,19.32,0,0,0-6.36.29,7.48,7.48,0,0,0-3,1.81c-.66.61-2.69.91-6.57,4.54S67,66.81,67,69a60.5,60.5,0,0,0,1,8.36,30,30,0,0,1-.15,3.36,4.25,4.25,0,0,1,.68-1.33c.08.23.14.43.2.59a10.25,10.25,0,0,0-.1,2.4c.16,1.6.63,2.21.73,3.28s.21,2.14,1.15,2.27,1-.32,1-.32.72,4.15.86,5.66a9.63,9.63,0,0,0,2,4V101c-1.36.76-3.64,2.21-3.88,3.51-.34,1.85-3.2,3.37-5.06,4.89a17.82,17.82,0,0,0-1.83,1.85c-1.37.36-2.72.76-3.89,1.2-4.81,1.77-13.16,3.29-15.94,7.33s-3,9.37-4.81,14.17c-.93,2.53-2.63,7.15-4.29,11.37H145.29C144.31,141.91,143.53,139.05,143.25,137.48Z" transform="translate(-34.71 -49.4)"/></g></svg>