<svg xmlns="http://www.w3.org/2000/svg" xmlns:xlink="http://www.w3.org/1999/xlink" viewBox="0 0 110 110"><defs><style>.cls-1,.cls-2{fill:none;}.cls-2{clip-path:url(#clip-path);}.cls-3,.cls-4{fill:#fff;}.cls-4{clip-path:url(#clip-path-2);}.cls-5{clip-path:url(#clip-path-3);}.cls-6{clip-path:url(#clip-path-4);}</style><clipPath id="clip-path"><line class="cls-1" x1="108.75" y1="90" x2="71.25" y2="90"/></clipPath><clipPath id="clip-path-2"><line class="cls-3" x1="108.75" y1="90" x2="71.25" y2="90"/></clipPath><clipPath id="clip-path-3" transform="translate(-35 -35)"><line class="cls-2" x1="90" y1="71.25" x2="90" y2="108.75"/></clipPath><clipPath id="clip-path-4" transform="translate(-35 -35)"><line class="cls-4" x1="90" y1="71.25" x2="90" y2="108.75"/></clipPath></defs><title>Add_Black</title><g id="WHITE"><g class="cls-5"><rect width="110" height="110"/></g><path class="cls-3" d="M35,35V145H145V35Zm73.61,59.1H94v14.65h-8.2V94.1H71.11V85.9H85.76V71.25H94V85.9h14.65Z" transform="translate(-35 -35)"/></g><g id="BLACK"><line class="cls-3" x1="73.75" y1="55" x2="36.25" y2="55"/><line class="cls-3" x1="55" y1="36.25" x2="55" y2="73.75"/><g class="cls-6"><rect class="cls-3" width="110" height="110"/></g><path d="M35,35V145H145V35Zm73.61,59.1H94v14.65h-8.2V94.1H71.11V85.9H85.76V71.25H94V85.9h14.65Z" transform="translate(-35 -35)"/></g></svg>