<svg xmlns="http://www.w3.org/2000/svg" viewBox="0 0 115.37 104.86"><defs><style>.cls-1{stroke:#231f20;stroke-linecap:round;}.cls-1,.cls-2,.cls-4{stroke-miterlimit:10;stroke-width:4px;}.cls-2,.cls-4{fill:none;}.cls-2{stroke:#fff;}.cls-3{fill:#fff;}.cls-4{stroke:#000;}</style></defs><title>Chat_Black</title><g id="WHITE"><path class="cls-1" d="M48.24,70.58" transform="translate(-32.31 -38.52)"/><line class="cls-2" x1="15.92" y1="17.4" x2="55.92" y2="17.4"/><line class="cls-2" x1="15.92" y1="26.97" x2="55.92" y2="26.97"/><line class="cls-2" x1="15.92" y1="36.55" x2="35.92" y2="36.55"/><path class="cls-2" d="M101.62,76.52v-36H34.31V92.44h15v14l14.12-14H84.65C87.46,85.32,93.67,79.54,101.62,76.52Z" transform="translate(-32.31 -38.52)"/><path class="cls-2" d="M114.54,74.25c-17.17,0-31.14,12-31.14,26.74,0,12.9,10.5,23.8,25.12,26.24,3.14,2.29,10.8,7.67,11.16,7.92l6.18,4.33-.13-7.55s0-3,0-6c11.91-3.92,20-13.84,20-25,0-14.74-14-26.74-31.15-26.74Z" transform="translate(-32.31 -38.52)"/><path class="cls-3" d="M114.34,96.38a4.79,4.79,0,1,0,4.79,4.79A4.78,4.78,0,0,0,114.34,96.38Zm-16.27,0a4.79,4.79,0,1,0,4.78,4.79A4.78,4.78,0,0,0,98.07,96.38Zm32.55,0a4.79,4.79,0,1,0,4.79,4.79A4.79,4.79,0,0,0,130.62,96.38Z" transform="translate(-32.31 -38.52)"/></g><g id="BLACK"><path class="cls-1" d="M48.24,70.58" transform="translate(-32.31 -38.52)"/><line class="cls-4" x1="15.92" y1="17.4" x2="55.92" y2="17.4"/><line class="cls-4" x1="15.92" y1="26.97" x2="55.92" y2="26.97"/><line class="cls-4" x1="15.92" y1="36.55" x2="35.92" y2="36.55"/><path class="cls-4" d="M101.62,76.52v-36H34.31V92.44h15v14l14.12-14H84.65C87.46,85.32,93.67,79.54,101.62,76.52Z" transform="translate(-32.31 -38.52)"/><path class="cls-4" d="M114.54,74.25c-17.17,0-31.14,12-31.14,26.74,0,12.9,10.5,23.8,25.12,26.24,3.14,2.29,10.8,7.67,11.16,7.92l6.18,4.33-.13-7.55s0-3,0-6c11.91-3.92,20-13.84,20-25,0-14.74-14-26.74-31.15-26.74Z" transform="translate(-32.31 -38.52)"/><path d="M114.34,96.38a4.79,4.79,0,1,0,4.79,4.79A4.78,4.78,0,0,0,114.34,96.38Zm-16.27,0a4.79,4.79,0,1,0,4.78,4.79A4.78,4.78,0,0,0,98.07,96.38Zm32.55,0a4.79,4.79,0,1,0,4.79,4.79A4.79,4.79,0,0,0,130.62,96.38Z" transform="translate(-32.31 -38.52)"/></g></svg>