<svg xmlns="http://www.w3.org/2000/svg" viewBox="0 0 110.58 110.56"><defs><style>.cls-1{fill:#fff;}.cls-2,.cls-3{fill:none;stroke-miterlimit:10;stroke-width:4.03px;}.cls-2{stroke:#fff;}.cls-3{stroke:#000;}</style></defs><title>External Link_Black</title><g id="WHITE"><rect class="cls-1" x="61.84" y="69" width="92.93" height="5.39" transform="translate(-53.69 62.88) rotate(-45)"/><polygon class="cls-1" points="108.2 33.57 77.01 2.38 110.58 0 108.2 33.57"/><polyline class="cls-2" points="95.28 55.3 95.28 108.55 2.02 108.55 2.02 15.28 55.28 15.28"/></g><g id="BLACK"><rect x="61.84" y="69" width="92.93" height="5.39" transform="translate(-53.69 62.88) rotate(-45)"/><polygon points="108.2 33.57 77.01 2.38 110.58 0 108.2 33.57"/><polyline class="cls-3" points="95.28 55.3 95.28 108.55 2.02 108.55 2.02 15.28 55.28 15.28"/><rect x="61.84" y="69" width="92.93" height="5.39" transform="translate(-53.69 62.88) rotate(-45)"/><polygon points="108.2 33.57 77.01 2.38 110.58 0 108.2 33.57"/><polyline class="cls-3" points="95.28 55.3 95.28 108.55 2.02 108.55 2.02 15.28 55.28 15.28"/></g></svg>