<svg xmlns="http://www.w3.org/2000/svg" viewBox="0 0 89 110.64"><defs><style>.cls-1,.cls-3{fill:none;stroke-width:4px;}.cls-1{stroke:#fff;}.cls-2{fill:#fff;}.cls-3{stroke:#000;}</style></defs><title>Image_File_Black</title><g id="WHITE"><polygon class="cls-1" points="2 108.64 2 2 67.02 2 87 23.64 87 108.64 2 108.64"/><polygon class="cls-2" points="66.01 2 66.01 25.25 87 25.25 66.01 2"/><circle class="cls-2" cx="30.22" cy="41.16" r="7.59"/><polygon class="cls-2" points="13.02 85.91 34.78 59.55 56.54 85.91 13.02 85.91"/><polygon class="cls-2" points="34.78 85.91 56.54 46.38 78.3 85.91 34.78 85.91"/></g><g id="BLACK"><polygon class="cls-3" points="2 108.64 2 2 67.02 2 87 23.64 87 108.64 2 108.64"/><polygon points="66.01 2 66.01 25.25 87 25.25 66.01 2"/><circle cx="30.22" cy="41.16" r="7.59"/><polygon points="13.02 85.91 34.78 59.55 56.54 85.91 13.02 85.91"/><polygon points="34.78 85.91 56.54 46.38 78.3 85.91 34.78 85.91"/></g></svg>