<svg xmlns="http://www.w3.org/2000/svg" viewBox="0 0 113.58 104.27"><defs><style>.cls-1,.cls-2{fill:none;stroke-miterlimit:10;stroke-width:4px;}.cls-1{stroke:#fff;}.cls-2{stroke:#000;}</style></defs><title>Like_Black</title><g id="WHITE"><path class="cls-1" d="M116.06,34.7c-10.48,0-21.6,5.67-26,17.88C85.51,40.37,74.45,34.7,64,34.7c-14.29,0-28.76,10.36-28.76,30.17,0,15.14,9,31.5,27,48.31A195.51,195.51,0,0,0,90,134.6a181.9,181.9,0,0,0,27.78-21.42c17.93-16.91,27-33.17,27-48.31C144.81,45.06,130.34,34.7,116.06,34.7Z" transform="translate(-33.21 -32.7)"/></g><g id="BLACK"><path class="cls-2" d="M116.06,34.7c-10.48,0-21.6,5.67-26,17.88C85.51,40.37,74.45,34.7,64,34.7c-14.29,0-28.76,10.36-28.76,30.17,0,15.14,9,31.5,27,48.31A195.51,195.51,0,0,0,90,134.6a181.9,181.9,0,0,0,27.78-21.42c17.93-16.91,27-33.17,27-48.31C144.81,45.06,130.34,34.7,116.06,34.7Z" transform="translate(-33.21 -32.7)"/></g></svg>