<svg xmlns="http://www.w3.org/2000/svg" viewBox="0 0 91.9 110.54"><defs><style>.cls-1,.cls-2,.cls-4{fill:none;stroke-miterlimit:10;stroke-width:4px;}.cls-1{stroke:#fff;}.cls-2{stroke:#221f1f;}.cls-3{fill:#fff;}.cls-4{stroke:#000;}</style></defs><title>Logout_Black</title><g id="WHITE"><polyline class="cls-1" points="55.25 71.61 55.25 108.54 2 108.54 2 2 55.26 2 55.24 38.89"/><path class="cls-2" d="M106,145.3" transform="translate(-42.75 -34.75)"/><path class="cls-2" d="M106,34.7" transform="translate(-42.75 -34.75)"/><rect class="cls-3" x="18.62" y="53.25" width="68.94" height="4"/><polygon class="cls-3" points="73.04 71.61 73.04 38.89 91.9 55.25 73.04 71.61"/></g><g id="BLACK"><polyline class="cls-4" points="55.25 71.61 55.25 108.54 2 108.54 2 2 55.26 2 55.24 38.89"/><path class="cls-2" d="M106,145.3" transform="translate(-42.75 -34.75)"/><path class="cls-2" d="M106,34.7" transform="translate(-42.75 -34.75)"/><rect x="18.62" y="53.25" width="68.94" height="4"/><polygon points="73.04 71.61 73.04 38.89 91.9 55.25 73.04 71.61"/></g></svg>