<svg xmlns="http://www.w3.org/2000/svg" viewBox="0 0 114.59 95.94"><defs><style>.cls-1,.cls-2{fill:none;stroke-miterlimit:10;stroke-width:4px;}.cls-1{stroke:#fff;}.cls-2{stroke:#000;}</style></defs><title>Print_Black</title><g id="WHITE"><polyline class="cls-1" points="20.66 56.61 20.66 93.94 93.94 93.94 93.94 56.61"/><rect class="cls-1" x="20.66" y="2" width="73.28" height="36.64"/><polyline class="cls-1" points="93.94 57.3 93.94 75.28 112.59 75.28 112.59 38.64 2 38.64 2 75.28 20.66 75.28 20.66 57.3"/><line class="cls-1" x1="34.8" y1="69.84" x2="79.8" y2="69.84"/><line class="cls-1" x1="34.8" y1="81.4" x2="79.8" y2="81.4"/><line class="cls-1" x1="12.96" y1="56.61" x2="101.13" y2="56.61"/></g><g id="BLACK"><polyline class="cls-2" points="20.66 56.61 20.66 93.94 93.94 93.94 93.94 56.61"/><rect class="cls-2" x="20.66" y="2" width="73.28" height="36.64"/><polyline class="cls-2" points="93.94 57.3 93.94 75.28 112.59 75.28 112.59 38.64 2 38.64 2 75.28 20.66 75.28 20.66 57.3"/><line class="cls-2" x1="34.8" y1="69.84" x2="79.8" y2="69.84"/><line class="cls-2" x1="34.8" y1="81.4" x2="79.8" y2="81.4"/><line class="cls-2" x1="12.96" y1="56.61" x2="101.13" y2="56.61"/></g></svg>