<svg xmlns="http://www.w3.org/2000/svg" viewBox="0 0 114.59 114.59"><defs><style>.cls-1{fill:none;stroke:#000;stroke-miterlimit:10;stroke-width:4px;}</style></defs><title>Settings_Black</title><g id="BLACK"><path class="cls-1" d="M144.31,100.36a54.7,54.7,0,0,0,0-20.72L134.07,76a46,46,0,0,0-3-7.24l4.68-9.83a55.55,55.55,0,0,0-14.66-14.66l-9.83,4.68a46,46,0,0,0-7.24-3l-3.65-10.24a54.7,54.7,0,0,0-20.72,0L76,45.93a46,46,0,0,0-7.24,3l-9.83-4.68A55.55,55.55,0,0,0,44.26,58.92l4.68,9.83a46,46,0,0,0-3,7.24L35.69,79.64a54.7,54.7,0,0,0,0,20.72L45.93,104a46,46,0,0,0,3,7.24l-4.68,9.83a55.55,55.55,0,0,0,14.66,14.66l9.83-4.68a46,46,0,0,0,7.24,3l3.65,10.24a54.7,54.7,0,0,0,20.72,0L104,134.07a46,46,0,0,0,7.24-3l9.83,4.68a55.55,55.55,0,0,0,14.66-14.66l-4.68-9.83a46,46,0,0,0,3-7.24Z" transform="translate(-32.7 -32.7)"/><circle class="cls-1" cx="57.3" cy="57.3" r="20"/></g></svg>