<svg xmlns="http://www.w3.org/2000/svg" viewBox="0 0 129.27 142.67"><defs><style>.cls-1{fill:none;stroke:#000;stroke-miterlimit:10;stroke-width:4px;}.cls-2{font-size:12px;font-family:VoltaModernText-55Roman, Volta Modern Text;}.cls-3{letter-spacing:-0.01em;}.cls-4{letter-spacing:-0.01em;}</style></defs><title>Star_Black</title><g id="Star"><path d="M90,66.05l4.91,16,.87,2.83h19.47L101.69,95.34,99.5,97l.81,2.65,5,16.49-12.92-10L90,104.34l-2.44,1.88-12.92,10,5-16.49L80.5,97l-2.19-1.69L64.75,84.9H84.22l.87-2.83,4.91-16M90,52.4,81.27,80.9H53L75.87,98.51,67.13,127,90,109.39,112.87,127l-8.74-28.49L127,80.9H98.73L90,52.4Z" transform="translate(-25.37 15.67)"/></g><g id="NOTE"><line class="cls-1" y1="8.55" x2="24.09" y2="8.55"/><text class="cls-2" transform="translate(28.28 10.46)">4 poi<tspan class="cls-3" x="27.6" y="0">n</tspan><tspan x="34.33" y="0">t line </tspan><tspan class="cls-4" x="64.08" y="0">w</tspan><tspan x="73.33" y="0">eig</tspan><tspan class="cls-4" x="90.05" y="0">h</tspan><tspan x="96.78" y="0">t</tspan></text></g></svg>